<svg width="34" height="34" viewBox="0 0 34 34" fill="none" xmlns="http://www.w3.org/2000/svg">
    <g clip-path="url(#clip0_9435_22576)">
    <circle cx="17" cy="17" r="17" fill="black" />
    <path
      d="M23.3809 20.8782C23.2131 20.2592 22.8546 19.7144 22.368 19.2982C22.1802 19.1373 21.9754 18.9849 21.7515 18.843C21.5619 18.722 21.3229 18.9001 21.3779 19.1192L21.5125 19.6544C21.6833 20.3344 20.9568 20.8858 20.3517 20.5363L18.7251 19.5973C17.6562 18.9801 16.3417 18.9801 15.2728 19.5973L13.6463 20.5363C13.0412 20.8858 12.3147 20.3334 12.4854 19.6544L12.6239 19.1039C12.6789 18.8858 12.4408 18.7077 12.2511 18.8277C12.0026 18.9839 11.7769 19.1534 11.572 19.3315C11.0931 19.7487 10.7602 20.3087 10.6046 20.9258L10.599 20.9487C10.2035 22.5258 10.818 24.1839 12.1439 25.1182L16.2506 28.0106C16.7002 28.3268 17.2987 28.3268 17.7482 28.0106L21.8549 25.1182C23.2007 24.1706 23.8134 22.4763 23.3809 20.8792V20.8782Z"
      fill="#808080"
    />
    <path
      d="M23.2592 17.5105C22.8985 14.5008 21.4204 11.4854 19.991 9.17527L22.1151 7.0538C22.596 6.57347 22.2553 5.75195 21.575 5.75195H17.0004C16.6474 5.75195 16.2934 5.9073 16.0548 6.21704C14.4441 8.31086 11.2904 12.9179 10.7398 17.5105C10.6902 17.9289 11.1816 18.1853 11.4965 17.9051C12.5958 16.9273 14.3105 16.2278 16.9995 16.2278C19.6885 16.2278 21.4023 16.9282 22.5025 17.9051C22.8174 18.1853 23.3088 17.928 23.2592 17.5105Z"
      fill="white"
    />
    </g>
    <defs>
    <clipPath id="clip0_9435_22576">
    <rect width="34" height="34" fill="white" />
    </clipPath>
    </defs>
</svg>
