<svg width="1044" height="521" viewBox="0 0 1044 521" fill="none" xmlns="http://www.w3.org/2000/svg">
<g filter="url(#filter0_d_8466_15795)">
<mask id="path-1-outside-1_8466_15795" maskUnits="userSpaceOnUse" x="79" y="75" width="886" height="363" fill="black">
<rect fill="white" x="79" y="75" width="886" height="363"/>
<path d="M80.7159 365.227V314.943L228.841 80.9091H270.773V152.5H245.205L145.489 310.511V313.239H352.25V365.227H80.7159ZM247.25 430V349.886L247.932 327.386V80.9091H307.591V430H247.25ZM521.344 436.648C493.276 436.648 469.185 429.545 449.072 415.341C429.072 401.023 413.674 380.398 402.878 353.466C392.197 326.42 386.856 293.864 386.856 255.795C386.969 217.727 392.367 185.341 403.049 158.636C413.844 131.818 429.242 111.364 449.242 97.2727C469.356 83.1818 493.39 76.1364 521.344 76.1364C549.299 76.1364 573.333 83.1818 593.447 97.2727C613.56 111.364 628.958 131.818 639.64 158.636C650.435 185.455 655.833 217.841 655.833 255.795C655.833 293.977 650.435 326.591 639.64 353.636C628.958 380.568 613.56 401.136 593.447 415.341C573.447 429.545 549.413 436.648 521.344 436.648ZM521.344 383.295C543.163 383.295 560.378 372.557 572.992 351.08C585.719 329.489 592.083 297.727 592.083 255.795C592.083 228.068 589.185 204.773 583.39 185.909C577.594 167.045 569.413 152.841 558.844 143.295C548.276 133.636 535.776 128.807 521.344 128.807C499.64 128.807 482.481 139.602 469.867 161.193C457.253 182.67 450.89 214.205 450.776 255.795C450.663 283.636 453.447 307.045 459.128 326.023C464.924 345 473.106 359.318 483.674 368.977C494.242 378.523 506.799 383.295 521.344 383.295ZM691.76 365.227V314.943L839.885 80.9091H881.816V152.5H856.248L756.532 310.511V313.239H963.294V365.227H691.76ZM858.294 430V349.886L858.976 327.386V80.9091H918.635V430H858.294Z"/>
</mask>
<path d="M80.7159 365.227V314.943L228.841 80.9091H270.773V152.5H245.205L145.489 310.511V313.239H352.25V365.227H80.7159ZM247.25 430V349.886L247.932 327.386V80.9091H307.591V430H247.25ZM521.344 436.648C493.276 436.648 469.185 429.545 449.072 415.341C429.072 401.023 413.674 380.398 402.878 353.466C392.197 326.42 386.856 293.864 386.856 255.795C386.969 217.727 392.367 185.341 403.049 158.636C413.844 131.818 429.242 111.364 449.242 97.2727C469.356 83.1818 493.39 76.1364 521.344 76.1364C549.299 76.1364 573.333 83.1818 593.447 97.2727C613.56 111.364 628.958 131.818 639.64 158.636C650.435 185.455 655.833 217.841 655.833 255.795C655.833 293.977 650.435 326.591 639.64 353.636C628.958 380.568 613.56 401.136 593.447 415.341C573.447 429.545 549.413 436.648 521.344 436.648ZM521.344 383.295C543.163 383.295 560.378 372.557 572.992 351.08C585.719 329.489 592.083 297.727 592.083 255.795C592.083 228.068 589.185 204.773 583.39 185.909C577.594 167.045 569.413 152.841 558.844 143.295C548.276 133.636 535.776 128.807 521.344 128.807C499.64 128.807 482.481 139.602 469.867 161.193C457.253 182.67 450.89 214.205 450.776 255.795C450.663 283.636 453.447 307.045 459.128 326.023C464.924 345 473.106 359.318 483.674 368.977C494.242 378.523 506.799 383.295 521.344 383.295ZM691.76 365.227V314.943L839.885 80.9091H881.816V152.5H856.248L756.532 310.511V313.239H963.294V365.227H691.76ZM858.294 430V349.886L858.976 327.386V80.9091H918.635V430H858.294Z" fill="url(#paint0_linear_8466_15795)" shape-rendering="crispEdges"/>
<path d="M80.7159 365.227H79.7159V366.227H80.7159V365.227ZM80.7159 314.943L79.8709 314.408L79.7159 314.653V314.943H80.7159ZM228.841 80.9091V79.9091H228.29L227.996 80.3743L228.841 80.9091ZM270.773 80.9091H271.773V79.9091H270.773V80.9091ZM270.773 152.5V153.5H271.773V152.5H270.773ZM245.205 152.5V151.5H244.653L244.359 151.966L245.205 152.5ZM145.489 310.511L144.643 309.978L144.489 310.222V310.511H145.489ZM145.489 313.239H144.489V314.239H145.489V313.239ZM352.25 313.239H353.25V312.239H352.25V313.239ZM352.25 365.227V366.227H353.25V365.227H352.25ZM247.25 430H246.25V431H247.25V430ZM247.25 349.886L246.25 349.856L246.25 349.871V349.886H247.25ZM247.932 327.386L248.931 327.417L248.932 327.402V327.386H247.932ZM247.932 80.9091V79.9091H246.932V80.9091H247.932ZM307.591 80.9091H308.591V79.9091H307.591V80.9091ZM307.591 430V431H308.591V430H307.591ZM81.7159 365.227V314.943H79.7159V365.227H81.7159ZM81.5609 315.478L229.686 81.4439L227.996 80.3743L79.8709 314.408L81.5609 315.478ZM228.841 81.9091H270.773V79.9091H228.841V81.9091ZM269.773 80.9091V152.5H271.773V80.9091H269.773ZM270.773 151.5H245.205V153.5H270.773V151.5ZM244.359 151.966L144.643 309.978L146.334 311.045L246.05 153.034L244.359 151.966ZM144.489 310.511V313.239H146.489V310.511H144.489ZM145.489 314.239H352.25V312.239H145.489V314.239ZM351.25 313.239V365.227H353.25V313.239H351.25ZM352.25 364.227H80.7159V366.227H352.25V364.227ZM248.25 430V349.886H246.25V430H248.25ZM248.25 349.917L248.931 327.417L246.932 327.356L246.25 349.856L248.25 349.917ZM248.932 327.386V80.9091H246.932V327.386H248.932ZM247.932 81.9091H307.591V79.9091H247.932V81.9091ZM306.591 80.9091V430H308.591V80.9091H306.591ZM307.591 429H247.25V431H307.591V429ZM449.072 415.341L448.489 416.154L448.495 416.158L449.072 415.341ZM402.878 353.466L401.948 353.833L401.95 353.838L402.878 353.466ZM386.856 255.795L385.856 255.792V255.795H386.856ZM403.049 158.636L402.121 158.263L402.12 158.265L403.049 158.636ZM449.242 97.2727L448.668 96.4537L448.666 96.4552L449.242 97.2727ZM593.447 97.2727L592.873 98.0917L593.447 97.2727ZM639.64 158.636L638.711 159.006L638.712 159.01L639.64 158.636ZM639.64 353.636L638.711 353.266L638.71 353.268L639.64 353.636ZM593.447 415.341L592.87 414.524L592.868 414.526L593.447 415.341ZM572.992 351.08L572.131 350.572L572.13 350.573L572.992 351.08ZM583.39 185.909L584.346 185.615L583.39 185.909ZM558.844 143.295L558.17 144.034L558.174 144.038L558.844 143.295ZM469.867 161.193L470.729 161.7L470.73 161.698L469.867 161.193ZM450.776 255.795L451.776 255.8V255.798L450.776 255.795ZM459.128 326.023L458.17 326.31L458.172 326.315L459.128 326.023ZM483.674 368.977L482.999 369.715L483.004 369.719L483.674 368.977ZM521.344 435.648C493.453 435.648 469.57 428.593 449.648 414.524L448.495 416.158C468.8 430.498 493.1 437.648 521.344 437.648V435.648ZM449.654 414.528C429.835 400.339 414.544 379.881 403.807 353.094L401.95 353.838C412.804 380.914 428.308 401.706 448.49 416.154L449.654 414.528ZM403.809 353.099C393.185 326.2 387.856 293.775 387.856 255.795H385.856C385.856 293.952 391.208 326.641 401.948 353.833L403.809 353.099ZM387.856 255.798C387.969 217.818 393.355 185.564 403.977 159.008L402.12 158.265C391.379 185.118 385.97 217.637 385.856 255.792L387.856 255.798ZM403.977 159.01C414.713 132.337 430.002 112.051 449.818 98.0902L448.666 96.4552C428.482 110.676 412.975 131.299 402.121 158.263L403.977 159.01ZM449.816 98.0917C469.739 84.1345 493.566 77.1364 521.344 77.1364V75.1364C493.214 75.1364 468.973 82.2292 448.668 96.4537L449.816 98.0917ZM521.344 77.1364C549.123 77.1364 572.95 84.1345 592.873 98.0917L594.02 96.4537C573.716 82.2292 549.475 75.1364 521.344 75.1364V77.1364ZM592.873 98.0917C612.8 112.052 628.088 132.337 638.711 159.006L640.569 158.266C629.828 131.299 614.32 110.675 594.02 96.4537L592.873 98.0917ZM638.712 159.01C649.447 185.678 654.833 217.931 654.833 255.795H656.833C656.833 217.751 651.423 185.231 640.567 158.263L638.712 159.01ZM654.833 255.795C654.833 293.888 649.447 326.369 638.711 353.266L640.569 354.007C651.423 326.813 656.833 294.067 656.833 255.795H654.833ZM638.71 353.268C628.087 380.052 612.798 400.45 592.87 414.524L594.023 416.158C614.322 401.823 629.829 381.085 640.569 354.005L638.71 353.268ZM592.868 414.526C573.06 428.593 549.236 435.648 521.344 435.648V437.648C549.589 437.648 573.833 430.498 594.026 416.156L592.868 414.526ZM521.344 384.295C543.573 384.295 561.092 373.317 573.854 351.586L572.13 350.573C559.665 371.796 542.752 382.295 521.344 382.295V384.295ZM573.854 351.587C586.714 329.771 593.083 297.799 593.083 255.795H591.083C591.083 297.655 584.725 329.206 572.131 350.572L573.854 351.587ZM593.083 255.795C593.083 228.006 590.18 204.604 584.346 185.615L582.434 186.203C588.191 204.941 591.083 228.131 591.083 255.795H593.083ZM584.346 185.615C578.517 166.643 570.259 152.258 559.515 142.553L558.174 144.038C568.566 153.424 576.672 167.448 582.434 186.203L584.346 185.615ZM559.519 142.557C548.765 132.728 536.024 127.807 521.344 127.807V129.807C535.529 129.807 547.787 134.544 558.17 144.034L559.519 142.557ZM521.344 127.807C499.224 127.807 481.764 138.847 469.004 160.689L470.73 161.698C483.197 140.358 500.055 129.807 521.344 129.807V127.807ZM469.005 160.687C456.26 182.387 449.89 214.13 449.776 255.793L451.776 255.798C451.89 214.279 458.247 182.954 470.729 161.7L469.005 160.687ZM449.776 255.791C449.662 283.694 452.452 307.208 458.17 326.31L460.086 325.736C454.442 306.883 451.663 283.579 451.776 255.8L449.776 255.791ZM458.172 326.315C464 345.4 472.257 359.898 482.999 369.715L484.349 368.239C473.954 358.739 465.847 344.6 460.085 325.731L458.172 326.315ZM483.004 369.719C493.76 379.435 506.557 384.295 521.344 384.295V382.295C507.041 382.295 494.724 377.611 484.344 368.235L483.004 369.719ZM691.76 365.227H690.76V366.227H691.76V365.227ZM691.76 314.943L690.915 314.408L690.76 314.653V314.943H691.76ZM839.885 80.9091V79.9091H839.334L839.04 80.3743L839.885 80.9091ZM881.816 80.9091H882.816V79.9091H881.816V80.9091ZM881.816 152.5V153.5H882.816V152.5H881.816ZM856.248 152.5V151.5H855.697L855.403 151.966L856.248 152.5ZM756.532 310.511L755.687 309.978L755.532 310.222V310.511H756.532ZM756.532 313.239H755.532V314.239H756.532V313.239ZM963.294 313.239H964.294V312.239H963.294V313.239ZM963.294 365.227V366.227H964.294V365.227H963.294ZM858.294 430H857.294V431H858.294V430ZM858.294 349.886L857.294 349.856L857.294 349.871V349.886H858.294ZM858.976 327.386L859.975 327.417L859.976 327.402V327.386H858.976ZM858.976 80.9091V79.9091H857.976V80.9091H858.976ZM918.635 80.9091H919.635V79.9091H918.635V80.9091ZM918.635 430V431H919.635V430H918.635ZM692.76 365.227V314.943H690.76V365.227H692.76ZM692.605 315.478L840.73 81.4439L839.04 80.3743L690.915 314.408L692.605 315.478ZM839.885 81.9091H881.816V79.9091H839.885V81.9091ZM880.816 80.9091V152.5H882.816V80.9091H880.816ZM881.816 151.5H856.248V153.5H881.816V151.5ZM855.403 151.966L755.687 309.978L757.378 311.045L857.094 153.034L855.403 151.966ZM755.532 310.511V313.239H757.532V310.511H755.532ZM756.532 314.239H963.294V312.239H756.532V314.239ZM962.294 313.239V365.227H964.294V313.239H962.294ZM963.294 364.227H691.76V366.227H963.294V364.227ZM859.294 430V349.886H857.294V430H859.294ZM859.293 349.917L859.975 327.417L857.976 327.356L857.294 349.856L859.293 349.917ZM859.976 327.386V80.9091H857.976V327.386H859.976ZM858.976 81.9091H918.635V79.9091H858.976V81.9091ZM917.635 80.9091V430H919.635V80.9091H917.635ZM918.635 429H858.294V431H918.635V429Z" fill="url(#paint1_linear_8466_15795)" mask="url(#path-1-outside-1_8466_15795)"/>
</g>
<defs>
<filter id="filter0_d_8466_15795" x="0.716797" y="0.136719" width="1042.58" height="520.512" filterUnits="userSpaceOnUse" color-interpolation-filters="sRGB">
<feFlood flood-opacity="0" result="BackgroundImageFix"/>
<feColorMatrix in="SourceAlpha" type="matrix" values="0 0 0 0 0 0 0 0 0 0 0 0 0 0 0 0 0 0 127 0" result="hardAlpha"/>
<feOffset dy="4"/>
<feGaussianBlur stdDeviation="40"/>
<feComposite in2="hardAlpha" operator="out"/>
<feColorMatrix type="matrix" values="0 0 0 0 0 0 0 0 0 0 0 0 0 0 0 0 0 0 0.04 0"/>
<feBlend mode="normal" in2="BackgroundImageFix" result="effect1_dropShadow_8466_15795"/>
<feBlend mode="normal" in="SourceGraphic" in2="effect1_dropShadow_8466_15795" result="shape"/>
</filter>
<linearGradient id="paint0_linear_8466_15795" x1="521.5" y1="87" x2="521.5" y2="423" gradientUnits="userSpaceOnUse">
<stop stop-color="white" stop-opacity="0.04"/>
<stop offset="1" stop-color="white" stop-opacity="0"/>
</linearGradient>
<linearGradient id="paint1_linear_8466_15795" x1="521.5" y1="87" x2="521.5" y2="423" gradientUnits="userSpaceOnUse">
<stop stop-color="white" stop-opacity="0.06"/>
<stop offset="1" stop-color="white" stop-opacity="0"/>
</linearGradient>
</defs>
</svg>
