<svg width="80" height="80" viewBox="0 0 80 80" fill="none" xmlns="http://www.w3.org/2000/svg">
<rect width="80" height="80" rx="20" fill="#0059FF"/>
<path d="M45.6191 22.3952C43.8875 19.3722 40.0393 18.3431 37.025 20.0798C34.0105 21.8164 32.9844 25.6755 34.716 28.6985L51.4554 57.7707C53.1875 60.7936 57.0354 61.8228 60.0499 60.0862C63.0644 58.3496 64.0903 54.4904 62.3588 51.4674L45.6191 22.3952Z" fill="url(#paint0_linear_7823_9348)"/>
<path d="M51.6702 33.0716C46.0476 30.113 42.285 34.1865 40.6388 36.6521C40.3823 37.038 40.1257 37.4453 39.9119 37.8527C39.805 38.0671 39.7409 38.2172 39.6981 38.26L37.5389 42.0334L28.5385 57.6629C28.1323 58.3704 27.5764 59.0136 26.9137 59.5067C26.2509 59.9999 25.5027 60.3858 24.7117 60.6002C23.1083 61.0289 21.398 60.8146 19.9442 59.9784C18.5119 59.1422 17.4429 57.7701 17.0154 56.1622C16.5878 54.5542 16.8016 52.839 17.6354 51.3811L33.1776 24.3672L34.3321 22.3518C34.8879 21.387 35.679 20.5938 36.6196 20.0363C37.5816 19.4789 38.6506 19.2002 39.7623 19.2002H39.9974C41.1091 19.2002 42.178 19.5004 43.1401 20.0363C44.1021 20.5938 44.8931 21.387 45.449 22.3518L51.6702 33.0716Z" fill="white"/>
<defs>
<linearGradient id="paint0_linear_7823_9348" x1="58.2486" y1="56.6234" x2="44.0083" y2="32.4929" gradientUnits="userSpaceOnUse">
<stop stop-color="white"/>
<stop offset="1" stop-color="white" stop-opacity="0"/>
</linearGradient>
</defs>
</svg>
