<svg width="88" height="89" viewBox="0 0 88 89" fill="none" xmlns="http://www.w3.org/2000/svg">
  <rect x="0.5" y="1" width="87" height="87" rx="23.5" stroke="white" stroke-opacity="0.04" />
  <g filter="url(#filter0_i_7823_8127)">
  <g clip-path="url(#clip0_7823_8127)">
  <rect
        x="4"
        y="4.5"
        width="80"
        height="80"
        rx="20"
        fill="url(#paint0_linear_7823_8127)"
        fill-opacity="0.16"
      />
  <rect
        x="4"
        y="4.5"
        width="80"
        height="80"
        rx="20"
        fill="url(#paint1_radial_7823_8127)"
        style="mix-blend-mode:soft-light"
      />
  <g filter="url(#filter1_d_7823_8127)">
  <path
          fill-rule="evenodd"
          clip-rule="evenodd"
          d="M28.6804 32.0476C28 33.016 28 35.8942 28 41.6506V44.4838C28 54.634 35.6302 59.557 40.4182 61.6486L40.4245 61.6513C41.7181 62.2165 42.367 62.5 44.2 62.5C46.033 62.5 46.6819 62.2165 47.9755 61.6513L47.9818 61.6486C52.7698 59.5588 60.4 54.6322 60.4 44.4838V41.6506C60.4 35.896 60.4 33.016 59.7196 32.0476C59.041 31.081 56.3356 30.154 50.923 28.3018L49.8916 27.949C47.071 26.9824 45.6598 26.5 44.2 26.5C42.7384 26.5 41.329 26.9824 38.5084 27.949L37.477 28.3018C32.0644 30.154 29.359 31.081 28.6804 32.0476ZM44.2004 37.3906C43.5188 37.3906 42.8556 37.6117 42.3104 38.0206L36.1904 42.6106C36.0486 42.717 35.9291 42.8503 35.8388 43.0028C35.7484 43.1554 35.689 43.3242 35.664 43.4997C35.6389 43.6752 35.6486 43.8539 35.6926 44.0257C35.7366 44.1974 35.814 44.3588 35.9204 44.5006C36.0268 44.6425 36.16 44.7619 36.3126 44.8523C36.4651 44.9426 36.634 45.002 36.8095 45.0271C36.985 45.0521 37.1637 45.0424 37.3354 44.9984C37.5072 44.9544 37.6686 44.877 37.8104 44.7706L43.9304 40.1806C44.0083 40.1222 44.103 40.0906 44.2004 40.0906C44.2978 40.0906 44.3925 40.1222 44.4704 40.1806L50.5904 44.7706C50.7322 44.877 50.8936 44.9544 51.0653 44.9984C51.2371 45.0424 51.4158 45.0521 51.5913 45.0271C51.7668 45.002 51.9357 44.9426 52.0882 44.8523C52.2408 44.7619 52.374 44.6425 52.4804 44.5006C52.5868 44.3588 52.6642 44.1974 52.7082 44.0257C52.7522 43.8539 52.7619 43.6752 52.7368 43.4997C52.7118 43.3242 52.6524 43.1554 52.562 43.0028C52.4717 42.8503 52.3522 42.717 52.2104 42.6106L46.0904 38.0206C45.5451 37.6117 44.882 37.3906 44.2004 37.3906ZM44.2004 44.1406C43.9083 44.1406 43.6241 44.2354 43.3904 44.4106L39.7904 47.1106C39.504 47.3255 39.3146 47.6453 39.264 47.9997C39.2133 48.3542 39.3056 48.7142 39.5204 49.0006C39.7352 49.2871 40.055 49.4764 40.4095 49.5271C40.7639 49.5777 41.124 49.4855 41.4104 49.2706L44.2004 47.179L46.9904 49.2706C47.2768 49.4855 47.6369 49.5777 47.9913 49.5271C48.3458 49.4764 48.6656 49.2871 48.8804 49.0006C49.0952 48.7142 49.1875 48.3542 49.1368 47.9997C49.0862 47.6453 48.8968 47.3255 48.6104 47.1106L45.0104 44.4106C44.7767 44.2354 44.4925 44.1406 44.2004 44.1406Z"
          fill="url(#paint2_linear_7823_8127)"
        />
  </g>
  </g>
  <rect x="4.5" y="5" width="79" height="79" rx="19.5" stroke="url(#paint3_radial_7823_8127)" />
  </g>
  <defs>
  <filter
      id="filter0_i_7823_8127"
      x="4"
      y="4.5"
      width="80"
      height="81"
      filterUnits="userSpaceOnUse"
      color-interpolation-filters="sRGB"
    >
  <feFlood flood-opacity="0" result="BackgroundImageFix" />
  <feBlend mode="normal" in="SourceGraphic" in2="BackgroundImageFix" result="shape" />
  <feColorMatrix
        in="SourceAlpha"
        type="matrix"
        values="0 0 0 0 0 0 0 0 0 0 0 0 0 0 0 0 0 0 127 0"
        result="hardAlpha"
      />
  <feOffset dy="1" />
  <feGaussianBlur stdDeviation="0.5" />
  <feComposite in2="hardAlpha" operator="arithmetic" k2="-1" k3="1" />
  <feColorMatrix type="matrix" values="0 0 0 0 1 0 0 0 0 1 0 0 0 0 1 0 0 0 0.08 0" />
  <feBlend mode="normal" in2="shape" result="effect1_innerShadow_7823_8127" />
  </filter>
  <filter
      id="filter1_d_7823_8127"
      x="12"
      y="18.5"
      width="64.4004"
      height="68"
      filterUnits="userSpaceOnUse"
      color-interpolation-filters="sRGB"
    >
  <feFlood flood-opacity="0" result="BackgroundImageFix" />
  <feColorMatrix
        in="SourceAlpha"
        type="matrix"
        values="0 0 0 0 0 0 0 0 0 0 0 0 0 0 0 0 0 0 127 0"
        result="hardAlpha"
      />
  <feOffset dy="8" />
  <feGaussianBlur stdDeviation="8" />
  <feComposite in2="hardAlpha" operator="out" />
  <feColorMatrix type="matrix" values="0 0 0 0 0 0 0 0 0 0 0 0 0 0 0 0 0 0 0.08 0" />
  <feBlend mode="normal" in2="BackgroundImageFix" result="effect1_dropShadow_7823_8127" />
  <feBlend mode="normal" in="SourceGraphic" in2="effect1_dropShadow_7823_8127" result="shape" />
  </filter>
  <linearGradient
      id="paint0_linear_7823_8127"
      x1="4"
      y1="4.5"
      x2="90"
      y2="84.5"
      gradientUnits="userSpaceOnUse"
    >
  <stop stop-color="#00E8CC" />
  <stop offset="1" stop-color="#50239F" />
  </linearGradient>
  <radialGradient
      id="paint1_radial_7823_8127"
      cx="0"
      cy="0"
      r="1"
      gradientUnits="userSpaceOnUse"
      gradientTransform="translate(44 4.5) rotate(90) scale(80)"
    >
  <stop stop-color="white" stop-opacity="0.48" />
  <stop offset="1" stop-opacity="0.24" />
  </radialGradient>
  <linearGradient
      id="paint2_linear_7823_8127"
      x1="44.2"
      y1="26.5"
      x2="44.2"
      y2="62.5"
      gradientUnits="userSpaceOnUse"
    >
  <stop stop-color="#00FFE1" />
  <stop offset="1" stop-color="#00FFE1" stop-opacity="0.08" />
  </linearGradient>
  <radialGradient
      id="paint3_radial_7823_8127"
      cx="0"
      cy="0"
      r="1"
      gradientUnits="userSpaceOnUse"
      gradientTransform="translate(44 4.5) rotate(90) scale(80)"
    >
  <stop stop-color="white" stop-opacity="0.08" />
  <stop offset="1" stop-color="white" stop-opacity="0.01" />
  </radialGradient>
  <clipPath id="clip0_7823_8127">
  <rect x="4" y="4.5" width="80" height="80" rx="20" fill="white" />
  </clipPath>
  </defs>
  </svg>
