<svg width="117" height="24" viewBox="0 0 117 24" fill="none" xmlns="http://www.w3.org/2000/svg">
<g id="Logo" clip-path="url(#clip0_7878_1560)">
<path id="Vector" d="M16.4261 1.81774C15.4345 0.0793599 13.2385 -0.516469 11.5213 0.486918C9.80415 1.4903 9.21602 3.71295 10.2077 5.45132L19.752 22.1823C20.7437 23.9207 22.9397 24.5165 24.6568 23.5131C26.374 22.5097 26.9622 20.2871 25.9705 18.5487L16.4261 1.81774Z" fill="url(#paint0_linear_7878_1560)"/>
<path id="Vector_2" d="M19.9205 8.00837C16.705 6.30208 14.5538 8.64534 13.6135 10.066C13.4633 10.2903 13.3246 10.5222 13.1978 10.7608C13.131 10.8824 13.0948 10.9674 13.0814 10.9963C13.0681 11.0253 13.0814 10.9963 13.0814 11.006L11.838 13.1794L6.70011 22.1837C6.22415 23.0181 5.44016 23.627 4.52061 23.8764C3.60107 24.1258 2.62129 23.9953 1.79682 23.5136C0.972357 23.0319 0.370734 22.2384 0.124306 21.3078C-0.122122 20.3771 0.00683061 19.3855 0.482796 18.5511L9.37204 2.96864L10.0281 1.81053C10.3437 1.25879 10.7974 0.800953 11.3435 0.483111C11.8896 0.165269 12.5087 -0.001357 13.1387 8.32343e-06H13.2779C13.9085 -0.00037881 14.5281 0.167497 15.0742 0.486713C15.6203 0.80593 16.0736 1.26521 16.3885 1.81825L19.9205 8.00837Z" fill="white"/>
<path id="Vector_3" d="M47.0231 7.5742H49.0828C49.2098 7.5742 49.3315 7.62524 49.4213 7.7161C49.5111 7.80696 49.5615 7.93019 49.5615 8.05868V21.2322C49.5615 21.3607 49.5111 21.484 49.4213 21.5748C49.3315 21.6657 49.2098 21.7167 49.0828 21.7167H47.0231C46.8961 21.7167 46.7744 21.6657 46.6846 21.5748C46.5948 21.484 46.5444 21.3607 46.5444 21.2322V20.9562C46.5447 20.8622 46.5178 20.7702 46.4671 20.6914C46.4164 20.6127 46.344 20.5506 46.2589 20.5129C46.1739 20.4752 46.0798 20.4634 45.9882 20.4791C45.8966 20.4947 45.8115 20.5371 45.7434 20.6011C44.6856 21.5906 43.322 22.0854 41.6526 22.0854C40.7281 22.0961 39.812 21.9086 38.9642 21.5354C38.1165 21.1621 37.3565 20.6115 36.734 19.9197C35.3736 18.4785 34.6934 16.7201 34.6934 14.6445C34.6934 12.5689 35.3736 10.806 36.734 9.35577C37.3589 8.66814 38.1198 8.12131 38.9672 7.75085C39.8146 7.38039 40.7295 7.19459 41.6526 7.20553C43.322 7.20553 44.6862 7.69452 45.7453 8.67248C45.8136 8.73589 45.8987 8.77778 45.9901 8.79302C46.0816 8.80827 46.1754 8.79621 46.2602 8.75833C46.345 8.72044 46.417 8.65837 46.4675 8.5797C46.518 8.50104 46.5447 8.40919 46.5444 8.31539V8.05868C46.5444 7.93019 46.5948 7.80696 46.6846 7.7161C46.7744 7.62524 46.8961 7.5742 47.0231 7.5742ZM38.9692 17.8834C39.818 18.7095 40.9498 19.171 42.1274 19.171C43.305 19.171 44.4369 18.7095 45.2857 17.8834C45.7016 17.4581 46.0277 16.9517 46.2441 16.3949C46.4605 15.8381 46.5626 15.2425 46.5444 14.6445C46.5622 14.0465 46.4598 13.4511 46.2434 12.8943C46.0271 12.3376 45.7012 11.8311 45.2857 11.4056C44.4362 10.5808 43.3046 10.1203 42.1274 10.1203C40.9503 10.1203 39.8187 10.5808 38.9692 11.4056C38.5543 11.8315 38.229 12.3381 38.0129 12.8948C37.7969 13.4514 37.6947 14.0467 37.7124 14.6445C37.6943 15.2423 37.7964 15.8377 38.0125 16.3944C38.2285 16.9512 38.554 17.4577 38.9692 17.8834Z" fill="white"/>
<path id="Vector_4" d="M64.6305 1.91699H66.6902C66.8172 1.91699 66.939 1.96804 67.0287 2.05889C67.1185 2.14975 67.1689 2.27298 67.1689 2.40147V21.2324C67.1689 21.3609 67.1185 21.4841 67.0287 21.575C66.939 21.6659 66.8172 21.7169 66.6902 21.7169H64.6305C64.5036 21.7169 64.3818 21.6659 64.292 21.575C64.2023 21.4841 64.1518 21.3609 64.1518 21.2324V20.9564C64.1521 20.8624 64.1252 20.7704 64.0745 20.6916C64.0238 20.6128 63.9514 20.5508 63.8664 20.5131C63.7813 20.4753 63.6872 20.4636 63.5956 20.4793C63.504 20.4949 63.4189 20.5373 63.3508 20.6012C62.293 21.5908 60.9294 22.0856 59.26 22.0856C58.3356 22.0963 57.4194 21.9088 56.5717 21.5356C55.7239 21.1623 54.9639 20.6117 54.3414 19.9199C52.9823 18.4787 52.3021 16.7203 52.3008 14.6447C52.2995 12.5691 52.9797 10.8062 54.3414 9.35595C54.9663 8.66832 55.7272 8.12149 56.5746 7.75103C57.422 7.38057 58.337 7.19477 59.26 7.20572C60.9294 7.20572 62.2936 7.6947 63.3527 8.67266C63.421 8.73607 63.5061 8.77796 63.5975 8.79321C63.689 8.80845 63.7828 8.7964 63.8676 8.75851C63.9524 8.72062 64.0244 8.65855 64.0749 8.57989C64.1254 8.50122 64.1521 8.40937 64.1518 8.31558V2.40147C64.1518 2.27298 64.2023 2.14975 64.292 2.05889C64.3818 1.96804 64.5036 1.91699 64.6305 1.91699ZM56.5766 17.8835C57.4254 18.7097 58.5573 19.1711 59.7349 19.1711C60.9125 19.1711 62.0443 18.7097 62.8931 17.8835C63.309 17.4583 63.6351 16.9519 63.8515 16.3951C64.0679 15.8383 64.1701 15.2427 64.1518 14.6447C64.1696 14.0467 64.0672 13.4513 63.8509 12.8945C63.6345 12.3378 63.3087 11.8313 62.8931 11.4058C62.0437 10.581 60.912 10.1204 59.7349 10.1204C58.5577 10.1204 57.4261 10.581 56.5766 11.4058C56.1617 11.8317 55.8364 12.3382 55.6204 12.8949C55.4043 13.4516 55.3021 14.0469 55.3198 14.6447C55.3018 15.2425 55.4039 15.8379 55.6199 16.3946C55.8359 16.9513 56.1614 17.4579 56.5766 17.8835Z" fill="white"/>
<path id="Vector_5" d="M73.6976 15.9469C73.6197 15.9472 73.543 15.9667 73.4742 16.0037C73.4053 16.0407 73.3464 16.094 73.3025 16.1592C73.2586 16.2244 73.231 16.2993 73.2221 16.3777C73.2132 16.456 73.2232 16.5354 73.2513 16.609C73.5051 17.3401 73.9769 17.9734 74.6016 18.4214C75.4026 18.9966 76.381 19.2842 77.5367 19.2842C78.9862 19.2842 80.1076 18.8055 80.9009 17.8482C80.9737 17.7619 81.0741 17.7042 81.1846 17.6852C81.295 17.6661 81.4086 17.6869 81.5055 17.7439L83.1705 18.7225C83.2299 18.7579 83.2811 18.8058 83.3207 18.8629C83.3602 18.9201 83.3873 18.9851 83.3999 19.0537C83.4126 19.1223 83.4105 19.1928 83.394 19.2606C83.3774 19.3283 83.3467 19.3916 83.304 19.4464C81.9308 21.2054 79.9989 22.0849 77.5081 22.0849C75.2348 22.0849 73.3995 21.3823 72.0022 19.9772C70.6049 18.572 69.9056 16.7943 69.9043 14.644C69.9043 12.5324 70.5941 10.765 71.9736 9.3418C73.3531 7.91861 75.1229 7.20636 77.2831 7.20508C79.3339 7.20508 81.0154 7.93147 82.3275 9.38426C83.6396 10.8371 84.2957 12.5987 84.2957 14.6691C84.293 14.9498 84.2745 15.2302 84.2404 15.5088C84.2269 15.6275 84.171 15.7372 84.0832 15.8172C83.9954 15.8972 83.8817 15.942 83.7636 15.9431L73.6976 15.9469ZM73.6557 13.457H80.6492C80.7229 13.4572 80.7957 13.4402 80.8619 13.4073C80.9281 13.3744 80.9858 13.3265 81.0307 13.2672C81.0756 13.208 81.1063 13.1391 81.1205 13.0659C81.1347 12.9927 81.132 12.9171 81.1126 12.8451C80.9088 12.0621 80.4639 11.365 79.8425 10.8551C79.1058 10.2704 78.1924 9.96085 77.2564 9.97876C76.1388 9.97876 75.2075 10.2895 74.4624 10.911C73.863 11.4158 73.4222 12.0866 73.1941 12.8412C73.1741 12.9133 73.1708 12.9891 73.1846 13.0627C73.1984 13.1363 73.2288 13.2056 73.2736 13.2653C73.3183 13.325 73.3761 13.3733 73.4424 13.4066C73.5087 13.4398 73.5817 13.4571 73.6557 13.457Z" fill="white"/>
<path id="Vector_6" d="M94.3053 7.20508C95.9085 7.20508 97.2035 7.72366 98.1901 8.76081C99.1768 9.79797 99.6707 11.2218 99.672 13.0323V21.2318C99.672 21.3603 99.6215 21.4835 99.5318 21.5744C99.442 21.6652 99.3202 21.7163 99.1933 21.7163H97.1316C97.0047 21.7163 96.8829 21.6652 96.7932 21.5744C96.7034 21.4835 96.653 21.3603 96.653 21.2318V13.3431C96.653 12.2879 96.3739 11.4772 95.8157 10.911C95.2576 10.3449 94.4947 10.0618 93.5271 10.0618C92.4642 10.0618 91.6073 10.397 90.9563 11.0674C90.3053 11.7378 89.9792 12.7608 89.9779 14.1364V21.2318C89.9779 21.3603 89.9275 21.4835 89.8377 21.5744C89.7479 21.6652 89.6262 21.7163 89.4992 21.7163H87.4338C87.3068 21.7163 87.1851 21.6652 87.0953 21.5744C87.0055 21.4835 86.9551 21.3603 86.9551 21.2318V8.05822C86.9551 7.92973 87.0055 7.8065 87.0953 7.71564C87.1851 7.62479 87.3068 7.57374 87.4338 7.57374H89.4954C89.6224 7.57374 89.7441 7.62479 89.8339 7.71564C89.9237 7.8065 89.9741 7.92973 89.9741 8.05822C89.9732 8.15117 89.9989 8.24239 90.0481 8.32091C90.0972 8.39944 90.1677 8.46192 90.2511 8.50086C90.3345 8.5398 90.4273 8.55354 90.5182 8.54041C90.6091 8.52729 90.6943 8.48787 90.7637 8.42689C91.6473 7.61235 92.8278 7.20508 94.3053 7.20508Z" fill="white"/>
<path id="Vector_7" d="M114.461 7.5742H116.528C116.655 7.5742 116.777 7.62524 116.866 7.7161C116.956 7.80696 117.007 7.93019 117.007 8.05868V21.2322C117.007 21.3607 116.956 21.484 116.866 21.5748C116.777 21.6657 116.655 21.7167 116.528 21.7167H114.461C114.334 21.7167 114.212 21.6657 114.122 21.5748C114.032 21.484 113.982 21.3607 113.982 21.2322V20.9562C113.982 20.8626 113.955 20.771 113.904 20.6926C113.854 20.6143 113.782 20.5525 113.697 20.5148C113.612 20.4772 113.518 20.4653 113.427 20.4806C113.336 20.4959 113.251 20.5378 113.183 20.6011C112.122 21.5906 110.759 22.0854 109.092 22.0854C108.168 22.0963 107.251 21.909 106.404 21.5357C105.556 21.1624 104.796 20.6117 104.173 19.9197C102.812 18.4785 102.132 16.7201 102.133 14.6445C102.134 12.5689 102.814 10.806 104.173 9.35577C104.798 8.66818 105.559 8.12137 106.406 7.75091C107.253 7.38044 108.167 7.19462 109.09 7.20553C110.759 7.20553 112.124 7.69451 113.183 8.67248C113.251 8.73614 113.336 8.77826 113.427 8.79364C113.519 8.80902 113.613 8.79699 113.697 8.75902C113.782 8.72106 113.854 8.65883 113.904 8.58C113.954 8.50117 113.981 8.40919 113.98 8.31539V8.05868C113.98 7.99489 113.992 7.93173 114.017 7.87283C114.041 7.81392 114.076 7.76043 114.121 7.71542C114.166 7.6704 114.219 7.63476 114.277 7.61052C114.335 7.58629 114.398 7.57394 114.461 7.5742ZM106.409 17.8834C107.257 18.7095 108.389 19.171 109.567 19.171C110.744 19.171 111.876 18.7095 112.725 17.8834C113.14 17.4577 113.466 16.9512 113.682 16.3944C113.898 15.8377 114 15.2423 113.982 14.6445C114 14.0467 113.897 13.4514 113.681 12.8947C113.465 12.3381 113.14 11.8315 112.725 11.4056C111.876 10.5808 110.744 10.1203 109.567 10.1203C108.39 10.1203 107.258 10.5808 106.409 11.4056C105.993 11.8311 105.667 12.3376 105.451 12.8943C105.235 13.4511 105.132 14.0465 105.15 14.6445C105.132 15.2425 105.234 15.8381 105.45 16.3949C105.667 16.9517 105.993 17.4581 106.409 17.8834Z" fill="white"/>
</g>
<defs>
<linearGradient id="paint0_linear_7878_1560" x1="25.2287" y1="24.7267" x2="8.85234" y2="18.7637" gradientUnits="userSpaceOnUse">
<stop stop-color="white"/>
<stop offset="1" stop-color="white" stop-opacity="0"/>
</linearGradient>
<clipPath id="clip0_7878_1560">
<rect width="117" height="24" fill="white"/>
</clipPath>
</defs>
</svg>
