<svg width="20" height="20" viewBox="0 0 20 20" fill="none" xmlns="http://www.w3.org/2000/svg">
    <g clip-path="url(#clip0_7823_9160)">
    <path
      d="M10.0003 1.66602C5.40033 1.66602 1.66699 5.39935 1.66699 9.99935C1.66699 14.5993 5.40033 18.3327 10.0003 18.3327C14.6003 18.3327 18.3337 14.5993 18.3337 9.99935C18.3337 5.39935 14.6003 1.66602 10.0003 1.66602ZM7.74199 13.5743L4.75033 10.5827C4.42533 10.2577 4.42533 9.73268 4.75033 9.40768C5.07533 9.08268 5.60033 9.08268 5.92533 9.40768L8.33366 11.8077L14.067 6.07435C14.392 5.74935 14.917 5.74935 15.242 6.07435C15.567 6.39935 15.567 6.92435 15.242 7.24935L8.91699 13.5743C8.60033 13.8993 8.06699 13.8993 7.74199 13.5743Z"
      fill="#11D695"
    />
    </g>
    <defs>
    <clipPath id="clip0_7823_9160">
    <rect width="20" height="20" fill="white" />
    </clipPath>
    </defs>
</svg>
