<svg xmlns="http://www.w3.org/2000/svg" width="8" height="11" viewBox="0 0 8 11" fill="none">
    <path
    fill-rule="evenodd"
    clip-rule="evenodd"
    d="M4.99996 0.500231C5.00001 0.39032 4.96385 0.283453 4.89706 0.196162C4.83027 0.108871 4.73658 0.04602 4.63048 0.0173318C4.52438 -0.0113565 4.41178 -0.00428323 4.3101 0.0374574C4.20843 0.079198 4.12334 0.15328 4.068 0.248243L0.568145 6.24797C0.523807 6.32395 0.500302 6.41028 0.500003 6.49826C0.499704 6.58623 0.522623 6.67272 0.566444 6.749C0.610266 6.82529 0.673439 6.88866 0.749585 6.93271C0.825731 6.97677 0.912154 6.99996 1.00013 6.99993H3.00004V10.4998C2.99999 10.6097 3.03615 10.7165 3.10294 10.8038C3.16973 10.8911 3.26342 10.954 3.36952 10.9827C3.47562 11.0114 3.58822 11.0043 3.6899 10.9625C3.79157 10.9208 3.87666 10.8467 3.932 10.7518L7.43186 4.75203C7.47619 4.67605 7.4997 4.58972 7.5 4.50174C7.5003 4.41377 7.47738 4.32728 7.43356 4.251C7.38973 4.17471 7.32656 4.11134 7.25041 4.06729C7.17427 4.02323 7.08785 4.00004 6.99987 4.00007H4.99996V0.500231Z"
    fill="#8D9199"
  />
</svg>
