<svg width="15" height="15" viewBox="0 0 15 15" fill="none" xmlns="http://www.w3.org/2000/svg">
<g id="akar-icons:copy">
<g id="Group">
<path id="Vector" d="M5.16699 2.83464V9.83464C5.16699 10.1441 5.28991 10.4408 5.5087 10.6596C5.72749 10.8784 6.02424 11.0013 6.33366 11.0013H11.0003C11.3097 11.0013 11.6065 10.8784 11.8253 10.6596C12.0441 10.4408 12.167 10.1441 12.167 9.83464V4.7258C12.167 4.57038 12.1359 4.41653 12.0756 4.27328C12.0153 4.13003 11.927 4.00028 11.8158 3.89164L9.88208 2.00047C9.66412 1.78735 9.37141 1.66801 9.06658 1.66797H6.33366C6.02424 1.66797 5.72749 1.79089 5.5087 2.00968C5.28991 2.22847 5.16699 2.52522 5.16699 2.83464Z" stroke="#FAFCFF" stroke-width="1.1" stroke-linecap="round" stroke-linejoin="round"/>
<path id="Vector_2" d="M9.8335 11.0007V12.1673C9.8335 12.4767 9.71058 12.7735 9.49179 12.9923C9.27299 13.2111 8.97625 13.334 8.66683 13.334H4.00016C3.69074 13.334 3.394 13.2111 3.1752 12.9923C2.95641 12.7735 2.8335 12.4767 2.8335 12.1673V5.75065C2.8335 5.44123 2.95641 5.14449 3.1752 4.92569C3.394 4.7069 3.69074 4.58398 4.00016 4.58398H5.16683" stroke="#FAFCFF" stroke-width="1.1" stroke-linecap="round" stroke-linejoin="round"/>
</g>
</g>
</svg>
