<svg width="18" height="18" viewBox="0 0 18 18" fill="none" xmlns="http://www.w3.org/2000/svg">
<g id="content">
<path id="Vector" d="M3.69141 8.99978C3.69141 8.78893 3.77517 8.58671 3.92426 8.43762C4.07336 8.28852 4.27558 8.20476 4.48643 8.20476H8.18913V4.50206C8.18913 4.2912 8.2729 4.08899 8.42199 3.93989C8.57109 3.79079 8.77331 3.70703 8.98416 3.70703C9.19501 3.70703 9.39723 3.79079 9.54633 3.93989C9.69542 4.08899 9.77919 4.2912 9.77919 4.50206V8.20476H13.4819C13.6927 8.20476 13.895 8.28852 14.0441 8.43762C14.1932 8.58671 14.2769 8.78893 14.2769 8.99978C14.2769 9.21064 14.1932 9.41286 14.0441 9.56195C13.895 9.71105 13.6927 9.79481 13.4819 9.79481H9.77919V13.4975C9.77919 13.7084 9.69542 13.9106 9.54633 14.0597C9.39723 14.2088 9.19501 14.2925 8.98416 14.2925C8.77331 14.2925 8.57109 14.2088 8.42199 14.0597C8.2729 13.9106 8.18913 13.7084 8.18913 13.4975V9.79481H4.48643C4.27558 9.79481 4.07336 9.71105 3.92426 9.56195C3.77517 9.41286 3.69141 9.21064 3.69141 8.99978Z" fill="#FAFCFF"/>
<path id="Vector_2" fill-rule="evenodd" clip-rule="evenodd" d="M4.02062 0.274317C7.31995 -0.0914391 10.6496 -0.0914391 13.9489 0.274317C15.8856 0.490564 17.4491 2.01595 17.676 3.96324C18.0682 7.30977 18.0682 10.6902 17.676 14.0367C17.4481 15.984 15.8845 17.5084 13.9489 17.7257C10.6496 18.0914 7.31994 18.0914 4.02062 17.7257C2.08394 17.5084 0.520389 15.984 0.293541 14.0367C-0.0978471 10.6903 -0.0978471 7.30967 0.293541 3.96324C0.520389 2.01595 2.085 0.490564 4.02062 0.274317ZM13.7729 1.85377C10.5906 1.50103 7.37896 1.50103 4.19659 1.85377C3.60747 1.91913 3.05758 2.18119 2.63577 2.59761C2.21396 3.01404 1.94485 3.56051 1.87193 4.14874C1.49493 7.37228 1.49493 10.6288 1.87193 13.8523C1.94508 14.4403 2.21428 14.9866 2.63607 15.4028C3.05786 15.819 3.60763 16.0809 4.19659 16.1462C7.35231 16.4981 10.6172 16.4981 13.7729 16.1462C14.3617 16.0807 14.9112 15.8187 15.3328 15.4025C15.7544 14.9863 16.0234 14.4402 16.0965 13.8523C16.4736 10.6288 16.4736 7.37228 16.0965 4.14874C16.0232 3.56105 15.7541 3.01519 15.3325 2.59921C14.911 2.18323 14.3616 1.92137 13.7729 1.85589V1.85377Z" fill="#FAFCFF"/>
</g>
</svg>
