<svg xmlns="http://www.w3.org/2000/svg" width="20" height="20" viewBox="0 0 20 20" fill="none">
    <path
    d="M10.0003 1.66602C5.40033 1.66602 1.66699 5.39935 1.66699 9.99935C1.66699 14.5993 5.40033 18.3327 10.0003 18.3327C14.6003 18.3327 18.3337 14.5993 18.3337 9.99935C18.3337 5.39935 14.6003 1.66602 10.0003 1.66602ZM10.0003 10.8327C9.54199 10.8327 9.16699 10.4577 9.16699 9.99935V6.66602C9.16699 6.20768 9.54199 5.83268 10.0003 5.83268C10.4587 5.83268 10.8337 6.20768 10.8337 6.66602V9.99935C10.8337 10.4577 10.4587 10.8327 10.0003 10.8327ZM10.8337 14.166H9.16699V12.4993H10.8337V14.166Z"
    fill="#EB545E"
  />
</svg>
