<svg width="20" height="20" viewBox="0 0 20 20" fill="none" xmlns="http://www.w3.org/2000/svg">
<g id="External Link">
<path id="Vector" d="M16.6504 2.49253C16.6193 2.49352 16.5884 2.49623 16.5576 2.50067H12.5C12.3896 2.49911 12.2799 2.51951 12.1775 2.56069C12.075 2.60187 11.9817 2.663 11.9031 2.74054C11.8244 2.81808 11.762 2.91047 11.7194 3.01235C11.6767 3.11423 11.6548 3.22357 11.6548 3.33401C11.6548 3.44444 11.6767 3.55378 11.7194 3.65566C11.762 3.75754 11.8244 3.84994 11.9031 3.92747C11.9817 4.00501 12.075 4.06614 12.1775 4.10732C12.2799 4.1485 12.3896 4.1689 12.5 4.16734H14.6549L6.91081 11.9115C6.83083 11.9883 6.76698 12.0802 6.72299 12.182C6.679 12.2838 6.65576 12.3933 6.65464 12.5042C6.65351 12.6151 6.67451 12.725 6.71642 12.8277C6.75833 12.9303 6.8203 13.0236 6.89869 13.102C6.97709 13.1804 7.07035 13.2423 7.173 13.2843C7.27564 13.3262 7.38562 13.3472 7.49649 13.346C7.60736 13.3449 7.71688 13.3217 7.81866 13.2777C7.92043 13.2337 8.0124 13.1698 8.08919 13.0899L15.8333 5.34573V7.50067C15.8318 7.6111 15.8522 7.72074 15.8934 7.82321C15.9345 7.92568 15.9957 8.01895 16.0732 8.09759C16.1507 8.17623 16.2431 8.23868 16.345 8.2813C16.4469 8.32393 16.5562 8.34587 16.6667 8.34587C16.7771 8.34587 16.8864 8.32393 16.9883 8.2813C17.0902 8.23868 17.1826 8.17623 17.2601 8.09759C17.3377 8.01895 17.3988 7.92568 17.44 7.82321C17.4812 7.72074 17.5016 7.6111 17.5 7.50067V3.4398C17.5166 3.31982 17.5068 3.19767 17.4714 3.08184C17.436 2.96602 17.3757 2.85931 17.2949 2.76914C17.214 2.67897 17.1144 2.60752 17.0031 2.55974C16.8918 2.51197 16.7715 2.48904 16.6504 2.49253ZM4.16667 2.50067C3.25578 2.50067 2.5 3.25645 2.5 4.16734V15.834C2.5 16.7449 3.25578 17.5007 4.16667 17.5007H15.8333C16.7442 17.5007 17.5 16.7449 17.5 15.834V10.834C17.5016 10.7236 17.4812 10.6139 17.44 10.5115C17.3988 10.409 17.3377 10.3157 17.2601 10.2371C17.1826 10.1584 17.0902 10.096 16.9883 10.0534C16.8864 10.0108 16.7771 9.9888 16.6667 9.9888C16.5562 9.9888 16.4469 10.0108 16.345 10.0534C16.2431 10.096 16.1507 10.1584 16.0732 10.2371C15.9957 10.3157 15.9345 10.409 15.8934 10.5115C15.8522 10.6139 15.8318 10.7236 15.8333 10.834V15.834H4.16667V4.16734H9.16667C9.27709 4.1689 9.38673 4.1485 9.4892 4.10732C9.59168 4.06614 9.68494 4.00501 9.76358 3.92747C9.84223 3.84994 9.90467 3.75754 9.9473 3.65566C9.98992 3.55378 10.0119 3.44444 10.0119 3.33401C10.0119 3.22357 9.98992 3.11423 9.9473 3.01235C9.90467 2.91047 9.84223 2.81808 9.76358 2.74054C9.68494 2.663 9.59168 2.60187 9.4892 2.56069C9.38673 2.51951 9.27709 2.49911 9.16667 2.50067H4.16667Z" fill="#6C717A"/>
</g>
</svg>
