<svg width="40" height="23" viewBox="0 0 40 23" fill="none" xmlns="http://www.w3.org/2000/svg">
<g clip-path="url(#clip0_8251_5163)">
<path d="M13.2326 20.042C12.7578 19.8142 12.0665 19.6645 11.121 19.5837C9.62139 19.4671 8.62208 19.2433 8.62208 18.528C8.62208 18.3148 8.70815 18.124 8.87627 17.9598C9.32684 17.52 10.2522 17.3717 10.9072 17.3783C11.9213 17.3875 12.735 17.6829 13.3268 18.2538L13.3456 18.271L13.741 17.8816L13.7208 17.8631C13.0376 17.2379 12.0195 16.8789 10.9273 16.8789C10.1325 16.8789 9.41157 17.0299 8.89376 17.3054C8.32887 17.6061 8.03029 18.0353 8.03029 18.5466C8.03029 19.691 9.50437 19.9678 10.9448 20.0897C12.548 20.2367 13.4747 20.4725 13.4747 21.2394C13.4747 22.0064 12.54 22.4925 11.0941 22.4925C9.87828 22.4925 8.91259 22.1216 8.22128 21.3891L8.20379 21.3706L7.79492 21.7149L7.81375 21.7348C8.58845 22.5508 9.74916 22.9998 11.0834 22.9998C12.8937 22.9998 14.0638 22.2925 14.0638 21.197C14.0638 20.6884 13.7908 20.3096 13.2286 20.0407L13.2326 20.042Z" fill="url(#paint0_linear_8251_5163)"/>
<path d="M20.8723 21.3533C20.4568 22.0579 19.5798 22.4633 18.4675 22.4633C16.6801 22.4633 15.6122 21.5215 15.6122 19.9426C15.6122 18.3637 16.6801 17.4113 18.4675 17.4113C19.557 17.4113 20.4258 17.8047 20.8522 18.4909L20.8643 18.5107L21.4184 18.2273L21.4023 18.2034C20.8051 17.3398 19.787 16.8828 18.4581 16.8828C16.3331 16.8828 15.0137 18.0551 15.0137 19.9426C15.0137 21.8301 16.3331 23.0024 18.4581 23.0024C19.8233 23.0024 20.8535 22.5242 21.4345 21.6182L21.4507 21.5943L20.8858 21.3334L20.8737 21.3533H20.8723Z" fill="url(#paint1_linear_8251_5163)"/>
<path d="M28.6657 21.6473V19.6419C28.6657 18.7491 28.3913 18.0551 27.8493 17.5782C27.3248 17.1173 26.5797 16.8828 25.6315 16.8828C24.6268 16.8828 23.5696 17.1835 22.8729 17.667L22.8528 17.6802L23.1339 18.1173L23.1554 18.1027C23.8655 17.6365 24.6738 17.4007 25.5575 17.4007C27.2212 17.4007 28.0645 18.1544 28.0645 19.6406V20.14C27.6005 19.4141 26.5528 18.9492 25.3571 18.9492C24.6241 18.9492 23.9005 19.1108 23.3733 19.3929C22.7008 19.7519 22.3457 20.2976 22.3457 20.9705C22.3457 21.6434 22.7008 22.1891 23.3733 22.548C23.9018 22.8302 24.6254 22.9918 25.3571 22.9918C26.5474 22.9918 27.5965 22.5268 28.0645 21.7997C28.0712 22.1878 28.1479 22.4898 28.3106 22.7706L28.3187 22.7838H28.9589L28.936 22.7454C28.7464 22.4302 28.6657 22.1017 28.6657 21.646V21.6473ZM28.0753 20.9652C28.0753 21.1003 28.0389 21.2341 27.965 21.348C27.427 22.1811 26.3107 22.4845 25.4001 22.4845C24.2636 22.4845 22.9348 22.0884 22.9348 20.9718C22.9348 19.8552 24.2623 19.4485 25.4001 19.4485C26.538 19.4485 27.5131 19.8697 27.969 20.5877C28.0403 20.7003 28.0766 20.8314 28.0766 20.9652H28.0753Z" fill="url(#paint2_linear_8251_5163)"/>
<path d="M33.8051 16.8828C32.5677 16.8828 31.5496 17.406 30.9928 18.32V17.0908H30.4023V22.7851H30.9928V20.1015C30.9928 18.6313 32.1912 17.4259 33.6841 17.4126C33.6962 17.4126 33.7096 17.4126 33.7217 17.4126C35.1622 17.4126 35.9221 18.1835 35.9221 19.6432V22.7865H36.5125V19.6114C36.5125 17.8776 35.5267 16.8841 33.8065 16.8841L33.8051 16.8828Z" fill="url(#paint3_linear_8251_5163)"/>
<path d="M8.81669 6.16453C8.05813 5.02804 6.64591 4.29688 4.82483 4.29688C2.06361 4.29688 0.333984 6.04532 0.333984 8.67594C0.333984 11.3066 2.06361 13.0404 4.82617 13.0404C6.49528 13.0404 8.05813 12.3079 8.81804 11.1728V11.994C8.81804 13.9676 7.46769 14.9385 5.04002 14.9385C3.67354 14.9385 2.56663 14.5054 1.77713 13.9968L1.18535 14.9385C2.0811 15.581 3.68968 16.03 5.16107 16.03C7.83217 16.03 10.0635 14.7743 10.0635 11.8457V4.59491H8.81938V6.16453H8.81669ZM8.81669 9.04682C8.81669 9.77666 8.53828 10.4986 7.98685 10.9873C7.2108 11.6735 6.23973 11.949 5.14359 11.949C2.86656 11.949 1.59287 10.7688 1.59287 8.67594C1.59287 6.5831 2.8679 5.38833 5.14359 5.38833C6.15904 5.38833 7.06958 5.6241 7.81469 6.20692C8.45893 6.71026 8.81669 7.49309 8.81669 8.3024V9.04682Z" fill="white"/>
<path d="M17.5242 4.2982C15.7489 4.2982 14.3528 5.05983 13.5781 6.28639V4.59755H12.334V12.7437H13.5781V8.33552C13.5781 7.77919 13.7596 7.22949 14.1161 6.79768C14.8988 5.84796 16.0084 5.38568 17.2915 5.38833C18.8234 5.39098 20.0743 6.71953 20.0743 8.22823V12.7424H21.3184V8.13816C21.3184 5.91154 20.0891 4.29688 17.5242 4.29688V4.2982Z" fill="white"/>
<path d="M28.8573 12.4128C28.6071 12.3426 28.3381 12.3982 28.1485 12.5744L28.127 12.5943C29.8687 13.3519 31.9816 13.0314 33.4073 11.6273C34.8316 10.2246 35.1584 8.14502 34.3905 6.42969L34.3703 6.45088C34.1914 6.63765 34.1349 6.90124 34.2062 7.14761C34.6231 8.58743 34.2573 10.2008 33.1087 11.332C31.9601 12.4631 30.3192 12.8234 28.8573 12.4115V12.4128Z" fill="white"/>
<path d="M35.3817 7.34341C35.8565 9.09583 35.3454 10.9794 34.0475 12.2576C32.7456 13.5411 30.8277 14.0431 29.0416 13.5676C28.3893 13.3941 27.7114 13.5305 27.207 13.9305C29.6643 15.3743 32.7698 15.0008 34.8007 12.9994C36.8303 10.9992 37.2122 7.94344 35.7476 5.52344C35.3427 6.02545 35.2069 6.69569 35.3817 7.34341Z" fill="white"/>
<path d="M33.8663 5.82285C35.4561 4.18302 37.8353 1.71268 39.3336 0C38.9853 0.331145 38.3854 0.811967 37.7613 1.29014C36.5926 2.18556 34.6047 2.73658 33.2866 2.07562C30.6128 0.735142 27.2518 1.16431 25.0178 3.36443C22.7838 5.56456 22.348 8.87468 23.7091 11.5079C24.3803 12.8074 23.8208 14.7651 22.9116 15.9148C22.426 16.5294 21.9378 17.1202 21.6016 17.4633L22.5672 16.5877L23.1254 16.095C26.7488 12.8961 30.4851 9.27603 33.865 5.8255L33.8663 5.82285ZM27.5369 3.25582C29.44 2.28755 31.7184 2.54584 33.4144 3.7724C33.7614 4.11414 33.7614 4.66649 33.4144 5.00824L33.409 5.01353C31.5584 3.19091 28.547 3.19091 26.6963 5.01353C24.8456 6.83615 24.8456 9.80189 26.6963 11.6245L26.6667 11.6537C26.321 11.9702 25.7858 11.9663 25.4455 11.6404C23.463 8.978 24.161 4.97247 27.5369 3.25449V3.25582ZM27.7265 11.3331C27.5261 11.5318 27.1993 11.5318 26.9976 11.3331L26.9935 11.3291C25.3069 9.66811 25.3069 6.96729 26.9935 5.30627C28.6801 3.64524 31.4225 3.64524 33.1091 5.30627L33.1131 5.31024C33.3162 5.51025 33.3068 5.83742 33.1037 6.03611C31.3405 7.76204 29.479 9.59393 27.7265 11.3318V11.3331Z" fill="white"/>
</g>
<defs>
<linearGradient id="paint0_linear_8251_5163" x1="37.9719" y1="19.3797" x2="-0.587723" y2="20.2073" gradientUnits="userSpaceOnUse">
<stop stop-color="white"/>
<stop offset="1"/>
</linearGradient>
<linearGradient id="paint1_linear_8251_5163" x1="37.9749" y1="19.5359" x2="-0.584718" y2="20.3635" gradientUnits="userSpaceOnUse">
<stop stop-color="white"/>
<stop offset="1"/>
</linearGradient>
<linearGradient id="paint2_linear_8251_5163" x1="37.9783" y1="19.6777" x2="-0.581409" y2="20.5053" gradientUnits="userSpaceOnUse">
<stop stop-color="white"/>
<stop offset="1"/>
</linearGradient>
<linearGradient id="paint3_linear_8251_5163" x1="37.9799" y1="19.7744" x2="-0.579767" y2="20.602" gradientUnits="userSpaceOnUse">
<stop stop-color="white"/>
<stop offset="1"/>
</linearGradient>
<clipPath id="clip0_8251_5163">
<rect width="39" height="23" fill="white" transform="translate(0.333984)"/>
</clipPath>
</defs>
</svg>
