<svg width="24" height="24" viewBox="0 0 24 24" fill="none" xmlns="http://www.w3.org/2000/svg">
<g id="tertiary button icons ">
<path id="Vector" d="M7.50366 10.4544C7.33346 10.9519 7.24696 11.4742 7.24766 12C7.24766 12.5872 7.35326 13.1496 7.54846 13.6688C7.79175 14.3177 8.1739 14.9057 8.66817 15.3915C9.16244 15.8773 9.7569 16.2492 10.4099 16.4812C11.063 16.7133 11.7588 16.7998 12.4488 16.7348C13.1388 16.6697 13.8063 16.4547 14.4045 16.1048H14.4053C15.3477 15.5523 16.0718 14.6929 16.4565 13.6704H12.1789V10.5056H19.8629C20.0616 11.5524 20.0496 12.6283 19.8277 13.6704C19.443 15.4719 18.4483 17.0854 17.0117 18.2384C15.5926 19.3811 13.8248 20.0028 12.0029 20C10.6292 20.0008 9.27856 19.6477 8.08097 18.975C6.88338 18.3022 5.87923 17.3324 5.16527 16.1589C4.45132 14.9853 4.05161 13.6478 4.00467 12.2749C3.95773 10.9021 4.26513 9.54033 4.89727 8.3208C5.57164 7.01833 6.59117 5.92637 7.84436 5.16432C9.09756 4.40227 10.5362 3.99949 12.0029 4C13.9437 4 15.7237 4.6912 17.1093 5.8416L14.5173 7.9632C13.9101 7.58531 13.2255 7.34915 12.5145 7.27227C11.8035 7.19539 11.0842 7.27978 10.4103 7.51915C9.73638 7.75853 9.12508 8.14674 8.62186 8.65491C8.11863 9.16309 7.73643 9.77816 7.50366 10.4544Z" fill="#878D99"/>
</g>
</svg>
