<svg width="24" height="24" viewBox="0 0 24 24" fill="none" xmlns="http://www.w3.org/2000/svg">
<g id="secondary button icons ">
<path id="Vector" d="M19.2 13.6C18.9878 13.6 18.7843 13.6843 18.6343 13.8343C18.4843 13.9843 18.4 14.1878 18.4 14.4V17.6C18.4 17.8122 18.3157 18.0157 18.1657 18.1657C18.0157 18.3157 17.8122 18.4 17.6 18.4H6.4C6.18783 18.4 5.98434 18.3157 5.83431 18.1657C5.68429 18.0157 5.6 17.8122 5.6 17.6V14.4C5.6 14.1878 5.51571 13.9843 5.36569 13.8343C5.21566 13.6843 5.01217 13.6 4.8 13.6C4.58783 13.6 4.38434 13.6843 4.23431 13.8343C4.08429 13.9843 4 14.1878 4 14.4V17.6C4 18.2365 4.25286 18.847 4.70294 19.2971C5.15303 19.7471 5.76348 20 6.4 20H17.6C18.2365 20 18.847 19.7471 19.2971 19.2971C19.7471 18.847 20 18.2365 20 17.6V14.4C20 14.1878 19.9157 13.9843 19.7657 13.8343C19.6157 13.6843 19.4122 13.6 19.2 13.6ZM11.432 14.968C11.5081 15.0408 11.5978 15.0979 11.696 15.136C11.7918 15.1783 11.8953 15.2002 12 15.2002C12.1047 15.2002 12.2082 15.1783 12.304 15.136C12.4022 15.0979 12.4919 15.0408 12.568 14.968L15.768 11.768C15.9186 11.6174 16.0033 11.413 16.0033 11.2C16.0033 10.987 15.9186 10.7826 15.768 10.632C15.6174 10.4814 15.413 10.3967 15.2 10.3967C14.987 10.3967 14.7826 10.4814 14.632 10.632L12.8 12.472V4.8C12.8 4.58783 12.7157 4.38434 12.5657 4.23431C12.4157 4.08429 12.2122 4 12 4C11.7878 4 11.5843 4.08429 11.4343 4.23431C11.2843 4.38434 11.2 4.58783 11.2 4.8V12.472L9.368 10.632C9.29341 10.5574 9.20486 10.4982 9.1074 10.4579C9.00994 10.4175 8.90549 10.3967 8.8 10.3967C8.69451 10.3967 8.59006 10.4175 8.4926 10.4579C8.39514 10.4982 8.30659 10.5574 8.232 10.632C8.15741 10.7066 8.09824 10.7951 8.05787 10.8926C8.0175 10.9901 7.99673 11.0945 7.99673 11.2C7.99673 11.3055 8.0175 11.4099 8.05787 11.5074C8.09824 11.6049 8.15741 11.6934 8.232 11.768L11.432 14.968Z" fill="url(#paint0_radial_8004_880)"/>
</g>
<defs>
<radialGradient id="paint0_radial_8004_880" cx="0" cy="0" r="1" gradientUnits="userSpaceOnUse" gradientTransform="translate(11.9012 20) rotate(-90) scale(16)">
<stop stop-color="#70A2FF"/>
<stop offset="0.3125" stop-color="#7AA9FF"/>
<stop offset="1" stop-color="#85AFFF"/>
</radialGradient>
</defs>
</svg>
