<svg xmlns="http://www.w3.org/2000/svg" width="16" height="17" viewBox="0 0 16 17" fill="none">
    <path d="M13.3203 2.49247C13.2955 2.49325 13.2707 2.49542 13.2461 2.49898H10C9.91166 2.49773 9.82395 2.51405 9.74197 2.54699C9.65999 2.57993 9.58538 2.62884 9.52246 2.69087C9.45955 2.7529 9.40959 2.82681 9.3755 2.90832C9.3414 2.98982 9.32384 3.07729 9.32384 3.16564C9.32384 3.25399 9.3414 3.34146 9.3755 3.42297C9.40959 3.50447 9.45955 3.57839 9.52246 3.64042C9.58538 3.70245 9.65999 3.75135 9.74197 3.7843C9.82395 3.81724 9.91166 3.83356 10 3.83231H11.724L5.52865 10.0276C5.46466 10.0891 5.41358 10.1626 5.37839 10.2441C5.3432 10.3255 5.32461 10.4131 5.32371 10.5018C5.32281 10.5905 5.33961 10.6785 5.37314 10.7606C5.40666 10.8427 5.45624 10.9173 5.51896 10.98C5.58167 11.0427 5.65628 11.0923 5.7384 11.1258C5.82051 11.1594 5.9085 11.1762 5.99719 11.1753C6.08588 11.1744 6.17351 11.1558 6.25493 11.1206C6.33634 11.0854 6.40992 11.0343 6.47135 10.9703L12.6667 4.77502V6.49898C12.6654 6.58732 12.6817 6.67503 12.7147 6.757C12.7476 6.83898 12.7965 6.9136 12.8586 6.97651C12.9206 7.03942 12.9945 7.08938 13.076 7.12348C13.1575 7.15758 13.245 7.17514 13.3333 7.17514C13.4217 7.17514 13.5092 7.15758 13.5907 7.12348C13.6722 7.08938 13.7461 7.03942 13.8081 6.97651C13.8701 6.9136 13.919 6.83898 13.952 6.757C13.9849 6.67503 14.0012 6.58732 14 6.49898V3.25028C14.0133 3.15429 14.0055 3.05657 13.9771 2.96391C13.9488 2.87125 13.9006 2.78588 13.8359 2.71375C13.7712 2.64161 13.6916 2.58445 13.6025 2.54623C13.5135 2.50802 13.4172 2.48967 13.3203 2.49247ZM3.33333 2.49898C2.60462 2.49898 2 3.1036 2 3.83231V13.1656C2 13.8944 2.60462 14.499 3.33333 14.499H12.6667C13.3954 14.499 14 13.8944 14 13.1656V9.16564C14.0012 9.0773 13.9849 8.98959 13.952 8.90761C13.919 8.82563 13.8701 8.75102 13.8081 8.68811C13.7461 8.6252 13.6722 8.57524 13.5907 8.54114C13.5092 8.50704 13.4217 8.48948 13.3333 8.48948C13.245 8.48948 13.1575 8.50704 13.076 8.54114C12.9945 8.57524 12.9206 8.6252 12.8586 8.68811C12.7965 8.75102 12.7476 8.82563 12.7147 8.90761C12.6817 8.98959 12.6654 9.0773 12.6667 9.16564V13.1656H3.33333V3.83231H7.33333C7.42167 3.83356 7.50938 3.81724 7.59136 3.7843C7.67334 3.75135 7.74795 3.70245 7.81087 3.64042C7.87378 3.57839 7.92374 3.50447 7.95784 3.42297C7.99193 3.34146 8.00949 3.25399 8.00949 3.16564C8.00949 3.07729 7.99193 2.98982 7.95784 2.90832C7.92374 2.82681 7.87378 2.7529 7.81087 2.69087C7.74795 2.62884 7.67334 2.57993 7.59136 2.54699C7.50938 2.51405 7.42167 2.49773 7.33333 2.49898H3.33333Z" fill="#6C717A"/>
</svg>