<svg xmlns="http://www.w3.org/2000/svg" width="16" height="16" viewBox="0 0 16 16" fill="none">
    <g clip-path="url(#clip0_8773_4541)">
    <path
      opacity="0.24"
      fill-rule="evenodd"
      clip-rule="evenodd"
      d="M8.00016 2.66634C6.58567 2.66634 5.22912 3.22824 4.22893 4.22844C3.22873 5.22863 2.66683 6.58519 2.66683 7.99967C2.66683 9.41416 3.22873 10.7707 4.22893 11.7709C5.22912 12.7711 6.58567 13.333 8.00016 13.333C9.41465 13.333 10.7712 12.7711 11.7714 11.7709C12.7716 10.7707 13.3335 9.41416 13.3335 7.99967C13.3335 6.58519 12.7716 5.22863 11.7714 4.22844C10.7712 3.22824 9.41465 2.66634 8.00016 2.66634ZM1.3335 7.99967C1.3335 4.31767 4.31816 1.33301 8.00016 1.33301C11.6822 1.33301 14.6668 4.31767 14.6668 7.99967C14.6668 11.6817 11.6822 14.6663 8.00016 14.6663C4.31816 14.6663 1.3335 11.6817 1.3335 7.99967Z"
      fill="#878D99"
    />
    <path
      fill-rule="evenodd"
      clip-rule="evenodd"
      d="M7.99982 2.66635C6.62476 2.66344 5.30228 3.19454 4.31116 4.14768C4.24795 4.20827 4.17342 4.25581 4.09184 4.28759C4.01026 4.31937 3.92321 4.33477 3.83568 4.33292C3.74814 4.33106 3.66183 4.31198 3.58167 4.27677C3.50151 4.24155 3.42907 4.19089 3.36849 4.12768C3.30791 4.06447 3.26037 3.98995 3.22858 3.90837C3.1968 3.82679 3.1814 3.73974 3.18326 3.65221C3.18511 3.56467 3.20419 3.47836 3.23941 3.3982C3.27462 3.31804 3.32528 3.2456 3.38849 3.18502C4.62787 1.99397 6.28091 1.33008 7.99982 1.33302C8.17663 1.33302 8.3462 1.40326 8.47123 1.52828C8.59625 1.6533 8.66649 1.82287 8.66649 1.99968C8.66649 2.1765 8.59625 2.34606 8.47123 2.47109C8.3462 2.59611 8.17663 2.66635 7.99982 2.66635Z"
      fill="#878D99"
    />
    </g>
    <defs>
    <clipPath id="clip0_8773_4541">
    <rect width="16" height="16" fill="white" />
    </clipPath>
    </defs>
</svg>
