<svg xmlns="http://www.w3.org/2000/svg" width="24" height="24" viewBox="0 0 24 24" fill="none">
  <g clip-path="url(#clip0_8772_17205)">
  <path
      fill-rule="evenodd"
      clip-rule="evenodd"
      d="M16.6894 17.4137C16.9244 17.0067 16.8199 16.5076 16.4865 16.165C15.5617 15.2269 15.3363 13.7573 16.0263 12.5622L18.5263 8.23205L19.3923 8.73205C19.8686 9.00705 20.4833 8.84234 20.7583 8.36603C21.0333 7.88971 20.8686 7.275 20.3923 7L11.7321 2C11.2557 1.725 10.641 1.88971 10.366 2.36603C10.091 2.84234 10.2557 3.45705 10.7321 3.73205L11.5981 4.23205L9.09808 8.56218C8.40808 9.75729 7.02267 10.2969 5.74782 9.96499C5.28445 9.84757 4.8 10.0067 4.565 10.4137L4.5 10.5263C4.225 11.0026 4.38971 11.6173 4.86603 11.8923L9.17883 14.3823L5.69615 20.4545C5.42115 20.9308 5.58586 21.5455 6.06218 21.8205C6.53849 22.0955 7.1532 21.9308 7.4282 21.4545L10.9109 15.3823L15.2583 17.8923C15.7346 18.1673 16.3494 18.0026 16.6244 17.5263L16.6894 17.4137Z"
      fill="url(#paint0_linear_8772_17205)"
    />
  </g>
  <defs>
  <linearGradient
      id="paint0_linear_8772_17205"
      x1="16.0622"
      y1="4.5"
      x2="6.06218"
      y2="21.8205"
      gradientUnits="userSpaceOnUse"
    >
  <stop stop-color="#FAFCFF" />
  <stop offset="1" stop-color="#FAFCFF" stop-opacity="0.84" />
  </linearGradient>
  <clipPath id="clip0_8772_17205">
  <rect width="24" height="24" fill="white" />
  </clipPath>
  </defs>
  </svg>
