<svg xmlns="http://www.w3.org/2000/svg" width="9" height="11" viewBox="0 0 9 11" fill="none">
    <path
    d="M0.166016 4.66892C0.166016 2.98997 0.166016 2.1505 0.350291 1.86805C0.534078 1.58612 1.26679 1.31575 2.7327 0.775525L3.01204 0.672625C3.77595 0.3907 4.15767 0.25 4.55352 0.25C4.94888 0.25 5.33108 0.3907 6.09499 0.672625L6.37433 0.775525C7.84024 1.31575 8.57295 1.58612 8.75674 1.86805C8.94102 2.1505 8.94102 2.9905 8.94102 4.66892V5.49527C8.94102 8.45522 6.8745 9.89215 5.57775 10.5017C5.22627 10.667 5.05077 10.75 4.55352 10.75C4.05627 10.75 3.88077 10.667 3.52928 10.5017C2.23253 9.89162 0.166016 8.45575 0.166016 5.49527V4.66892Z"
    fill="#8D9199"
  />
</svg>
