<svg width="24" height="24" viewBox="0 0 24 24" fill="none" xmlns="http://www.w3.org/2000/svg">
<g id="tertiary button icons ">
<path id="Vector" fill-rule="evenodd" clip-rule="evenodd" d="M13.6135 3.81856C13.6136 3.63871 13.5545 3.46383 13.4452 3.32099C13.3359 3.17815 13.1826 3.07531 13.0089 3.02836C12.8353 2.98142 12.6511 2.99299 12.4847 3.06129C12.3183 3.1296 12.1791 3.25082 12.0885 3.40622L6.36151 13.2239C6.28896 13.3483 6.25049 13.4896 6.25 13.6335C6.24952 13.7775 6.28702 13.919 6.35873 14.0438C6.43043 14.1687 6.53381 14.2723 6.65841 14.3444C6.78301 14.4165 6.92443 14.4545 7.06839 14.4544H10.341V20.1814C10.3409 20.3613 10.4 20.5362 10.5093 20.679C10.6186 20.8218 10.7719 20.9247 10.9456 20.9716C11.1192 21.0186 11.3034 21.007 11.4698 20.9387C11.6362 20.8704 11.7754 20.7492 11.866 20.5938L17.593 10.7761C17.6655 10.6517 17.704 10.5104 17.7045 10.3665C17.705 10.2225 17.6675 10.081 17.5958 9.95617C17.5241 9.83135 17.4207 9.72766 17.2961 9.65556C17.1715 9.58347 17.0301 9.54553 16.8861 9.54557H13.6135V3.81856Z" fill="#FAFCFF"/>
</g>
</svg>
