<svg width="500" height="500" viewBox="0 0 500 500" fill="none" xmlns="http://www.w3.org/2000/svg">
<g clip-path="url(#clip0_4810_10236)">
<mask id="mask0_4810_10236" style="mask-type:luminance" maskUnits="userSpaceOnUse" x="0" y="0" width="500" height="500">
<path d="M500 0H0V500H500V0Z" fill="white"/>
</mask>
<g mask="url(#mask0_4810_10236)">
<path d="M500 250C500 388.075 388.072 500 249.995 500C111.918 500 0 388.065 0 250C0 111.935 111.927 0 249.995 0C388.063 0 500 111.925 500 250Z" fill="#001347"/>
<path d="M110.542 272.723C120.332 329.975 164.476 375.487 221.015 387.255V387.264L222.564 404.963C155.094 393.196 102.262 338.805 92.8706 270.546L110.542 272.723ZM407.124 270.537C397.723 338.796 344.919 393.187 277.431 404.955L278.98 387.255C335.519 375.487 379.662 329.965 389.443 272.723L389.453 272.714L407.124 270.537ZM226.015 109.266C167.033 119.332 120.532 165.871 110.513 224.863L110.503 224.872L92.8516 227.068C102.452 156.822 157.984 101.253 228.201 91.5952L226.015 109.266ZM271.784 91.5762C341.992 101.234 397.532 156.813 407.133 227.049L389.472 224.854C379.453 165.872 332.952 119.323 273.97 109.257L273.979 109.247L271.784 91.5762Z" fill="white"/>
<path d="M282.451 267.4L432.476 248.789L282.46 230.177L346.185 152.602L268.658 216.289L249.989 65.8545L231.33 216.289L153.803 152.602L217.528 230.177L67.5117 248.789L217.538 267.4L153.803 344.984L230.322 282.115L249.904 500L269.666 282.115L346.185 344.984L282.441 267.4H282.451ZM239.837 258.55L161.179 248.798L226.207 240.728L240.142 238.998L249.999 159.503L258.126 224.958L259.865 238.998L273.801 240.728L338.828 248.789L260.169 258.541L250.008 374.537L239.847 258.541L239.837 258.55Z" fill="#01D7EB"/>
</g>
</g>
<defs>
<clipPath id="clip0_4810_10236">
<rect width="500" height="500" fill="white"/>
</clipPath>
</defs>
</svg>
