<svg width="16" height="16" viewBox="0 0 16 16" fill="none" xmlns="http://www.w3.org/2000/svg">
<g clip-path="url(#clip0_3731_77125)">
<path d="M8 16C12.4183 16 16 12.4183 16 8C16 3.58172 12.4183 0 8 0C3.58172 0 0 3.58172 0 8C0 12.4183 3.58172 16 8 16Z" fill="#0059FF"/>
<path d="M9.15363 4.13565C8.80368 3.51248 8.02873 3.29888 7.42271 3.65857C6.81668 4.01827 6.60914 4.81504 6.95911 5.43821L10.3274 11.4359C10.6774 12.0591 11.4523 12.2727 12.0583 11.913C12.6644 11.5533 12.8719 10.7565 12.5219 10.1333L9.15363 4.13565Z" fill="url(#paint0_linear_3731_77125)"/>
<path d="M10.381 6.35472C9.24621 5.74305 8.48706 6.58306 8.15521 7.09233C8.10217 7.17274 8.05322 7.25587 8.00849 7.34139C7.98493 7.38503 7.97213 7.41546 7.96743 7.42581C7.96273 7.43623 7.96743 7.42581 7.96743 7.42929L7.52862 8.20838L5.7154 11.4363C5.54743 11.7354 5.27075 11.9537 4.94624 12.0431C4.62172 12.1325 4.27595 12.0857 3.98499 11.913C3.69403 11.7403 3.48171 11.4559 3.39474 11.1223C3.30778 10.7887 3.35328 10.4332 3.52126 10.134L6.65835 4.54808L6.88985 4.13292C7.00124 3.93514 7.16137 3.77101 7.35412 3.65707C7.5468 3.54313 7.76529 3.4834 7.98765 3.48389H8.03674C8.25931 3.48375 8.478 3.54393 8.67068 3.65836C8.86343 3.7728 9.02343 3.93744 9.13448 4.13569L10.381 6.35472Z" fill="white"/>
</g>
<defs>
<linearGradient id="paint0_linear_3731_77125" x1="12.2602" y1="12.3481" x2="7.5" y2="3.5" gradientUnits="userSpaceOnUse">
<stop stop-color="white"/>
<stop offset="1" stop-color="white" stop-opacity="0.3"/>
</linearGradient>
<clipPath id="clip0_3731_77125">
<rect width="16" height="16" fill="white"/>
</clipPath>
</defs>
</svg>
