<svg width="34" height="34" viewBox="0 0 34 34" fill="none" xmlns="http://www.w3.org/2000/svg">
<ellipse cx="17" cy="17" rx="17" ry="17" fill="#596782"/>
<path d="M15.2515 20.7951V20.626C15.2632 19.5219 15.3719 18.6435 15.5774 17.9905C15.7888 17.3376 16.0883 16.8093 16.4759 16.4057C16.8635 16.0021 17.3303 15.6341 17.8765 15.3017C18.2288 15.0761 18.5459 14.8239 18.8278 14.5449C19.1097 14.2659 19.3328 13.9454 19.4973 13.5833C19.6617 13.2212 19.7439 12.8206 19.7439 12.3813C19.7439 11.8531 19.6206 11.396 19.374 11.0102C19.1273 10.6244 18.7985 10.3276 18.3874 10.1199C17.9822 9.90618 17.53 9.79934 17.0308 9.79934C16.5787 9.79934 16.147 9.89431 15.736 10.0843C15.3249 10.2742 14.9843 10.571 14.7142 10.9746C14.444 11.3723 14.2884 11.8857 14.2473 12.5149H11.5695C11.6106 11.4465 11.8778 10.5443 12.371 9.80824C12.8643 9.06629 13.5162 8.50537 14.3266 8.12549C15.1428 7.7456 16.0443 7.55566 17.0308 7.55566C18.1114 7.55566 19.0568 7.76044 19.8672 8.17C20.6776 8.57363 21.306 9.14048 21.7523 9.87057C22.2045 10.5947 22.4306 11.4405 22.4306 12.4081C22.4306 13.0729 22.3278 13.6724 22.1223 14.2066C21.9167 14.7348 21.6231 15.2067 21.2414 15.6222C20.8656 16.0377 20.4134 16.4057 19.8849 16.7262C19.3857 17.0408 18.9805 17.3673 18.6693 17.7056C18.3639 18.044 18.1407 18.4446 17.9998 18.9076C17.8589 19.3706 17.7825 19.9434 17.7708 20.626V20.7951H15.2515ZM16.5816 26.2084C16.1001 26.2084 15.6861 26.0363 15.3396 25.692C14.9931 25.3418 14.8199 24.9204 14.8199 24.4277C14.8199 23.941 14.9931 23.5255 15.3396 23.1813C15.6861 22.8311 16.1001 22.656 16.5816 22.656C17.0573 22.656 17.4683 22.8311 17.8148 23.1813C18.1672 23.5255 18.3433 23.941 18.3433 24.4277C18.3433 24.7542 18.2611 25.054 18.0967 25.327C17.9381 25.5941 17.7267 25.8078 17.4625 25.9681C17.1982 26.1283 16.9046 26.2084 16.5816 26.2084Z" fill="#90A2C0"/>
</svg>
