<svg width="100" height="100" viewBox="0 0 100 100" fill="none" xmlns="http://www.w3.org/2000/svg">
<rect width="100" height="100" rx="50" fill="#191920"/>
<path d="M66.2127 26H44.276V55.6029H73.8789V33.6662C73.8789 29.4186 70.4603 26 66.2127 26ZM37.4388 26H33.6662C29.4186 26 26 29.4186 26 33.6662V37.4388H37.4388V26ZM26 44.276H37.4388V55.7147H26V44.276ZM62.5612 73.8789H66.3338C70.5814 73.8789 74 70.4603 74 66.2127V62.5612H62.5612V73.8789ZM44.276 62.5612H55.7147V74H44.276V62.5612ZM26 62.5612V66.3338C26 70.5814 29.4186 74 33.6662 74H37.4388V62.5612H26Z" fill="white"/>
</svg>
