<svg width="100" height="100" viewBox="0 0 100 100" fill="none" xmlns="http://www.w3.org/2000/svg">
<rect width="100" height="100" rx="50" fill="#191920"/>
<path fill-rule="evenodd" clip-rule="evenodd" d="M56.7159 40.0262L40.2418 56.5009C40.0296 56.0886 39.8377 55.6592 39.666 55.2136C39.0905 53.7169 38.8031 52.1288 38.8031 50.4512C38.8031 48.7727 39.0905 47.1852 39.666 45.6882C40.2418 44.1905 41.0398 42.8915 42.0599 41.7888C43.08 40.6868 44.3057 39.8151 45.7368 39.1732C47.1686 38.532 48.7391 38.211 50.45 38.211C52.1613 38.211 53.7407 38.54 55.1876 39.1985C55.7257 39.4429 56.2352 39.7186 56.7159 40.0262ZM55.2621 61.8271C53.8307 62.469 52.2599 62.7895 50.5493 62.7895C48.838 62.7895 47.2582 62.4604 45.8106 61.8027C45.2733 61.5575 44.7641 61.2818 44.2838 60.9737L60.7572 44.5003C60.9697 44.9118 61.1613 45.3406 61.333 45.7869C61.9084 47.2836 62.1962 48.8717 62.1962 50.5499C62.1962 52.2278 61.9084 53.8152 61.333 55.3129C60.7572 56.8096 59.9596 58.1089 58.9391 59.2109C57.919 60.3129 56.6939 61.1852 55.2621 61.8271ZM57.7545 66.9353C59.9596 65.9812 61.8679 64.6898 63.48 63.0604C65.092 61.4324 66.3418 59.5321 67.2301 57.3604C68.119 55.1892 68.5633 52.8859 68.5633 50.4512C68.5633 48.0162 68.119 45.7129 67.2301 43.5409C66.7034 42.253 66.0548 41.0637 65.2853 39.9724L76 29.2576L71.7421 25L60.9948 35.7474C60.03 35.0895 58.9827 34.5208 57.8531 34.0407C55.6484 33.1031 53.214 32.6337 50.5493 32.6337C47.8835 32.6337 45.4491 33.1111 43.2444 34.0654C41.0398 35.0195 39.1314 36.3107 37.519 37.9394C35.907 39.5682 34.6565 41.4686 33.7682 43.64C32.88 45.8116 32.4357 48.1149 32.4357 50.5499C32.4357 52.9846 32.88 55.2872 33.7682 57.4591C34.2956 58.7474 34.9442 59.9367 35.714 61.0291L25 71.7424L29.2576 76L40.0042 65.2533C40.969 65.9111 42.0166 66.4798 43.1459 66.9598C45.3506 67.8974 47.7849 68.3663 50.45 68.3663C53.1155 68.3663 55.5499 67.8888 57.7545 66.9353Z" fill="white"/>
</svg>
