<svg width="34" height="34" viewBox="0 0 34 34" fill="none" xmlns="http://www.w3.org/2000/svg">
<circle cx="17" cy="17" r="17" fill="#78A7FF"/>
<path d="M26.7971 13.5762C26.9924 13.3809 26.9924 13.0644 26.7971 12.8691L23.6152 9.68712C23.4199 9.49186 23.1033 9.49186 22.908 9.68712C22.7128 9.88238 22.7128 10.199 22.908 10.3942L25.7365 13.2227L22.908 16.0511C22.7128 16.2463 22.7128 16.5629 22.908 16.7582C23.1033 16.9535 23.4199 16.9535 23.6152 16.7582L26.7971 13.5762ZM7.55469 13.7227H26.4436V12.7227H7.55469V13.7227Z" fill="white"/>
<path d="M7.20287 20.4238C7.00761 20.6191 7.00761 20.9356 7.20287 21.1309L10.3848 24.3129C10.5801 24.5081 10.8967 24.5081 11.092 24.3129C11.2872 24.1176 11.2872 23.801 11.092 23.6058L8.26353 20.7773L11.092 17.9489C11.2872 17.7537 11.2872 17.4371 11.092 17.2418C10.8967 17.0465 10.5801 17.0465 10.3848 17.2418L7.20287 20.4238ZM26.4453 20.2773L7.55642 20.2773L7.55642 21.2773L26.4453 21.2773L26.4453 20.2773Z" fill="white"/>
</svg>
