<svg width="13" height="13" viewBox="0 0 13 13" fill="none" xmlns="http://www.w3.org/2000/svg">
<path d="M11.9271 1.07408C10.4951 -0.358025 8.17792 -0.358025 6.74765 1.07408L5.1075 2.71439L5.97074 3.57771L7.61089 1.9374C8.52152 1.02668 10.0584 0.930189 11.0638 1.9374C12.071 2.94461 11.9745 4.47997 11.0638 5.39069L9.42369 7.03101L10.2886 7.89602L11.9288 6.25571C13.3574 4.82361 13.3574 2.50618 11.9271 1.07408ZM5.39186 11.0649C4.48123 11.9756 2.94432 12.0721 1.9389 11.0649C0.93179 10.0577 1.02827 8.52236 1.9389 7.61163L3.57906 5.97132L2.71413 5.1063L1.07397 6.74662C-0.35799 8.17872 -0.35799 10.4962 1.07397 11.9266C2.50593 13.357 4.82314 13.3587 6.25341 11.9266L7.89356 10.2862L7.03032 9.42292L5.39186 11.0649ZM2.24019 1.37878C2.21474 1.35358 2.18037 1.33944 2.14456 1.33944C2.10874 1.33944 2.07437 1.35358 2.04892 1.37878L1.37864 2.04912C1.35344 2.07458 1.33931 2.10895 1.33931 2.14477C1.33931 2.18058 1.35344 2.21496 1.37864 2.24041L10.7626 11.6252C10.815 11.6777 10.9014 11.6777 10.9538 11.6252L11.6241 10.9549C11.6766 10.9024 11.6766 10.8161 11.6241 10.7636L2.24019 1.37878Z" fill="white"/>
</svg>
