<svg width="100" height="100" viewBox="0 0 100 100" fill="none" xmlns="http://www.w3.org/2000/svg">
<path fillRule="evenodd" clipRule="evenodd" d="M100 50C100 77.6142 77.6142 100 50 100C22.3858 100 0 77.6142 0 50C0 22.3858 22.3858 0 50 0C77.6142 0 100 22.3858 100 50ZM66 47.0209L44.433 68.5819C43.4712 69.5438 42.2781 70.2561 40.9741 70.6353L29.8457 73.9097C29.067 74.1409 28.2244 73.9282 27.6501 73.2714C27.0758 72.7812 26.8611 71.9395 27.0902 71.1533L30.3636 60.0259C30.7483 58.7217 31.454 57.5285 32.4167 56.5665L53.9772 35L66 47.0209ZM41.2978 65.4462L41.6215 65.1225H37.3581C36.5442 65.1225 35.8783 64.4565 35.8783 63.6425V59.3784L35.5556 59.7022C35.1181 60.1462 34.7972 60.6826 34.6224 61.2746L32.4972 68.5079L39.7256 66.3804C40.2343 66.2047 40.8539 65.881 41.2978 65.4462ZM72.2881 40.5805C74.5706 38.2978 74.5706 34.5942 72.2881 32.3123L68.6908 28.7119C66.4083 26.4294 62.7015 26.4294 60.419 28.7119L56 33.1314L67.8691 45L72.2881 40.5805Z" fill="#52526B"/>
</svg>
