<svg width="15" height="15" viewBox="0 0 15 15" fill="none" xmlns="http://www.w3.org/2000/svg">
    <path
    d="M0 2C0 0.89543 0.895431 0 2 0H13C14.1046 0 15 0.895431 15 2V13C15 14.1046 14.1046 15 13 15H2C0.89543 15 0 14.1046 0 13V2Z"
    fill="#777777"
  />
    <path
    d="M7.07812 10.9688H4.64062C4.30408 10.9688 4.03125 10.6959 4.03125 10.3594V7.92188C4.03125 7.58533 3.75842 7.3125 3.42188 7.3125C3.08533 7.3125 2.8125 7.58533 2.8125 7.92188V10.3594C2.8125 11.369 3.63098 12.1875 4.64062 12.1875H7.07812C7.41467 12.1875 7.6875 11.9147 7.6875 11.5781C7.6875 11.2416 7.41467 10.9688 7.07812 10.9688Z"
    fill="#212128"
  />
    <path
    d="M10.5469 2.8125H8.10938C7.77283 2.8125 7.5 3.08533 7.5 3.42188C7.5 3.75842 7.77283 4.03125 8.10938 4.03125H10.5469C10.8834 4.03125 11.1562 4.30408 11.1562 4.64062V7.07812C11.1562 7.41467 11.4291 7.6875 11.7656 7.6875C12.1022 7.6875 12.375 7.41467 12.375 7.07812V4.64062C12.375 3.63098 11.5565 2.8125 10.5469 2.8125Z"
    fill="#212128"
  />
</svg>
