<svg width="12" height="12" viewBox="0 0 12 12" fill="none" xmlns="http://www.w3.org/2000/svg">
<g clip-path="url(#clip0_3317_74345)">
<rect width="12" height="12" rx="6" fill="#191920"/>
<path fill-rule="evenodd" clip-rule="evenodd" d="M6 12C9.31371 12 12 9.31371 12 6C12 2.68629 9.31371 0 6 0C2.68629 0 0 2.68629 0 6C0 9.31371 2.68629 12 6 12ZM2.68368 8.57969L5.22 6.04337L2.64 3.46337L3.40368 2.6997L5.98367 5.27969L8.62337 2.63999L9.38705 3.40367L6.74735 6.04337L9.34337 8.63939L8.5797 9.40307L5.98367 6.80704L3.44735 9.34336L2.68368 8.57969Z" fill="#EF2D21"/>
</g>
<defs>
<clipPath id="clip0_3317_74345">
<rect width="12" height="12" rx="6" fill="white"/>
</clipPath>
</defs>
</svg>
