<svg width="80" height="80" viewBox="0 0 80 80" fill="none" xmlns="http://www.w3.org/2000/svg">
<rect width="80" height="80" rx="12" fill="#191920"/>
<g clipPath="url(#clip0_4258_79017)">
<path d="M65 19H15C14.4477 19 14 19.4477 14 20V59C14 59.5523 14.4477 60 15 60H65C65.5523 60 66 59.5523 66 59V20C66 19.4477 65.5523 19 65 19Z" fill="#E7E8F3"/>
<path d="M60.1022 53.4891C60.4983 54.1557 60.0179 55 59.2425 55H20.6114C19.8696 55 19.386 54.2208 19.7153 53.5561L31.1912 30.3903C31.5139 29.739 32.4018 29.6386 32.8617 30.2015L45.7084 45.9248C46.0941 46.3969 46.809 46.4169 47.2206 45.9671L51.4107 41.3871C51.8635 40.8922 52.6655 40.9747 53.0082 41.5513L60.1022 53.4891Z" fill="#191920"/>
<path d="M47 37C49.2091 37 51 35.2091 51 33C51 30.7909 49.2091 29 47 29C44.7909 29 43 30.7909 43 33C43 35.2091 44.7909 37 47 37Z" fill="#191920"/>
</g>
<defs>
<clipPath id="clip0_4258_79017">
<rect width="52" height="41" fill="white" transform="translate(14 19)"/>
</clipPath>
</defs>
</svg>
