<svg width="16" height="16" viewBox="0 0 16 16" fill="none" xmlns="http://www.w3.org/2000/svg">
<rect width="16" height="16" rx="2" fill="#32323D"/>
<path d="M8.3323 4.0382C9.50802 5.19679 10.14 6.5845 10.14 8.00771C10.14 9.43092 9.50802 10.8186 8.3323 11.9772M4.90256 10.5283C5.80662 9.88364 6.88946 9.53716 8 9.53716C9.11054 9.53716 10.1934 9.88364 11.0974 10.5283M7.73685 4C6.55298 5.16662 5.91665 6.56395 5.91665 7.99702C5.91665 9.4301 6.55298 10.8274 7.73685 11.994M8 4.00423V12M12 8.00212H4M4.90256 5.59661C5.80662 6.24124 6.88946 6.58772 8 6.58772C9.11054 6.58772 10.1934 6.24124 11.0974 5.59661M7.97949 4.00423C6.92041 4.00966 5.90672 4.43466 5.16072 5.18603C4.41471 5.93739 3.9973 6.95379 4.00001 8.01232C4.00273 9.07084 4.42535 10.0851 5.1752 10.8326C5.92505 11.5801 6.94091 11.9999 8 11.9999C9.05909 11.9999 10.075 11.5801 10.8248 10.8326C11.5746 10.0851 11.9973 9.07084 12 8.01232C12.0027 6.95379 11.5853 5.93739 10.8393 5.18603C10.0933 4.43466 9.07959 4.00966 8.02051 4.00423H7.97949Z" stroke="white" stroke-width="0.5"/>
</svg>
