<svg xmlns="http://www.w3.org/2000/svg" width="32" height="32" viewBox="0 0 32 32" fill="none">
  <path
    d="M21.147 28C23.5518 28 25.501 26.0289 25.5 23.5981L25.4957 13.3242C25.4952 12.1579 25.0366 11.0395 24.2207 10.2148L19.3472 5.28873C18.5309 4.46357 17.4237 4 16.2692 4H10.853C8.44893 4 6.5 5.96995 6.5 8.4V23.6C6.5 26.0301 8.44892 28 10.853 28H21.147Z"
    fill="white"
  />
  <path
    d="M10 14.75C10 14.3358 10.3358 14 10.75 14H21.25C21.6642 14 22 14.3358 22 14.75C22 15.1642 21.6642 15.5 21.25 15.5H10.75C10.3358 15.5 10 15.1642 10 14.75Z"
    fill="#191920"
  />
  <path
    d="M10 19C10 18.5858 10.3358 18.25 10.75 18.25H21.25C21.6642 18.25 22 18.5858 22 19C22 19.4142 21.6642 19.75 21.25 19.75H10.75C10.3358 19.75 10 19.4142 10 19Z"
    fill="#191920"
  />
  <path
    d="M10.75 22.5C10.3358 22.5 10 22.8358 10 23.25C10 23.6642 10.3358 24 10.75 24H21.25C21.6642 24 22 23.6642 22 23.25C22 22.8358 21.6642 22.5 21.25 22.5H10.75Z"
    fill="#191920"
  />
</svg>
