<svg width="34" height="34" viewBox="0 0 34 34" fill="none" xmlns="http://www.w3.org/2000/svg">
<circle cx="17" cy="17" r="17" fill="#F6F6F6"/>
<path d="M15.8919 21.3371C15.6371 21.2643 15.3634 21.3223 15.1704 21.5039L15.1484 21.5246C16.9228 22.3088 19.0754 21.9763 20.5272 20.5244C21.9784 19.0732 22.3113 16.9219 21.5285 15.1481C21.5216 15.1555 21.5146 15.1628 21.5077 15.1702C21.3261 15.3631 21.268 15.6367 21.3406 15.8915C21.7649 17.3802 21.3926 19.0498 20.2226 20.2198C19.052 21.3904 17.3812 21.7624 15.8919 21.3371Z" fill="#121212"/>
<path d="M22.5389 16.0962C23.0224 17.9093 22.5013 19.857 21.1792 21.1791C19.8522 22.5061 17.8984 23.0255 16.0803 22.5346C15.4159 22.355 14.7257 22.4956 14.2109 22.9098C16.7142 24.4039 19.8776 24.0164 21.9469 21.9468C24.0151 19.8786 24.4036 16.7168 22.9117 14.214C22.4999 14.7326 22.3603 15.4265 22.5389 16.0962Z" fill="#121212"/>
<path d="M14.7379 20.2242C14.5334 20.43 14.2012 20.4302 13.9959 20.2252L13.9921 20.2214C12.2746 18.5039 12.2746 15.7095 13.992 13.9921C15.7095 12.2746 18.504 12.2746 20.2214 13.9921C20.2227 13.9934 20.224 13.9946 20.2253 13.9959C20.4316 14.2029 20.4225 14.5409 20.2152 14.7469C18.4183 16.5321 16.5228 18.4277 14.7379 20.2242ZM14.5442 11.869C16.4824 10.8677 18.8044 11.1351 20.5317 12.4037C20.8847 12.7572 20.8846 13.3289 20.5312 13.6823L20.526 13.6875C18.6406 11.8021 15.5729 11.8021 13.6874 13.6875C11.8021 15.5728 11.8021 18.6406 13.6875 20.526C13.6875 20.526 13.6766 20.5369 13.6577 20.5558C13.3062 20.8826 12.7598 20.8785 12.4137 20.5427C10.3948 17.7887 11.1049 13.6459 14.5442 11.869ZM20.9926 14.5237C22.6126 12.8277 25.0356 10.2728 26.5625 8.50001C26.2079 8.84251 25.5967 9.33933 24.9609 9.83399C23.7708 10.7598 21.7458 11.3303 20.4021 10.6462C17.6783 9.25919 14.2544 9.70344 11.9789 11.9789C9.7034 14.2544 9.25914 17.6783 10.6461 20.4021C11.3303 21.7458 10.7598 23.7708 9.83395 24.9609C9.33932 25.5967 8.84254 26.2079 8.5 26.5625L9.48407 25.6562L10.0525 25.1465C13.7442 21.8372 17.5497 18.0925 20.9926 14.5237Z" fill="#121212"/>
</svg>
