<svg width="34" height="34" viewBox="0 0 34 34" fill="none" xmlns="http://www.w3.org/2000/svg">
<rect width="34" height="34" rx="17" fill="#8C8DFC"/>
<path d="M10.936 15.06C10.72 14.644 10.42 14.332 10.036 14.124C9.652 13.908 9.208 13.8 8.704 13.8C8.152 13.8 7.66 13.924 7.228 14.172C6.796 14.42 6.456 14.772 6.208 15.228C5.968 15.684 5.848 16.212 5.848 16.812C5.848 17.412 5.968 17.944 6.208 18.408C6.456 18.864 6.796 19.216 7.228 19.464C7.66 19.712 8.152 19.836 8.704 19.836C9.448 19.836 10.052 19.628 10.516 19.212C10.98 18.796 11.264 18.232 11.368 17.52H8.236V16.428H12.832V17.496C12.744 18.144 12.512 18.74 12.136 19.284C11.768 19.828 11.284 20.264 10.684 20.592C10.092 20.912 9.432 21.072 8.704 21.072C7.92 21.072 7.204 20.892 6.556 20.532C5.908 20.164 5.392 19.656 5.008 19.008C4.632 18.36 4.444 17.628 4.444 16.812C4.444 15.996 4.632 15.264 5.008 14.616C5.392 13.968 5.908 13.464 6.556 13.104C7.212 12.736 7.928 12.552 8.704 12.552C9.592 12.552 10.38 12.772 11.068 13.212C11.764 13.644 12.268 14.26 12.58 15.06H10.936ZM21.0333 21H19.6653L15.5493 14.772V21H14.1813V12.648H15.5493L19.6653 18.864V12.648H21.0333V21ZM26.6337 21.084C25.8577 21.084 25.1417 20.904 24.4857 20.544C23.8377 20.176 23.3217 19.668 22.9377 19.02C22.5617 18.364 22.3737 17.628 22.3737 16.812C22.3737 15.996 22.5617 15.264 22.9377 14.616C23.3217 13.968 23.8377 13.464 24.4857 13.104C25.1417 12.736 25.8577 12.552 26.6337 12.552C27.4177 12.552 28.1337 12.736 28.7817 13.104C29.4377 13.464 29.9537 13.968 30.3297 14.616C30.7057 15.264 30.8937 15.996 30.8937 16.812C30.8937 17.628 30.7057 18.364 30.3297 19.02C29.9537 19.668 29.4377 20.176 28.7817 20.544C28.1337 20.904 27.4177 21.084 26.6337 21.084ZM26.6337 19.896C27.1857 19.896 27.6777 19.772 28.1097 19.524C28.5417 19.268 28.8777 18.908 29.1177 18.444C29.3657 17.972 29.4897 17.428 29.4897 16.812C29.4897 16.196 29.3657 15.656 29.1177 15.192C28.8777 14.728 28.5417 14.372 28.1097 14.124C27.6777 13.876 27.1857 13.752 26.6337 13.752C26.0817 13.752 25.5897 13.876 25.1577 14.124C24.7257 14.372 24.3857 14.728 24.1377 15.192C23.8977 15.656 23.7777 16.196 23.7777 16.812C23.7777 17.428 23.8977 17.972 24.1377 18.444C24.3857 18.908 24.7257 19.268 25.1577 19.524C25.5897 19.772 26.0817 19.896 26.6337 19.896Z" fill="white"/>
</svg>
