<svg width="34" height="34" viewBox="0 0 34 34" fill="none" xmlns="http://www.w3.org/2000/svg">
<circle cx="17" cy="17" r="17" fill="#8C8DFC"/>
<path d="M22.2829 13.7112C22.0093 13.9832 21.569 13.9708 21.3072 13.6865L20.5933 12.9199C19.5462 11.7824 17.8089 11.7453 16.7023 12.821L11.9308 17.5069L16.4524 17.6182C16.8332 17.6305 17.1306 17.952 17.1187 18.3476C17.1069 18.7433 16.7975 19.0524 16.4167 19.04L10.2292 18.8793C9.84842 18.8669 9.55095 18.5454 9.56284 18.1498L9.71753 11.7824C9.72943 11.3868 10.0388 11.0777 10.4196 11.09C10.8003 11.1024 11.0978 11.4239 11.0859 11.8195L10.9788 16.4807L15.7504 11.7948C17.4043 10.1751 20.0102 10.2493 21.5809 11.9432L22.2948 12.7097C22.5685 12.9941 22.5566 13.4392 22.2829 13.7112Z" fill="white"/>
<path d="M11.7171 20.2888C11.9908 20.0168 12.431 20.0292 12.6928 20.3135L13.4068 21.0801C14.4539 22.2176 16.1912 22.2546 17.2978 21.179L22.0693 16.4931L17.5476 16.3818C17.1669 16.3695 16.8694 16.048 16.8813 15.6524C16.8932 15.2567 17.2026 14.9476 17.5833 14.96L23.7709 15.1207C24.1516 15.1331 24.4491 15.4545 24.4372 15.8502L24.2825 22.2176C24.2706 22.6132 23.9612 22.9223 23.5805 22.9099C23.1997 22.8976 22.9022 22.5761 22.9141 22.1805L23.0212 17.5193L18.2497 22.2052C16.5957 23.8249 13.9898 23.7507 12.4191 22.0568L11.7052 21.2903C11.4315 21.0059 11.4434 20.5608 11.7171 20.2888Z" fill="white"/>
</svg>
