<svg width="34" height="34" viewBox="0 0 34 34" fill="none" xmlns="http://www.w3.org/2000/svg">
<rect width="34" height="34" rx="17" fill="black"/>
<path d="M15.9027 17.6348C15.6354 17.5044 15.2467 17.419 14.7144 17.3727C13.8708 17.3063 13.3088 17.1783 13.3088 16.7697C13.3088 16.6484 13.357 16.539 13.4516 16.445C13.7051 16.1939 14.226 16.1094 14.5941 16.1132C15.1646 16.1189 15.623 16.287 15.9557 16.6135L15.9658 16.6236L16.1882 16.4011L16.1773 16.391C15.7924 16.0339 15.22 15.8291 14.606 15.8291C14.1591 15.8291 13.7528 15.9155 13.4621 16.0726C13.1446 16.2445 12.9765 16.4894 12.9765 16.7816C12.9765 17.4352 13.8054 17.5937 14.6165 17.6629C15.5179 17.747 16.0402 17.8816 16.0402 18.3194C16.0402 18.7572 15.5146 19.0351 14.701 19.0351C14.0173 19.0351 13.4735 18.8231 13.0849 18.4044L13.0754 18.3944L12.8457 18.5915L12.8562 18.6025C13.2916 19.0685 13.9448 19.3254 14.6953 19.3254C15.7141 19.3254 16.372 18.921 16.372 18.2955C16.372 18.0048 16.2183 17.7885 15.9023 17.6348H15.9027Z" fill="url(#paint0_linear_2950_76036)"/>
<path d="M20.2015 18.3834C19.9675 18.7863 19.4743 19.0174 18.8484 19.0174C17.8425 19.0174 17.2423 18.4789 17.2423 17.5775C17.2423 16.6761 17.8429 16.1313 18.8484 16.1313C19.4614 16.1313 19.9503 16.3562 20.1895 16.7477L20.1967 16.7591L20.508 16.5968L20.4989 16.5835C20.1633 16.0898 19.5904 15.8291 18.8422 15.8291C17.6467 15.8291 16.9043 16.4989 16.9043 17.577C16.9043 18.655 17.6467 19.3249 18.8422 19.3249C19.6104 19.3249 20.1895 19.0518 20.5171 18.5343L20.5257 18.5204L20.2077 18.3715L20.201 18.3829L20.2015 18.3834Z" fill="url(#paint1_linear_2950_76036)"/>
<path d="M24.5862 18.551V17.4051C24.5862 16.8947 24.432 16.4985 24.1274 16.2263C23.8324 15.9628 23.4127 15.8291 22.8799 15.8291C22.3146 15.8291 21.7197 16.0005 21.3277 16.2769L21.3163 16.2851L21.4743 16.5348L21.4867 16.5266C21.8863 16.2602 22.3409 16.1256 22.8383 16.1256C23.7741 16.1256 24.2487 16.5562 24.2487 17.4056V17.6911C23.988 17.2762 23.3979 17.0112 22.7257 17.0112C22.3136 17.0112 21.9064 17.1034 21.6094 17.2648C21.2313 17.4696 21.0312 17.7813 21.0312 18.1657C21.0312 18.55 21.2313 18.8618 21.6094 19.0666C21.9069 19.2275 22.3136 19.3201 22.7257 19.3201C23.395 19.3201 23.9856 19.0542 24.2492 18.6393C24.253 18.8613 24.296 19.0332 24.3872 19.1941L24.3914 19.2012H24.7519L24.739 19.1793C24.6321 18.9993 24.5867 18.8116 24.5867 18.5514L24.5862 18.551ZM24.2544 18.1614C24.2544 18.2387 24.2339 18.3151 24.1924 18.38C23.8901 18.856 23.2618 19.0289 22.7491 19.0289C22.1093 19.0289 21.3626 18.8026 21.3626 18.1647C21.3626 17.5269 22.1098 17.2944 22.7491 17.2944C23.3884 17.2944 23.9374 17.5355 24.1943 17.9451C24.2348 18.0096 24.2544 18.0845 24.2544 18.1609V18.1614Z" fill="url(#paint2_linear_2950_76036)"/>
<path d="M27.477 15.8291C26.7814 15.8291 26.2075 16.1275 25.8943 16.6503V15.948H25.5625V19.2008H25.8943V17.6677C25.8943 16.8279 26.5685 16.1394 27.4083 16.1313C27.4154 16.1313 27.4226 16.1313 27.4298 16.1313C28.24 16.1313 28.6677 16.572 28.6677 17.4051V19.2008H28.9996V17.3875C28.9996 16.3973 28.4448 15.8291 27.477 15.8291Z" fill="url(#paint3_linear_2950_76036)"/>
<path d="M7.90352 19.0453C7.80326 19.0167 7.69583 19.0396 7.61992 19.1108L7.61133 19.1189C8.30839 19.4268 9.1544 19.2965 9.72494 18.7259C10.295 18.1559 10.4263 17.3103 10.1183 16.6133L10.1102 16.6219C10.0386 16.6978 10.0162 16.8052 10.0443 16.9055C10.211 17.4903 10.0649 18.1468 9.6051 18.6066C9.14485 19.0668 8.48838 19.2129 7.90304 19.0458L7.90352 19.0453Z" fill="white"/>
<path d="M10.515 16.9847C10.705 17.697 10.5002 18.4628 9.98076 18.9823C9.4594 19.5036 8.69168 19.708 7.97696 19.5151C7.7158 19.4444 7.44462 19.4998 7.24219 19.6626C8.22571 20.2499 9.46895 20.0976 10.282 19.284C11.0946 18.4714 11.2474 17.2286 10.6611 16.2451C10.4993 16.449 10.4444 16.7216 10.5145 16.9847H10.515Z" fill="white"/>
<path d="M9.90853 16.3671C10.5449 15.7006 11.4974 14.6966 12.0976 14C11.9582 14.1346 11.718 14.3299 11.4683 14.5242C11.0004 14.888 10.205 15.1124 9.67697 14.8432C8.60656 14.2979 7.26114 14.4727 6.3669 15.3669C5.47266 16.2611 5.29792 17.6066 5.84315 18.677C6.11195 19.205 5.88803 20.0009 5.52423 20.4683C5.32991 20.718 5.13464 20.9582 5 21.0976L5.38672 20.7414L5.61016 20.5409C7.06109 19.2403 8.55643 17.7689 9.90948 16.3662L9.90853 16.3671ZM7.37429 15.3239C8.1358 14.9305 9.04866 15.0356 9.7271 15.534C9.86603 15.6729 9.86556 15.8978 9.7271 16.0363L9.72519 16.0382C8.98421 15.2972 7.77868 15.2972 7.0377 16.0382C6.29672 16.7792 6.29672 17.9847 7.0377 18.7257L7.02576 18.7376C6.88778 18.866 6.67294 18.8646 6.53687 18.7324C5.74337 17.65 6.02267 16.0219 7.37429 15.3239ZM7.4502 18.6073C7.36999 18.688 7.23918 18.6884 7.15849 18.6073L7.15706 18.6058C6.48196 17.9307 6.48196 16.8326 7.15706 16.158C7.83215 15.4829 8.93026 15.4829 9.60488 16.158L9.60631 16.1594C9.68747 16.2406 9.68365 16.3738 9.60249 16.4545C8.89636 17.1559 8.15156 17.9011 7.4502 18.6068V18.6073Z" fill="white"/>
<defs>
<linearGradient id="paint0_linear_2950_76036" x1="29.821" y1="17.2566" x2="8.1272" y2="17.7155" gradientUnits="userSpaceOnUse">
<stop stop-color="white"/>
<stop offset="1"/>
</linearGradient>
<linearGradient id="paint1_linear_2950_76036" x1="29.8233" y1="17.345" x2="8.12949" y2="17.8038" gradientUnits="userSpaceOnUse">
<stop stop-color="white"/>
<stop offset="1"/>
</linearGradient>
<linearGradient id="paint2_linear_2950_76036" x1="29.8252" y1="17.4256" x2="8.13139" y2="17.8845" gradientUnits="userSpaceOnUse">
<stop stop-color="white"/>
<stop offset="1"/>
</linearGradient>
<linearGradient id="paint3_linear_2950_76036" x1="29.826" y1="17.481" x2="8.13223" y2="17.9398" gradientUnits="userSpaceOnUse">
<stop stop-color="white"/>
<stop offset="1"/>
</linearGradient>
</defs>
</svg>
