<svg width="34" height="34" viewBox="0 0 34 34" fill="none" xmlns="http://www.w3.org/2000/svg">
<ellipse cx="17" cy="17" rx="17" ry="17" fill="#233DBD"/>
<path d="M12.9961 10.4055L16.9965 7.78906L25.0271 13L21.0327 15.6142L12.9961 10.4055Z" fill="white"/>
<path d="M13.0781 16.8664L17.0786 14.25L25.0262 19.3816L21.1057 22.0424L13.0781 16.8664Z" fill="white" fill-opacity="0.4"/>
<path d="M8.98438 20.6164L12.9967 18L21.0095 23.2208L16.9972 25.813L8.98438 20.6164Z" fill="white" fill-opacity="0.6"/>
<path d="M8.97266 12.9999L12.9964 10.3984V18.0011L8.97266 20.6226V12.9999Z" fill="white"/>
<path d="M21.1065 22.0436L25.0273 19.3828V20.6027L21.0234 23.2142L21.1065 22.0436Z" fill="white" fill-opacity="0.5"/>
<path d="M12.9961 10.4055L16.9965 7.78906L25.0271 13L21.0327 15.6142L12.9961 10.4055Z" fill="white"/>
<path d="M13.0781 16.8664L17.0786 14.25L25.0262 19.3816L21.1057 22.0424L13.0781 16.8664Z" fill="white" fill-opacity="0.4"/>
<path d="M8.98438 20.6164L12.9967 18L21.0095 23.2208L16.9972 25.813L8.98438 20.6164Z" fill="white" fill-opacity="0.6"/>
<path d="M8.97266 12.9999L12.9964 10.3984V18.0011L8.97266 20.6226V12.9999Z" fill="white"/>
<path d="M21.1065 22.0436L25.0273 19.3828V20.6027L21.0234 23.2142L21.1065 22.0436Z" fill="white" fill-opacity="0.5"/>
</svg>
