<svg width="80" height="80" viewBox="0 0 80 80" fill="none" xmlns="http://www.w3.org/2000/svg">
<g clipPath="url(#clip0_1883_109337)">
<path d="M32.7343 56.8653C31.6064 56.5431 30.3942 56.8004 29.5381 57.6037L29.4395 57.6951C37.299 61.1679 46.8324 59.696 53.2634 53.2651C59.692 46.8365 61.1662 37.3103 57.6982 29.4531C57.667 29.4868 57.6357 29.5181 57.6068 29.5517C56.8036 30.4055 56.5462 31.6176 56.8661 32.7456C58.7444 39.3377 57.097 46.7331 51.9142 51.9158C46.729 57.101 39.3288 58.7485 32.7343 56.8653Z" fill="#F6F6F6"/>
<path d="M62.1746 33.6404C64.315 41.6707 62.0086 50.2975 56.1525 56.1537C50.2746 62.0315 41.6214 64.3307 33.5695 62.1565C30.6258 61.3605 27.569 61.9834 25.2891 63.8184C36.3761 70.437 50.3877 68.7198 59.5531 59.5543C68.7138 50.3937 70.4334 36.3893 63.8268 25.3047C62.0014 27.6015 61.3833 30.6727 62.1746 33.6404Z" fill="#F6F6F6"/>
<path d="M55.3295 26.6787C62.506 19.1679 73.2371 7.85233 80 0C78.4295 1.51756 75.7215 3.71813 72.9052 5.90909C67.6335 10.0096 58.6652 12.5373 52.7152 9.50697C40.6518 3.36219 25.4858 5.32948 15.4088 15.4088C5.33189 25.4882 3.36219 40.6518 9.50457 52.7152C12.5349 58.6652 10.0072 67.6359 5.90669 72.9052C3.71813 75.7215 1.51756 78.4295 0 80L4.35786 75.986L6.8759 73.7277C23.2275 59.0717 40.0818 42.4868 55.3295 26.6787ZM26.7701 14.9206C35.3535 10.4858 45.6397 11.6715 53.29 17.2896C54.8533 18.8552 54.8533 21.3877 53.2876 22.9533L53.2636 22.9774C44.9134 14.6272 31.3252 14.6272 22.975 22.9774C14.6248 31.3276 14.6248 44.9158 22.975 53.266C22.975 53.266 22.9269 53.3141 22.8427 53.3983C21.2867 54.8461 18.8648 54.8268 17.3329 53.3405C8.39105 41.14 11.5368 22.7922 26.7701 14.9206ZM27.6287 51.9264C26.722 52.8379 25.2525 52.8379 24.3434 51.9312L24.3266 51.9144C16.7196 44.3074 16.7196 31.9312 24.3266 24.3242C31.9336 16.7172 44.3098 16.7172 51.9168 24.3242C51.9216 24.329 51.9288 24.3362 51.9336 24.341C52.8475 25.2573 52.8066 26.7557 51.8879 27.6671C43.9298 35.5748 35.5339 43.9707 27.6287 51.9264Z" fill="#F6F6F6"/>
</g>
<defs>
<clipPath id="clip0_1883_109337">
<rect width="80" height="80" fill="white"/>
</clipPath>
</defs>
</svg>
