<svg xmlns="http://www.w3.org/2000/svg" width="17" height="16" viewBox="0 0 17 16" fill="none">
    <path
    fill-rule="evenodd"
    clip-rule="evenodd"
    d="M8.5 0C4.08172 0 0.5 3.58172 0.5 8C0.5 12.4183 4.08172 16 8.5 16C12.9183 16 16.5 12.4183 16.5 8C16.5 3.58172 12.9183 0 8.5 0ZM8.5 11C8.91421 11 9.25 11.3358 9.25 11.75V11.76C9.25 12.1742 8.91421 12.51 8.5 12.51C8.08579 12.51 7.75 12.1742 7.75 11.76V11.75C7.75 11.3358 8.08579 11 8.5 11ZM9.08527 3.55765C8.50333 3.44189 7.90013 3.5013 7.35195 3.72836C6.80377 3.95543 6.33524 4.33994 6.00559 4.83329C5.67595 5.32664 5.5 5.90666 5.5 6.5C5.5 6.91421 5.83579 7.25 6.25 7.25C6.66421 7.25 7 6.91421 7 6.5C7 6.20333 7.08797 5.91332 7.2528 5.66665C7.41762 5.41997 7.65189 5.22771 7.92597 5.11418C8.20006 5.00065 8.50166 4.97095 8.79263 5.02882C9.08361 5.0867 9.35088 5.22956 9.56066 5.43934C9.77044 5.64912 9.9133 5.91639 9.97118 6.20737C10.0291 6.49834 9.99935 6.79994 9.88582 7.07403C9.77229 7.34811 9.58003 7.58238 9.33335 7.7472C9.08668 7.91203 8.79667 8 8.5 8C8.30109 8 8.11032 8.07902 7.96967 8.21967C7.82902 8.36032 7.75 8.55109 7.75 8.75L7.75 9.25C7.75 9.66422 8.08579 10 8.5 10C8.85964 10 9.16016 9.74687 9.2331 9.40905C9.56398 9.32566 9.87998 9.18599 10.1667 8.99441C10.6601 8.66476 11.0446 8.19623 11.2716 7.64805C11.4987 7.09987 11.5581 6.49667 11.4424 5.91473C11.3266 5.33279 11.0409 4.79824 10.6213 4.37868C10.2018 3.95912 9.66721 3.6734 9.08527 3.55765Z"
    fill="#777777"
  />
</svg>
