<svg width="19" height="19" viewBox="0 0 19 19" fill="none" xmlns="http://www.w3.org/2000/svg">
    <path fill-rule="evenodd" clip-rule="evenodd" d="M9.5 19C14.7467 19 19 14.7467 19 9.5C19 4.25329 14.7467 0 9.5 0C4.25329 0 0 4.25329 0 9.5C0 14.7467 4.25329 19 9.5 19ZM9.5 15.8334C10.1558 15.8334 10.6875 15.3017 10.6875 14.6459C10.6875 13.99 10.1558 13.4584 9.5 13.4584C8.84416 13.4584 8.3125 13.99 8.3125 14.6459C8.3125 15.3017 8.84416 15.8334 9.5 15.8334ZM10.2143 3.93017C9.50401 3.78889 8.76782 3.8614 8.09877 4.13852C7.42973 4.41565 6.85789 4.88495 6.45556 5.48707C6.05324 6.0892 5.83849 6.7971 5.83849 7.52127C5.83849 8.01315 6.23724 8.41189 6.72912 8.41189C7.221 8.41189 7.61974 8.01315 7.61974 7.52127C7.61974 7.1494 7.73002 6.78588 7.93662 6.47668C8.14322 6.16748 8.43686 5.92649 8.78043 5.78418C9.12399 5.64188 9.50204 5.60464 9.86676 5.67719C10.2315 5.74974 10.5665 5.92881 10.8295 6.19176C11.0924 6.45471 11.2715 6.78973 11.344 7.15446C11.4166 7.51918 11.3793 7.89723 11.237 8.24079C11.0947 8.58436 10.8537 8.87801 10.5445 9.08461C10.2353 9.29121 9.87182 9.40148 9.49995 9.40148C9.26374 9.40148 9.03721 9.49531 8.87018 9.66234C8.70316 9.82936 8.60933 10.0559 8.60933 10.2921V11.0838C8.60933 11.5756 9.00807 11.9744 9.49995 11.9744C9.99183 11.9744 10.3906 11.5756 10.3906 11.0838V11.0728C10.7959 10.9711 11.183 10.8003 11.5341 10.5657C12.1363 10.1633 12.6056 9.59149 12.8827 8.92245C13.1598 8.2534 13.2323 7.51721 13.0911 6.80695C12.9498 6.0967 12.6011 5.44429 12.089 4.93223C11.5769 4.42016 10.9245 4.07144 10.2143 3.93017Z" fill="white"/>
</svg>
    