<svg width="34" height="34" viewBox="0 0 34 34" fill="none" xmlns="http://www.w3.org/2000/svg">
    <circle cx="17" cy="17" r="17" fill="#0DBE89"/>
    <path d="M26.7981 13.5762C26.9934 13.3809 26.9934 13.0644 26.7981 12.8691L23.6161 9.68712C23.4209 9.49186 23.1043 9.49186 22.909 9.68712C22.7138 9.88238 22.7138 10.199 22.909 10.3942L25.7374 13.2227L22.909 16.0511C22.7138 16.2463 22.7138 16.5629 22.909 16.7582C23.1043 16.9535 23.4209 16.9535 23.6161 16.7582L26.7981 13.5762ZM7.55566 13.7227H26.4446V12.7227H7.55566V13.7227Z" fill="white"/>
    <path d="M7.20189 20.4238C7.00663 20.6191 7.00663 20.9356 7.20189 21.1309L10.3839 24.3129C10.5791 24.5081 10.8957 24.5081 11.091 24.3129C11.2862 24.1176 11.2862 23.801 11.091 23.6058L8.26255 20.7773L11.091 17.9489C11.2862 17.7537 11.2862 17.4371 11.091 17.2418C10.8957 17.0465 10.5791 17.0465 10.3839 17.2418L7.20189 20.4238ZM26.4443 20.2773L7.55545 20.2773L7.55545 21.2773L26.4443 21.2773L26.4443 20.2773Z" fill="white"/>
</svg>
