<svg xmlns="http://www.w3.org/2000/svg" width="31" height="26" viewBox="0 0 31 26" fill="none">
  <path
    fill-rule="evenodd"
    clip-rule="evenodd"
    d="M0 4C0 1.79086 1.79086 0 4 0L27 0C29.2091 0 31 1.79086 31 4V22C31 24.2091 29.2091 26 27 26H4C1.79086 26 0 24.2091 0 22L0 4Z"
    fill="#4C4C5A"
  />
  <path
    fill-rule="evenodd"
    clip-rule="evenodd"
    d="M3.9668 7.04492C3.9668 5.38807 5.30994 4.04492 6.9668 4.04492H24.0316C25.6885 4.04492 27.0316 5.38807 27.0316 7.04492V18.9538C27.0316 20.6106 25.6885 21.9538 24.0316 21.9538H6.9668C5.30994 21.9538 3.9668 20.6106 3.9668 18.9538L3.9668 7.04492Z"
    fill="#4C4C5A"
  />
  <path
    fill-rule="evenodd"
    clip-rule="evenodd"
    d="M26.0039 17.6137L24.0672 16.0738C22.5972 14.905 20.5107 14.9179 19.0526 16.1047L17.9177 17.0285C17.5277 17.3459 16.963 17.3248 16.5985 16.9792L13.5001 14.0414C11.8458 12.4728 9.21518 12.6045 7.72208 14.3306L4.94508 17.5412L4.29986 18.3413L4.23993 20.6175C4.22511 21.1803 4.67759 21.6438 5.24058 21.6426L25.9456 21.5985C26.4903 21.5974 26.9344 21.1604 26.9444 20.6157L26.9872 18.28L26.0039 17.6137Z"
    fill="#212128"
  />
  <ellipse
    cx="2.29734"
    cy="2.15973"
    rx="2.29734"
    ry="2.15973"
    transform="matrix(-0.999993 -0.00373596 -0.00422724 0.999991 24.6328 6.42188)"
    fill="#212128"
  />
</svg>
