<svg xmlns="http://www.w3.org/2000/svg" width="16" height="16" viewBox="0 0 16 16" fill="none">
<path fill-rule="evenodd" clip-rule="evenodd" d="M0 8C0 3.58172 3.58172 0 8 0C12.4183 0 16 3.58172 16 8C16 12.4183 12.4183 16 8 16C3.58172 16 0 12.4183 0 8ZM4 7C4 6.44772 4.44772 6 5 6H5.5V4.8C5.5 3.4815 6.67014 2.5 8 2.5C9.32986 2.5 10.5 3.4815 10.5 4.8V6H11C11.5523 6 12 6.44772 12 7V12C12 12.5523 11.5523 13 11 13H5C4.44772 13 4 12.5523 4 12V7ZM9.5 6V4.8C9.5 4.13028 8.87928 3.5 8 3.5C7.12072 3.5 6.5 4.13028 6.5 4.8V6H9.5Z" fill="#E7E8F3"/>
</svg>