<svg width="100" height="100" viewBox="0 0 100 100" fill="none" xmlns="http://www.w3.org/2000/svg">
<path d="M100 50C100 77.6142 77.6142 100 50 100C22.3858 100 0 77.6142 0 50C0 22.3858 22.3858 0 50 0C77.6142 0 100 22.3858 100 50Z" fill="#646486"/>
<path fillRule="evenodd" clipRule="evenodd" d="M36.5 35.75V42.5H32C29.5147 42.5 27.5 44.5147 27.5 47V67.25C27.5 69.7353 29.5147 71.75 32 71.75H68C70.4853 71.75 72.5 69.7353 72.5 67.25V47C72.5 44.5147 70.4853 42.5 68 42.5H63.5V35.75C63.5 28.2941 57.4558 22.25 50 22.25C42.5442 22.25 36.5 28.2941 36.5 35.75ZM50 26.75C45.0295 26.75 41 30.7794 41 35.75V42.5H59V35.75C59 30.7794 54.9705 26.75 50 26.75ZM52.25 53.75C52.25 52.5074 51.2426 51.5 50 51.5C48.7574 51.5 47.75 52.5074 47.75 53.75V60.5C47.75 61.7426 48.7574 62.75 50 62.75C51.2426 62.75 52.25 61.7426 52.25 60.5V53.75Z" fill="#212128"/>
</svg>
