<svg width="16" height="16" viewBox="0 0 16 16" fill="none" xmlns="http://www.w3.org/2000/svg">
<rect width="16" height="16" rx="8" fill="white"/>
<path fill-rule="evenodd" clip-rule="evenodd" d="M12.2012 8.79C12.38 8.885 12.518 9.035 12.6151 9.185C12.8041 9.495 12.7888 9.875 12.6048 10.21L12.2472 10.81C12.0581 11.13 11.7055 11.33 11.3427 11.33C11.1639 11.33 10.9646 11.28 10.8011 11.18C10.6682 11.095 10.5149 11.065 10.3514 11.065C9.84556 11.065 9.42145 11.48 9.40612 11.975C9.40612 12.55 8.93602 13 8.34839 13H7.65346C7.06073 13 6.59063 12.55 6.59063 11.975C6.58041 11.48 6.15629 11.065 5.65043 11.065C5.4818 11.065 5.32851 11.095 5.20076 11.18C5.03725 11.28 4.83286 11.33 4.65913 11.33C4.29122 11.33 3.93865 11.13 3.74959 10.81L3.39701 10.21C3.20795 9.885 3.19773 9.495 3.38679 9.185C3.46855 9.035 3.62184 8.885 3.79557 8.79C3.93865 8.72 4.03062 8.605 4.11749 8.47C4.37298 8.04 4.21969 7.475 3.78535 7.22C3.27948 6.935 3.11597 6.3 3.40723 5.805L3.74959 5.215C4.04595 4.72 4.67957 4.545 5.19055 4.835C5.6351 5.075 6.2125 4.915 6.4731 4.49C6.55486 4.35 6.60085 4.2 6.59063 4.05C6.58041 3.855 6.63661 3.67 6.7337 3.52C6.92276 3.21 7.26512 3.01 7.63813 3H8.35861C8.73674 3 9.07909 3.21 9.26816 3.52C9.36013 3.67 9.42145 3.855 9.40612 4.05C9.3959 4.2 9.44189 4.35 9.52364 4.49C9.78424 4.915 10.3616 5.075 10.8113 4.835C11.3172 4.545 11.9559 4.72 12.2472 5.215L12.5895 5.805C12.8859 6.3 12.7224 6.935 12.2114 7.22C11.7771 7.475 11.6238 8.04 11.8844 8.47C11.9661 8.605 12.0581 8.72 12.2012 8.79ZM6.55486 8.005C6.55486 8.79 7.2038 9.415 8.00604 9.415C8.80827 9.415 9.44189 8.79 9.44189 8.005C9.44189 7.22 8.80827 6.59 8.00604 6.59C7.2038 6.59 6.55486 7.22 6.55486 8.005Z" fill="#191920"/>
</svg>
