<svg width="117" height="24" viewBox="0 0 117 24" fill="none" xmlns="http://www.w3.org/2000/svg">
<g clipPath="url(#clip0_1883_105601)">
<path d="M16.4252 1.82262C15.4335 0.0842427 13.2375 -0.511586 11.5204 0.491801C9.80318 1.49519 9.21504 3.71783 10.2067 5.45621L19.7511 22.1872C20.7427 23.9256 22.9387 24.5214 24.6559 23.518C26.373 22.5146 26.9612 20.292 25.9695 18.5536L16.4252 1.82262Z" fill="url(#paint0_linear_1883_105601)"/>
<path d="M19.9205 8.00837C16.705 6.30208 14.5538 8.64534 13.6135 10.066C13.4633 10.2903 13.3246 10.5222 13.1978 10.7608C13.131 10.8824 13.0948 10.9674 13.0814 10.9963C13.0681 11.0253 13.0814 10.9963 13.0814 11.006L11.838 13.1794L6.70011 22.1837C6.22415 23.0181 5.44016 23.627 4.52061 23.8764C3.60107 24.1258 2.62129 23.9953 1.79682 23.5136C0.972357 23.0319 0.370734 22.2384 0.124306 21.3078C-0.122122 20.3771 0.00683061 19.3855 0.482796 18.5511L9.37204 2.96864L10.0281 1.81053C10.3437 1.25879 10.7974 0.800953 11.3435 0.483111C11.8896 0.165269 12.5087 -0.001357 13.1387 8.32343e-06H13.2779C13.9085 -0.00037881 14.5281 0.167497 15.0742 0.486713C15.6203 0.80593 16.0736 1.26521 16.3885 1.81825L19.9205 8.00837Z" fill="white"/>
<path d="M47.0231 7.57615H49.0828C49.2098 7.57615 49.3315 7.6272 49.4213 7.71805C49.5111 7.80891 49.5615 7.93214 49.5615 8.06063V21.2342C49.5615 21.3627 49.5111 21.4859 49.4213 21.5768C49.3315 21.6676 49.2098 21.7187 49.0828 21.7187H47.0231C46.8961 21.7187 46.7744 21.6676 46.6846 21.5768C46.5948 21.4859 46.5444 21.3627 46.5444 21.2342V20.9582C46.5447 20.8642 46.5178 20.7721 46.4671 20.6934C46.4164 20.6146 46.344 20.5526 46.2589 20.5148C46.1739 20.4771 46.0798 20.4654 45.9882 20.481C45.8966 20.4967 45.8115 20.5391 45.7434 20.603C44.6856 21.5926 43.322 22.0873 41.6526 22.0873C40.7281 22.098 39.812 21.9106 38.9642 21.5373C38.1165 21.1641 37.3565 20.6134 36.734 19.9217C35.3736 18.4804 34.6934 16.722 34.6934 14.6464C34.6934 12.5708 35.3736 10.8079 36.734 9.35772C37.3589 8.67009 38.1198 8.12326 38.9672 7.7528C39.8146 7.38234 40.7295 7.19654 41.6526 7.20749C43.322 7.20749 44.6862 7.69647 45.7453 8.67443C45.8136 8.73784 45.8987 8.77973 45.9901 8.79498C46.0816 8.81022 46.1754 8.79817 46.2602 8.76028C46.345 8.72239 46.417 8.66032 46.4675 8.58166C46.518 8.50299 46.5447 8.41114 46.5444 8.31735V8.06063C46.5444 7.93214 46.5948 7.80891 46.6846 7.71805C46.7744 7.6272 46.8961 7.57615 47.0231 7.57615V7.57615ZM38.9692 17.8853C39.818 18.7115 40.9498 19.1729 42.1274 19.1729C43.305 19.1729 44.4369 18.7115 45.2857 17.8853C45.7016 17.4601 46.0277 16.9537 46.2441 16.3968C46.4605 15.84 46.5626 15.2445 46.5444 14.6464C46.5622 14.0485 46.4598 13.453 46.2434 12.8963C46.0271 12.3395 45.7012 11.8331 45.2857 11.4076C44.4362 10.5828 43.3046 10.1222 42.1274 10.1222C40.9503 10.1222 39.8187 10.5828 38.9692 11.4076C38.5543 11.8334 38.229 12.34 38.0129 12.8967C37.7969 13.4534 37.6947 14.0486 37.7124 14.6464C37.6943 15.2443 37.7964 15.8396 38.0125 16.3964C38.2285 16.9531 38.554 17.4597 38.9692 17.8853Z" fill="white"/>
<path d="M64.6295 1.91797H66.6893C66.8162 1.91797 66.938 1.96901 67.0278 2.05987C67.1175 2.15073 67.168 2.27396 67.168 2.40245V21.2334C67.168 21.3619 67.1175 21.4851 67.0278 21.576C66.938 21.6668 66.8162 21.7179 66.6893 21.7179H64.6295C64.5026 21.7179 64.3808 21.6668 64.2911 21.576C64.2013 21.4851 64.1509 21.3619 64.1509 21.2334V20.9574C64.1511 20.8634 64.1242 20.7713 64.0735 20.6926C64.0228 20.6138 63.9505 20.5518 63.8654 20.514C63.7803 20.4763 63.6862 20.4646 63.5946 20.4802C63.503 20.4959 63.418 20.5383 63.3499 20.6022C62.292 21.5918 60.9284 22.0865 59.259 22.0865C58.3346 22.0972 57.4184 21.9098 56.5707 21.5365C55.723 21.1633 54.9629 20.6127 54.3405 19.9209C52.9813 18.4797 52.3011 16.7213 52.2998 14.6457C52.2985 12.5701 52.9787 10.8071 54.3405 9.35693C54.9653 8.66929 55.7262 8.12247 56.5736 7.75201C57.421 7.38155 58.336 7.19575 59.259 7.20669C60.9284 7.20669 62.2926 7.69568 63.3518 8.67364C63.42 8.73705 63.5051 8.77894 63.5966 8.79418C63.688 8.80943 63.7819 8.79737 63.8666 8.75949C63.9514 8.7216 64.0235 8.65953 64.0739 8.58086C64.1244 8.5022 64.1511 8.41035 64.1509 8.31655V2.40245C64.1509 2.27396 64.2013 2.15073 64.2911 2.05987C64.3808 1.96901 64.5026 1.91797 64.6295 1.91797V1.91797ZM56.5756 17.8845C57.4244 18.7107 58.5563 19.1721 59.7339 19.1721C60.9115 19.1721 62.0434 18.7107 62.8921 17.8845C63.308 17.4593 63.6341 16.9529 63.8505 16.3961C64.0669 15.8392 64.1691 15.2437 64.1509 14.6457C64.1686 14.0477 64.0662 13.4522 63.8499 12.8955C63.6335 12.3388 63.3077 11.8323 62.8921 11.4068C62.0427 10.582 60.9111 10.1214 59.7339 10.1214C58.5567 10.1214 57.4251 10.582 56.5756 11.4068C56.1607 11.8326 55.8354 12.3392 55.6194 12.8959C55.4034 13.4526 55.3011 14.0478 55.3188 14.6457C55.3008 15.2435 55.4029 15.8388 55.6189 16.3956C55.835 16.9523 56.1604 17.4589 56.5756 17.8845V17.8845Z" fill="white"/>
<path d="M73.6981 15.9489C73.6202 15.9492 73.5435 15.9687 73.4747 16.0056C73.4058 16.0426 73.3469 16.096 73.303 16.1612C73.2591 16.2263 73.2315 16.3013 73.2226 16.3796C73.2136 16.458 73.2237 16.5374 73.2518 16.6109C73.5056 17.342 73.9774 17.9754 74.6021 18.4234C75.4031 18.9986 76.3815 19.2862 77.5372 19.2862C78.9866 19.2862 80.1081 18.8075 80.9014 17.8501C80.9742 17.7639 81.0746 17.7062 81.1851 17.6871C81.2955 17.6681 81.4091 17.6889 81.506 17.7459L83.1709 18.7245C83.2303 18.7599 83.2816 18.8078 83.3211 18.8649C83.3607 18.922 83.3877 18.9871 83.4004 19.0557C83.413 19.1242 83.411 19.1948 83.3945 19.2625C83.3779 19.3302 83.3472 19.3936 83.3044 19.4483C81.9313 21.2074 79.9993 22.0869 77.5086 22.0869C75.2353 22.0869 73.4 21.3843 72.0027 19.9791C70.6053 18.5739 69.9061 16.7962 69.9048 14.646C69.9048 12.5344 70.5945 10.7669 71.974 9.34375C73.3536 7.92056 75.1234 7.20832 77.2836 7.20703C79.3344 7.20703 81.0159 7.93343 82.328 9.38622C83.6401 10.839 84.2962 12.6006 84.2962 14.6711C84.2935 14.9518 84.275 15.2321 84.2409 15.5107C84.2274 15.6295 84.1715 15.7392 84.0837 15.8192C83.9959 15.8992 83.8822 15.9439 83.7641 15.945L73.6981 15.9489ZM73.6562 13.4589H80.6497C80.7234 13.4592 80.7962 13.4422 80.8624 13.4093C80.9286 13.3764 80.9863 13.3284 81.0312 13.2692C81.076 13.21 81.1068 13.1411 81.121 13.0678C81.1352 12.9946 81.1325 12.919 81.1131 12.8471C80.9093 12.064 80.4644 11.367 79.843 10.857C79.1063 10.2723 78.1929 9.9628 77.2569 9.98072C76.1393 9.98072 75.2079 10.2915 74.4629 10.913C73.8635 11.4177 73.4227 12.0886 73.1946 12.8432C73.1746 12.9153 73.1713 12.9911 73.1851 13.0647C73.1989 13.1382 73.2293 13.2076 73.274 13.2673C73.3188 13.3269 73.3765 13.3753 73.4428 13.4085C73.5091 13.4418 73.5822 13.459 73.6562 13.4589V13.4589Z" fill="white"/>
<path d="M94.3048 7.20703C95.908 7.20703 97.203 7.72561 98.1896 8.76276C99.1763 9.79992 99.6702 11.2238 99.6715 13.0343V21.2337C99.6715 21.3622 99.6211 21.4855 99.5313 21.5763C99.4415 21.6672 99.3198 21.7182 99.1928 21.7182H97.1312C97.0042 21.7182 96.8824 21.6672 96.7927 21.5763C96.7029 21.4855 96.6525 21.3622 96.6525 21.2337V13.345C96.6525 12.2899 96.3734 11.4792 95.8152 10.913C95.2571 10.3468 94.4942 10.0637 93.5266 10.0637C92.4637 10.0637 91.6068 10.3989 90.9558 11.0693C90.3048 11.7398 89.9787 12.7628 89.9774 14.1383V21.2337C89.9774 21.3622 89.927 21.4855 89.8372 21.5763C89.7474 21.6672 89.6257 21.7182 89.4987 21.7182H87.4333C87.3063 21.7182 87.1846 21.6672 87.0948 21.5763C87.005 21.4855 86.9546 21.3622 86.9546 21.2337V8.06018C86.9546 7.93168 87.005 7.80846 87.0948 7.7176C87.1846 7.62674 87.3063 7.5757 87.4333 7.5757H89.4949C89.6219 7.5757 89.7436 7.62674 89.8334 7.7176C89.9232 7.80846 89.9736 7.93168 89.9736 8.06018C89.9728 8.15312 89.9985 8.24434 90.0476 8.32287C90.0967 8.40139 90.1673 8.46388 90.2506 8.50282C90.334 8.54176 90.4268 8.55549 90.5177 8.54237C90.6086 8.52924 90.6939 8.48982 90.7632 8.42884C91.6468 7.6143 92.8274 7.20703 94.3048 7.20703Z" fill="white"/>
<path d="M114.46 7.57615H116.527C116.654 7.57615 116.776 7.6272 116.865 7.71805C116.955 7.80891 117.006 7.93214 117.006 8.06063V21.2342C117.006 21.3627 116.955 21.4859 116.865 21.5768C116.776 21.6676 116.654 21.7187 116.527 21.7187H114.46C114.333 21.7187 114.211 21.6676 114.121 21.5768C114.031 21.4859 113.981 21.3627 113.981 21.2342V20.9582C113.981 20.8645 113.954 20.773 113.903 20.6946C113.853 20.6162 113.781 20.5544 113.696 20.5168C113.611 20.4791 113.517 20.4672 113.426 20.4826C113.335 20.4979 113.25 20.5397 113.182 20.603C112.121 21.5926 110.758 22.0873 109.091 22.0873C108.167 22.0983 107.25 21.9109 106.403 21.5377C105.555 21.1644 104.795 20.6136 104.172 19.9217C102.811 18.4804 102.131 16.722 102.132 14.6464C102.133 12.5708 102.813 10.8079 104.172 9.35772C104.797 8.67014 105.558 8.12333 106.405 7.75286C107.252 7.38239 108.166 7.19657 109.089 7.20749C110.759 7.20749 112.123 7.69647 113.182 8.67443C113.25 8.7381 113.335 8.78022 113.426 8.79559C113.518 8.81097 113.612 8.79894 113.696 8.76098C113.781 8.72302 113.853 8.66078 113.903 8.58195C113.954 8.50312 113.98 8.41114 113.979 8.31735V8.06063C113.979 7.99684 113.992 7.93369 114.016 7.87478C114.04 7.81588 114.075 7.76238 114.12 7.71737C114.165 7.67235 114.218 7.63671 114.276 7.61248C114.334 7.58824 114.397 7.5759 114.46 7.57615V7.57615ZM106.408 17.8853C107.256 18.7115 108.388 19.1729 109.566 19.1729C110.744 19.1729 111.875 18.7115 112.724 17.8853C113.139 17.4597 113.465 16.9531 113.681 16.3964C113.897 15.8396 113.999 15.2443 113.981 14.6464C113.999 14.0486 113.896 13.4534 113.68 12.8967C113.464 12.34 113.139 11.8334 112.724 11.4076C111.875 10.5828 110.743 10.1222 109.566 10.1222C108.389 10.1222 107.257 10.5828 106.408 11.4076C105.992 11.8331 105.666 12.3395 105.45 12.8963C105.234 13.453 105.131 14.0485 105.149 14.6464C105.131 15.2445 105.233 15.84 105.449 16.3968C105.666 16.9537 105.992 17.4601 106.408 17.8853V17.8853Z" fill="white"/>
</g>
<defs>
<linearGradient id="paint0_linear_1883_105601" x1="25.2277" y1="24.7316" x2="8.85137" y2="18.7686" gradientUnits="userSpaceOnUse">
<stop stop-color="white"/>
<stop offset="1" stop-color="white" stop-opacity="0"/>
</linearGradient>
<clipPath id="clip0_1883_105601">
<rect width="117" height="24" fill="white"/>
</clipPath>
</defs>
</svg>