<svg width="100" height="25" viewBox="0 0 100 25" fill="none" xmlns="http://www.w3.org/2000/svg">
<path d="M14.9792 6.78663H17.4815C17.6357 6.78663 17.7837 6.84788 17.8927 6.95689C18.0018 7.0659 18.0631 7.21376 18.0631 7.36792V23.1739C18.0631 23.3281 18.0018 23.4759 17.8927 23.585C17.7837 23.694 17.6357 23.7552 17.4815 23.7552H14.9792C14.8249 23.7552 14.677 23.694 14.568 23.585C14.4589 23.4759 14.3976 23.3281 14.3976 23.1739V22.8428C14.3979 22.73 14.3653 22.6195 14.3037 22.525C14.2421 22.4305 14.1542 22.3561 14.0508 22.3108C13.9475 22.2656 13.8331 22.2515 13.7219 22.2703C13.6106 22.2891 13.5072 22.3399 13.4245 22.4166C12.1394 23.6039 10.4827 24.1976 8.45461 24.1976C7.33156 24.2104 6.21851 23.9855 5.18863 23.5376C4.15874 23.0898 3.23535 22.4291 2.47915 21.5991C0.826384 19.8699 0 17.7601 0 15.2698C0 12.7794 0.826384 10.6642 2.47915 8.92421C3.2383 8.09917 4.16268 7.44307 5.19218 6.99858C6.22168 6.55409 7.33325 6.33117 8.45461 6.3443C10.4827 6.3443 12.1401 6.93099 13.4268 8.10438C13.5098 8.18046 13.6131 8.23072 13.7242 8.24901C13.8353 8.2673 13.9494 8.25284 14.0524 8.20738C14.1554 8.16192 14.2429 8.08745 14.3042 7.99307C14.3655 7.89868 14.398 7.78848 14.3976 7.67594V7.36792C14.3976 7.21376 14.4589 7.0659 14.568 6.95689C14.677 6.84788 14.8249 6.78663 14.9792 6.78663V6.78663ZM5.19464 19.1558C6.2258 20.1471 7.60089 20.7007 9.03154 20.7007C10.4622 20.7007 11.8373 20.1471 12.8684 19.1558C13.3737 18.6456 13.7699 18.038 14.0327 17.3699C14.2956 16.7019 14.4198 15.9873 14.3976 15.2698C14.4192 14.5523 14.2948 13.8379 14.032 13.1699C13.7691 12.5019 13.3733 11.8942 12.8684 11.3837C11.8364 10.3941 10.4617 9.84147 9.03154 9.84147C7.6014 9.84147 6.22663 10.3941 5.19464 11.3837C4.69055 11.8946 4.29534 12.5024 4.0329 13.1704C3.77047 13.8383 3.64625 14.5525 3.66776 15.2698C3.64584 15.9871 3.76987 16.7014 4.03233 17.3694C4.29479 18.0374 4.69022 18.6451 5.19464 19.1558Z" fill="white"/>
<path d="M36.3698 0H38.8721C39.0264 0 39.1743 0.0612429 39.2834 0.170256C39.3924 0.279269 39.4537 0.427122 39.4537 0.58129V23.1752C39.4537 23.3294 39.3924 23.4772 39.2834 23.5862C39.1743 23.6952 39.0264 23.7565 38.8721 23.7565H36.3698C36.2156 23.7565 36.0677 23.6952 35.9586 23.5862C35.8495 23.4772 35.7883 23.3294 35.7883 23.1752V22.844C35.7886 22.7312 35.7559 22.6208 35.6943 22.5263C35.6327 22.4318 35.5448 22.3574 35.4415 22.3121C35.3381 22.2668 35.2238 22.2527 35.1125 22.2715C35.0012 22.2903 34.8979 22.3412 34.8151 22.4179C33.53 23.6052 31.8734 24.1988 29.8452 24.1988C28.7222 24.2117 27.6091 23.9868 26.5793 23.5389C25.5494 23.0911 24.626 22.4304 23.8698 21.6004C22.2186 19.8712 21.3922 17.7614 21.3906 15.271C21.3891 12.7807 22.2155 10.6655 23.8698 8.92547C24.6289 8.10043 25.5533 7.44433 26.5828 6.99985C27.6123 6.55536 28.7239 6.33243 29.8452 6.34556C31.8734 6.34556 33.5308 6.93226 34.8174 8.10564C34.9004 8.18172 35.0038 8.23198 35.1149 8.25027C35.226 8.26857 35.34 8.2541 35.443 8.20865C35.546 8.16319 35.6335 8.08871 35.6948 7.99433C35.7561 7.89994 35.7886 7.78974 35.7883 7.6772V0.58129C35.7883 0.427122 35.8495 0.279269 35.9586 0.170256C36.0677 0.0612429 36.2156 0 36.3698 0V0ZM26.5853 19.1571C27.6164 20.1483 28.9915 20.702 30.4222 20.702C31.8528 20.702 33.2279 20.1483 34.2591 19.1571C34.7643 18.6469 35.1605 18.0393 35.4234 17.3712C35.6863 16.7031 35.8104 15.9886 35.7883 15.271C35.8099 14.5535 35.6855 13.8391 35.4226 13.1711C35.1597 12.5032 34.7639 11.8955 34.2591 11.385C33.2271 10.3953 31.8523 9.84274 30.4222 9.84274C28.992 9.84274 27.6173 10.3953 26.5853 11.385C26.0812 11.8959 25.686 12.5037 25.4235 13.1716C25.1611 13.8396 25.0369 14.5538 25.0584 15.271C25.0365 15.9884 25.1605 16.7027 25.423 17.3706C25.6854 18.0386 26.0808 18.6464 26.5853 19.1571V19.1571Z" fill="white"/>
<path d="M47.3877 16.8325C47.2931 16.8328 47.1999 16.8562 47.1163 16.9006C47.0327 16.945 46.9611 17.009 46.9077 17.0872C46.8544 17.1653 46.8208 17.2553 46.81 17.3493C46.7992 17.4433 46.8114 17.5386 46.8456 17.6268C47.1538 18.504 47.727 19.2639 48.486 19.8014C49.4591 20.4916 50.6477 20.8366 52.0518 20.8366C53.8127 20.8366 55.1751 20.2623 56.1389 19.1136C56.2273 19.0101 56.3493 18.9409 56.4835 18.9181C56.6177 18.8952 56.7557 18.9202 56.8734 18.9886L58.8961 20.1627C58.9683 20.2052 59.0305 20.2626 59.0786 20.3312C59.1267 20.3997 59.1595 20.4778 59.1749 20.5601C59.1902 20.6424 59.1878 20.727 59.1677 20.8083C59.1476 20.8895 59.1103 20.9655 59.0583 21.0312C57.3901 23.1417 55.043 24.197 52.017 24.197C49.2552 24.197 47.0255 23.354 45.328 21.6681C43.6304 19.9821 42.7808 17.8491 42.7793 15.2692C42.7793 12.7356 43.6173 10.615 45.2932 8.90745C46.9691 7.19986 49.1193 6.34529 51.7436 6.34375C54.2352 6.34375 56.2779 7.2153 57.872 8.9584C59.4661 10.7015 60.2631 12.8151 60.2631 15.2993C60.2598 15.6361 60.2374 15.9725 60.1959 16.3067C60.1796 16.4493 60.1116 16.5809 60.005 16.6768C59.8983 16.7728 59.7602 16.8265 59.6167 16.8278L47.3877 16.8325ZM47.3368 13.8449H55.8331C55.9227 13.8452 56.0111 13.8249 56.0915 13.7854C56.1719 13.7459 56.2421 13.6884 56.2966 13.6173C56.3511 13.5462 56.3884 13.4636 56.4057 13.3757C56.4229 13.2878 56.4197 13.1972 56.3961 13.1108C56.1485 12.1713 55.608 11.335 54.853 10.7231C53.9581 10.0216 52.8483 9.6502 51.7112 9.6717C50.3535 9.6717 49.222 10.0446 48.3168 10.7903C47.5887 11.3959 47.0532 12.2007 46.7761 13.1062C46.7517 13.1927 46.7477 13.2836 46.7645 13.3719C46.7812 13.4602 46.8182 13.5434 46.8726 13.615C46.9269 13.6866 46.9971 13.7446 47.0776 13.7845C47.1582 13.8244 47.2469 13.8451 47.3368 13.8449V13.8449Z" fill="white"/>
<path d="M72.4218 6.34375C74.3696 6.34375 75.9428 6.96595 77.1414 8.21036C78.3401 9.45477 78.9402 11.1631 78.9417 13.3354V23.1734C78.9417 23.3275 78.8805 23.4754 78.7714 23.5844C78.6623 23.6934 78.5144 23.7547 78.3602 23.7547H75.8555C75.7013 23.7547 75.5534 23.6934 75.4443 23.5844C75.3353 23.4754 75.274 23.3275 75.274 23.1734V13.7083C75.274 12.4423 74.9349 11.4696 74.2568 10.7903C73.5787 10.1109 72.6519 9.77128 71.4765 9.77128C70.1851 9.77128 69.1441 10.1735 68.3532 10.9779C67.5623 11.7822 67.1661 13.0097 67.1646 14.6601V23.1734C67.1646 23.3275 67.1033 23.4754 66.9942 23.5844C66.8852 23.6934 66.7373 23.7547 66.583 23.7547H64.0737C63.9195 23.7547 63.7716 23.6934 63.6625 23.5844C63.5535 23.4754 63.4922 23.3275 63.4922 23.1734V7.36738C63.4922 7.21321 63.5535 7.06536 63.6625 6.95634C63.7716 6.84733 63.9195 6.78609 64.0737 6.78609H66.5784C66.7326 6.78609 66.8806 6.84733 66.9896 6.95634C67.0987 7.06536 67.1599 7.21321 67.1599 7.36738C67.1589 7.4789 67.1901 7.58834 67.2498 7.68256C67.3095 7.77678 67.3952 7.85175 67.4965 7.89847C67.5978 7.94519 67.7105 7.96167 67.8209 7.94592C67.9314 7.93018 68.035 7.88288 68.1192 7.80971C69.1927 6.8324 70.6269 6.34375 72.4218 6.34375Z" fill="white"/>
<path d="M96.9066 6.78663H99.4181C99.5724 6.78663 99.7203 6.84787 99.8294 6.95689C99.9384 7.0659 99.9997 7.21375 99.9997 7.36792V23.1739C99.9997 23.3281 99.9384 23.476 99.8294 23.585C99.7203 23.694 99.5724 23.7552 99.4181 23.7552H96.9066C96.7523 23.7552 96.6044 23.694 96.4953 23.585C96.3863 23.476 96.325 23.3281 96.325 23.1739V22.8428C96.3249 22.7304 96.2921 22.6205 96.2306 22.5265C96.1691 22.4325 96.0816 22.3583 95.9787 22.3132C95.8758 22.268 95.7619 22.2537 95.651 22.2721C95.5401 22.2905 95.437 22.3407 95.3542 22.4166C94.066 23.6039 92.4093 24.1976 90.3843 24.1976C89.2612 24.2107 88.1481 23.9859 87.1181 23.5381C86.0882 23.0902 85.1648 22.4294 84.4088 21.5991C82.7545 19.8699 81.9281 17.7601 81.9297 15.2698C81.9312 12.7794 82.7576 10.6642 84.4088 8.92421C85.1675 8.09923 86.0915 7.44315 87.1206 6.99865C88.1498 6.55415 89.261 6.3312 90.382 6.3443C92.4101 6.3443 94.0675 6.93099 95.3542 8.10438C95.4369 8.18077 95.5401 8.2313 95.6512 8.24975C95.7623 8.26821 95.8763 8.25377 95.9793 8.20822C96.0822 8.16267 96.1696 8.088 96.2306 7.99342C96.2917 7.89884 96.3237 7.78848 96.3227 7.67594V7.36792C96.3227 7.29139 96.3378 7.21561 96.3672 7.14494C96.3965 7.07426 96.4396 7.01008 96.4938 6.95607C96.5481 6.90206 96.6125 6.85929 96.6833 6.83021C96.7541 6.80114 96.83 6.78633 96.9066 6.78663V6.78663ZM87.1243 19.1558C88.1555 20.1471 89.5306 20.7008 90.9612 20.7008C92.3919 20.7008 93.767 20.1471 94.7981 19.1558C95.3025 18.6451 95.698 18.0374 95.9604 17.3694C96.2229 16.7014 96.3469 15.9871 96.325 15.2698C96.3465 14.5525 96.2223 13.8383 95.9599 13.1704C95.6974 12.5024 95.3022 11.8946 94.7981 11.3837C93.7661 10.3941 92.3914 9.84147 90.9612 9.84147C89.5311 9.84147 88.1563 10.3941 87.1243 11.3837C86.6195 11.8942 86.2236 12.5019 85.9608 13.1699C85.6979 13.8379 85.5735 14.5523 85.5951 15.2698C85.573 15.9873 85.6971 16.7019 85.96 17.37C86.2229 18.038 86.619 18.6457 87.1243 19.1558V19.1558Z" fill="white"/>
</svg>
