<svg width="82" height="17" viewBox="0 0 82 17" fill="none" xmlns="http://www.w3.org/2000/svg">
<g clipPath="url(#clip0_1533_59422)">
<path d="M11.5131 1.28468C10.8181 0.0533242 9.27908 -0.368721 8.07559 0.342011C6.87211 1.05274 6.45991 2.62711 7.15493 3.85847L13.8441 15.7096C14.5391 16.9409 16.0782 17.363 17.2817 16.6522C18.4852 15.9415 18.8974 14.3671 18.2023 13.1358L11.5131 1.28468Z" fill="url(#paint0_linear_1533_59422)"/>
<path d="M13.96 5.6726C11.7064 4.46398 10.1987 6.12378 9.53975 7.13005C9.43447 7.28893 9.33722 7.45321 9.24836 7.62225C9.20158 7.70839 9.17618 7.76855 9.16683 7.78905C9.15747 7.80956 9.16683 7.78905 9.16683 7.79589L8.29534 9.33538L4.69444 15.7135C4.36086 16.3045 3.81139 16.7358 3.16692 16.9125C2.52246 17.0891 1.83578 16.9967 1.25794 16.6555C0.680112 16.3143 0.258462 15.7522 0.0857515 15.093C-0.0869588 14.4338 0.00341841 13.7314 0.337001 13.1404L6.56707 2.10279L7.02687 1.28246C7.24808 0.891643 7.56606 0.567342 7.94877 0.342204C8.33148 0.117066 8.76543 -0.000961207 9.20692 5.89576e-06H9.3045C9.74649 -0.000268324 10.1807 0.118643 10.5635 0.344755C10.9462 0.570867 11.2639 0.896188 11.4846 1.28793L13.96 5.6726Z" fill="white"/>
<path d="M32.9558 5.36693H34.3994C34.4884 5.36693 34.5737 5.40309 34.6366 5.46744C34.6995 5.5318 34.7349 5.61909 34.7349 5.7101V15.0414C34.7349 15.1324 34.6995 15.2197 34.6366 15.284C34.5737 15.3484 34.4884 15.3845 34.3994 15.3845H32.9558C32.8668 15.3845 32.7815 15.3484 32.7186 15.284C32.6557 15.2197 32.6203 15.1324 32.6203 15.0414V14.8459C32.6205 14.7793 32.6017 14.7141 32.5661 14.6583C32.5306 14.6025 32.4799 14.5585 32.4202 14.5318C32.3606 14.5051 32.2947 14.4968 32.2305 14.5079C32.1663 14.519 32.1067 14.549 32.0589 14.5943C31.3175 15.2952 30.3618 15.6457 29.1918 15.6457C28.544 15.6533 27.9019 15.5205 27.3077 15.2561C26.7136 14.9917 26.1809 14.6017 25.7447 14.1117C24.7912 13.0908 24.3145 11.8453 24.3145 10.3751C24.3145 8.90484 24.7912 7.65611 25.7447 6.62887C26.1826 6.1418 26.7159 5.75447 27.3098 5.49206C27.9037 5.22965 28.5449 5.09804 29.1918 5.10579C30.3618 5.10579 31.318 5.45215 32.0603 6.14488C32.1081 6.18979 32.1678 6.21946 32.2318 6.23026C32.2959 6.24106 32.3617 6.23252 32.4211 6.20569C32.4805 6.17885 32.531 6.13488 32.5664 6.07916C32.6018 6.02344 32.6205 5.95838 32.6203 5.89194V5.7101C32.6203 5.61909 32.6557 5.5318 32.7186 5.46744C32.7815 5.40309 32.8668 5.36693 32.9558 5.36693ZM27.3112 12.6692C27.9061 13.2544 28.6993 13.5813 29.5247 13.5813C30.35 13.5813 31.1433 13.2544 31.7381 12.6692C32.0296 12.368 32.2582 12.0093 32.4098 11.6149C32.5615 11.2205 32.6331 10.7987 32.6203 10.3751C32.6328 9.95148 32.561 9.52972 32.4094 9.13536C32.2577 8.741 32.0294 8.38225 31.7381 8.08086C31.1428 7.49662 30.3497 7.17039 29.5247 7.17039C28.6996 7.17039 27.9065 7.49662 27.3112 8.08086C27.0204 8.3825 26.7924 8.74133 26.641 9.13565C26.4896 9.52997 26.4179 9.9516 26.4304 10.3751C26.4177 10.7985 26.4893 11.2202 26.6407 11.6146C26.7921 12.0089 27.0202 12.3677 27.3112 12.6692Z" fill="white"/>
<path d="M45.2957 1.35547H46.7392C46.8282 1.35547 46.9135 1.39162 46.9765 1.45598C47.0394 1.52034 47.0747 1.60763 47.0747 1.69864V15.0372C47.0747 15.1282 47.0394 15.2155 46.9765 15.2799C46.9135 15.3442 46.8282 15.3804 46.7392 15.3804H45.2957C45.2067 15.3804 45.1213 15.3442 45.0584 15.2799C44.9955 15.2155 44.9602 15.1282 44.9602 15.0372V14.8417C44.9603 14.7751 44.9415 14.7099 44.906 14.6541C44.8704 14.5984 44.8197 14.5544 44.7601 14.5277C44.7005 14.501 44.6345 14.4926 44.5703 14.5037C44.5061 14.5148 44.4465 14.5449 44.3988 14.5901C43.6574 15.2911 42.7017 15.6415 41.5317 15.6415C40.8838 15.6491 40.2417 15.5163 39.6476 15.252C39.0534 14.9876 38.5207 14.5975 38.0845 14.1075C37.1319 13.0867 36.6552 11.8411 36.6543 10.3709C36.6534 8.9007 37.1301 7.65197 38.0845 6.62473C38.5224 6.13766 39.0557 5.75032 39.6496 5.48791C40.2435 5.2255 40.8848 5.0939 41.5317 5.10165C42.7017 5.10165 43.6578 5.44801 44.4001 6.14074C44.448 6.18565 44.5076 6.21532 44.5717 6.22612C44.6358 6.23692 44.7016 6.22838 44.761 6.20154C44.8204 6.17471 44.8709 6.13074 44.9063 6.07502C44.9416 6.0193 44.9604 5.95424 44.9602 5.8878V1.69864C44.9602 1.60763 44.9955 1.52034 45.0584 1.45598C45.1213 1.39162 45.2067 1.35547 45.2957 1.35547ZM39.651 12.6651C40.2459 13.2503 41.0392 13.5772 41.8645 13.5772C42.6898 13.5772 43.4831 13.2503 44.078 12.6651C44.3695 12.3639 44.598 12.0052 44.7497 11.6108C44.9013 11.2164 44.9729 10.7945 44.9602 10.3709C44.9726 9.94733 44.9009 9.52558 44.7492 9.13122C44.5976 8.73686 44.3692 8.37811 44.078 8.07672C43.4826 7.49247 42.6895 7.16625 41.8645 7.16625C41.0395 7.16625 40.2464 7.49247 39.651 8.07672C39.3602 8.37836 39.1322 8.73719 38.9808 9.13151C38.8294 9.52583 38.7578 9.94746 38.7702 10.3709C38.7576 10.7944 38.8291 11.2161 38.9805 11.6104C39.1319 12.0048 39.36 12.3636 39.651 12.6651Z" fill="white"/>
<path d="M51.6508 11.2976C51.5961 11.2978 51.5424 11.3116 51.4942 11.3378C51.4459 11.364 51.4046 11.4018 51.3738 11.448C51.3431 11.4941 51.3237 11.5472 51.3175 11.6027C51.3112 11.6582 51.3183 11.7145 51.338 11.7666C51.5158 12.2844 51.8465 12.733 52.2843 13.0504C52.8457 13.4578 53.5314 13.6615 54.3414 13.6615C55.3572 13.6615 56.1432 13.3225 56.6992 12.6443C56.7502 12.5832 56.8206 12.5424 56.898 12.5289C56.9754 12.5154 57.055 12.5301 57.1229 12.5705L58.2898 13.2637C58.3315 13.2887 58.3674 13.3227 58.3951 13.3631C58.4228 13.4036 58.4418 13.4497 58.4506 13.4982C58.4595 13.5468 58.4581 13.5968 58.4465 13.6448C58.4349 13.6927 58.4134 13.7376 58.3834 13.7764C57.421 15.0224 56.067 15.6454 54.3214 15.6454C52.7281 15.6454 51.4418 15.1477 50.4625 14.1524C49.4832 13.157 48.9931 11.8978 48.9922 10.3747C48.9922 8.87899 49.4756 7.62708 50.4424 6.61898C51.4093 5.61088 52.6497 5.10638 54.1636 5.10547C55.601 5.10547 56.7794 5.62 57.699 6.64906C58.6186 7.67812 59.0784 8.92593 59.0784 10.3925C59.0765 10.5913 59.0636 10.7899 59.0397 10.9872C59.0302 11.0714 58.9911 11.1491 58.9295 11.2057C58.868 11.2624 58.7883 11.2941 58.7055 11.2949L51.6508 11.2976ZM51.6213 9.53389H56.5228C56.5745 9.53407 56.6255 9.52203 56.6719 9.49872C56.7182 9.47541 56.7587 9.44145 56.7902 9.3995C56.8216 9.35755 56.8432 9.30874 56.8531 9.25687C56.8631 9.205 56.8612 9.15148 56.8476 9.10048C56.7048 8.54583 56.393 8.05211 55.9574 7.69088C55.4411 7.27672 54.8009 7.05747 54.1449 7.07016C53.3617 7.07016 52.7089 7.29028 52.1867 7.73053C51.7667 8.08805 51.4577 8.56322 51.2979 9.09775C51.2838 9.14881 51.2816 9.20251 51.2912 9.25463C51.3009 9.30675 51.3222 9.35587 51.3535 9.39813C51.3849 9.44039 51.4254 9.47464 51.4719 9.4982C51.5183 9.52176 51.5695 9.53397 51.6213 9.53389Z" fill="white"/>
<path d="M66.0948 5.10547C67.2184 5.10547 68.126 5.47279 68.8175 6.20745C69.509 6.9421 69.8552 7.95065 69.8561 9.2331V15.041C69.8561 15.1321 69.8207 15.2193 69.7578 15.2837C69.6949 15.3481 69.6095 15.3842 69.5206 15.3842H68.0757C67.9867 15.3842 67.9013 15.3481 67.8384 15.2837C67.7755 15.2193 67.7402 15.1321 67.7402 15.041V9.45322C67.7402 8.70581 67.5446 8.13158 67.1534 7.73053C66.7622 7.32948 66.2275 7.12895 65.5494 7.12895C64.8045 7.12895 64.2039 7.36639 63.7476 7.84127C63.2914 8.31615 63.0628 9.04078 63.0619 10.0152V15.041C63.0619 15.1321 63.0266 15.2193 62.9637 15.2837C62.9007 15.3481 62.8154 15.3842 62.7264 15.3842H61.2789C61.1899 15.3842 61.1045 15.3481 61.0416 15.2837C60.9787 15.2193 60.9434 15.1321 60.9434 15.041V5.70978C60.9434 5.61876 60.9787 5.53148 61.0416 5.46712C61.1045 5.40276 61.1899 5.36661 61.2789 5.36661H62.7238C62.8127 5.36661 62.8981 5.40276 62.961 5.46712C63.0239 5.53148 63.0593 5.61876 63.0593 5.70978C63.0587 5.77562 63.0767 5.84023 63.1111 5.89585C63.1456 5.95147 63.195 5.99573 63.2534 6.02332C63.3119 6.0509 63.3769 6.06063 63.4406 6.05133C63.5043 6.04204 63.564 6.01411 63.6126 5.97092C64.2319 5.39395 65.0593 5.10547 66.0948 5.10547Z" fill="white"/>
<path d="M80.2201 5.36693H81.669C81.758 5.36693 81.8433 5.40308 81.9062 5.46744C81.9692 5.5318 82.0045 5.61909 82.0045 5.7101V15.0414C82.0045 15.1324 81.9692 15.2197 81.9062 15.284C81.8433 15.3484 81.758 15.3845 81.669 15.3845H80.2201C80.1311 15.3845 80.0458 15.3484 79.9829 15.284C79.9199 15.2197 79.8846 15.1324 79.8846 15.0414V14.8459C79.8845 14.7795 79.8656 14.7147 79.8301 14.6591C79.7947 14.6036 79.7442 14.5599 79.6848 14.5332C79.6254 14.5065 79.5598 14.4981 79.4958 14.509C79.4318 14.5198 79.3723 14.5495 79.3245 14.5943C78.5814 15.2952 77.6257 15.6457 76.4575 15.6457C75.8096 15.6534 75.1674 15.5207 74.5732 15.2563C73.9791 14.9919 73.4464 14.6018 73.0103 14.1117C72.0559 13.0908 71.5792 11.8453 71.5801 10.3751C71.581 8.90484 72.0577 7.65611 73.0103 6.62887C73.448 6.14184 73.981 5.75451 74.5747 5.4921C75.1684 5.22968 75.8094 5.09806 76.4561 5.10579C77.6261 5.10579 78.5823 5.45215 79.3245 6.14488C79.3723 6.18997 79.4318 6.21981 79.4959 6.2307C79.56 6.24159 79.6258 6.23307 79.6851 6.20618C79.7445 6.17929 79.795 6.13521 79.8302 6.07937C79.8654 6.02353 79.8838 5.95838 79.8833 5.89194V5.7101C79.8833 5.66492 79.892 5.62018 79.9089 5.57846C79.9259 5.53673 79.9507 5.49884 79.982 5.46696C80.0133 5.43507 80.0504 5.40982 80.0913 5.39266C80.1322 5.37549 80.1759 5.36675 80.2201 5.36693ZM74.5768 12.6692C75.1717 13.2544 75.965 13.5813 76.7903 13.5813C77.6156 13.5813 78.4089 13.2544 79.0038 12.6692C79.2947 12.3677 79.5229 12.0089 79.6743 11.6146C79.8257 11.2202 79.8972 10.7985 79.8846 10.3751C79.897 9.9516 79.8253 9.52997 79.6739 9.13565C79.5226 8.74133 79.2946 8.3825 79.0038 8.08086C78.4084 7.49661 77.6153 7.17039 76.7903 7.17039C75.9653 7.17039 75.1722 7.49661 74.5768 8.08086C74.2856 8.38225 74.0572 8.741 73.9056 9.13536C73.7539 9.52972 73.6822 9.95148 73.6946 10.3751C73.6819 10.7987 73.7535 11.2205 73.9051 11.6149C74.0568 12.0093 74.2853 12.368 74.5768 12.6692Z" fill="white"/>
</g>
<defs>
<linearGradient id="paint0_linear_1533_59422" x1="17.6825" y1="17.5119" x2="6.17673" y2="13.3666" gradientUnits="userSpaceOnUse">
<stop stop-color="white"/>
<stop offset="1" stop-color="white" stop-opacity="0"/>
</linearGradient>
<clipPath id="clip0_1533_59422">
<rect width="82" height="17" fill="white"/>
</clipPath>
</defs>
</svg>
