<svg width="87" height="113" viewBox="0 0 87 113" fill="none" xmlns="http://www.w3.org/2000/svg">
<path d="M1.3082 95.746C1.3082 94.29 1.5942 92.9987 2.1662 91.872C2.75553 90.7453 3.5442 89.8787 4.5322 89.272C5.53753 88.6653 6.65553 88.362 7.8862 88.362C8.96086 88.362 9.89686 88.5787 10.6942 89.012C11.5089 89.4453 12.1589 89.9913 12.6442 90.65V88.596H16.3102V103H12.6442V100.894C12.1762 101.57 11.5262 102.133 10.6942 102.584C9.87953 103.017 8.93486 103.234 7.8602 103.234C6.64686 103.234 5.53753 102.922 4.5322 102.298C3.5442 101.674 2.75553 100.799 2.1662 99.672C1.5942 98.528 1.3082 97.2193 1.3082 95.746ZM12.6442 95.798C12.6442 94.914 12.4709 94.16 12.1242 93.536C11.7775 92.8947 11.3095 92.4093 10.7202 92.08C10.1309 91.7333 9.4982 91.56 8.8222 91.56C8.1462 91.56 7.5222 91.7247 6.9502 92.054C6.3782 92.3833 5.9102 92.8687 5.5462 93.51C5.19953 94.134 5.0262 94.8793 5.0262 95.746C5.0262 96.6127 5.19953 97.3753 5.5462 98.034C5.9102 98.6753 6.3782 99.1693 6.9502 99.516C7.53953 99.8627 8.16353 100.036 8.8222 100.036C9.4982 100.036 10.1309 99.8713 10.7202 99.542C11.3095 99.1953 11.7775 98.71 12.1242 98.086C12.4709 97.4447 12.6442 96.682 12.6442 95.798ZM18.9293 95.746C18.9293 94.29 19.2153 92.9987 19.7873 91.872C20.3766 90.7453 21.174 89.8787 22.1793 89.272C23.1846 88.6653 24.3026 88.362 25.5333 88.362C26.4693 88.362 27.362 88.57 28.2113 88.986C29.0606 89.3847 29.7366 89.922 30.2393 90.598V83.76H33.9313V103H30.2393V100.868C29.7886 101.579 29.156 102.151 28.3413 102.584C27.5266 103.017 26.582 103.234 25.5073 103.234C24.294 103.234 23.1846 102.922 22.1793 102.298C21.174 101.674 20.3766 100.799 19.7873 99.672C19.2153 98.528 18.9293 97.2193 18.9293 95.746ZM30.2653 95.798C30.2653 94.914 30.092 94.16 29.7453 93.536C29.3986 92.8947 28.9306 92.4093 28.3413 92.08C27.752 91.7333 27.1193 91.56 26.4433 91.56C25.7673 91.56 25.1433 91.7247 24.5713 92.054C23.9993 92.3833 23.5313 92.8687 23.1673 93.51C22.8206 94.134 22.6473 94.8793 22.6473 95.746C22.6473 96.6127 22.8206 97.3753 23.1673 98.034C23.5313 98.6753 23.9993 99.1693 24.5713 99.516C25.1606 99.8627 25.7846 100.036 26.4433 100.036C27.1193 100.036 27.752 99.8713 28.3413 99.542C28.9306 99.1953 29.3986 98.71 29.7453 98.086C30.092 97.4447 30.2653 96.682 30.2653 95.798ZM50.8764 95.486C50.8764 96.006 50.8417 96.474 50.7724 96.89H40.2424C40.329 97.93 40.693 98.7447 41.3344 99.334C41.9757 99.9233 42.7644 100.218 43.7004 100.218C45.0524 100.218 46.0144 99.6373 46.5864 98.476H50.5124C50.0964 99.8627 49.299 101.007 48.1204 101.908C46.9417 102.792 45.4944 103.234 43.7784 103.234C42.3917 103.234 41.1437 102.931 40.0344 102.324C38.9424 101.7 38.0844 100.825 37.4604 99.698C36.8537 98.5713 36.5504 97.2713 36.5504 95.798C36.5504 94.3073 36.8537 92.9987 37.4604 91.872C38.067 90.7453 38.9164 89.8787 40.0084 89.272C41.1004 88.6653 42.357 88.362 43.7784 88.362C45.1477 88.362 46.3697 88.6567 47.4444 89.246C48.5364 89.8353 49.3771 90.676 49.9664 91.768C50.5731 92.8427 50.8764 94.082 50.8764 95.486ZM47.1064 94.446C47.089 93.51 46.751 92.7647 46.0924 92.21C45.4337 91.638 44.6277 91.352 43.6744 91.352C42.7731 91.352 42.0104 91.6293 41.3864 92.184C40.7797 92.7213 40.407 93.4753 40.2684 94.446H47.1064ZM61.5153 88.388C63.2313 88.388 64.6179 88.934 65.6753 90.026C66.7326 91.1007 67.2613 92.6087 67.2613 94.55V103H63.6213V95.044C63.6213 93.9 63.3353 93.0247 62.7633 92.418C62.1913 91.794 61.4113 91.482 60.4233 91.482C59.4179 91.482 58.6206 91.794 58.0313 92.418C57.4593 93.0247 57.1733 93.9 57.1733 95.044V103H53.5333V88.596H57.1733V90.39C57.6586 89.766 58.2739 89.2807 59.0193 88.934C59.7819 88.57 60.6139 88.388 61.5153 88.388ZM69.7867 95.746C69.7867 94.29 70.0727 92.9987 70.6447 91.872C71.234 90.7453 72.0227 89.8787 73.0107 89.272C74.016 88.6653 75.134 88.362 76.3647 88.362C77.4394 88.362 78.3754 88.5787 79.1727 89.012C79.9874 89.4453 80.6374 89.9913 81.1227 90.65V88.596H84.7887V103H81.1227V100.894C80.6547 101.57 80.0047 102.133 79.1727 102.584C78.358 103.017 77.4134 103.234 76.3387 103.234C75.1254 103.234 74.016 102.922 73.0107 102.298C72.0227 101.674 71.234 100.799 70.6447 99.672C70.0727 98.528 69.7867 97.2193 69.7867 95.746ZM81.1227 95.798C81.1227 94.914 80.9494 94.16 80.6027 93.536C80.256 92.8947 79.788 92.4093 79.1987 92.08C78.6094 91.7333 77.9767 91.56 77.3007 91.56C76.6247 91.56 76.0007 91.7247 75.4287 92.054C74.8567 92.3833 74.3887 92.8687 74.0247 93.51C73.678 94.134 73.5047 94.8793 73.5047 95.746C73.5047 96.6127 73.678 97.3753 74.0247 98.034C74.3887 98.6753 74.8567 99.1693 75.4287 99.516C76.018 99.8627 76.642 100.036 77.3007 100.036C77.9767 100.036 78.6094 99.8713 79.1987 99.542C79.788 99.1953 80.256 98.71 80.6027 98.086C80.9494 97.4447 81.1227 96.682 81.1227 95.798Z" fill="white"/>
<path d="M64.6477 0H22.3523C16.0826 0 11 5.08261 11 11.3523V53.6477C11 59.9174 16.0826 65 22.3523 65H64.6477C70.9174 65 76 59.9174 76 53.6477V11.3523C76 5.08261 70.9174 0 64.6477 0Z" fill="#0059FF"/>
<path d="M48.0655 18.1955C46.6586 15.7393 43.5319 14.9032 41.0828 16.3142C38.6336 17.7252 37.7998 20.8608 39.2068 23.3169L52.8075 46.938C54.2148 49.3942 57.3412 50.2304 59.7905 48.8194C62.2398 47.4084 63.0734 44.2728 61.6665 41.8167L48.0655 18.1955Z" fill="url(#paint0_linear_5464_93809)"/>
<path d="M52.9799 26.8702C48.4115 24.4662 45.3543 27.776 44.0168 29.7793C43.8084 30.0928 43.6 30.4238 43.4263 30.7548C43.3394 30.929 43.2873 31.0509 43.2525 31.0857L41.4981 34.1516L34.1853 46.8506C33.8553 47.4254 33.4037 47.948 32.8652 48.3487C32.3267 48.7494 31.7187 49.0629 31.0761 49.2371C29.7733 49.5855 28.3837 49.4113 27.2025 48.7319C26.0387 48.0525 25.1702 46.9377 24.8228 45.6312C24.4754 44.3247 24.6491 42.9312 25.3265 41.7466L37.9546 19.7978L38.8926 18.1603C39.3443 17.3764 39.987 16.7319 40.7512 16.279C41.5329 15.8261 42.4014 15.5996 43.3046 15.5996H43.4957C44.399 15.5996 45.2675 15.8435 46.0491 16.279C46.8308 16.7319 47.4735 17.3764 47.9251 18.1603L52.9799 26.8702Z" fill="white"/>
<defs>
<linearGradient id="paint0_linear_5464_93809" x1="58.327" y1="46.0059" x2="46.7567" y2="26.3999" gradientUnits="userSpaceOnUse">
<stop stop-color="white"/>
<stop offset="1" stop-color="white" stop-opacity="0"/>
</linearGradient>
</defs>
</svg>
