<svg width="34" height="34" viewBox="0 0 34 34" fill="none" xmlns="http://www.w3.org/2000/svg">
<rect width="34" height="34" rx="17" fill="black"/>
<path d="M12.1688 12.2779L7.55469 16.8911L12.1688 21.5044L16.7828 16.8911L12.1688 12.2779Z" fill="#808080"/>
<path d="M22.4136 12.2789L19.3819 15.3101L19.1365 15.5555L18.8911 15.8153L17.8083 16.8834L17.5629 17.1432L17.303 17.3886L15.3541 19.3516L12.8999 16.8834L15.3541 14.4296L17.303 16.3926L18.3858 15.3101L15.3541 12.2789L10.7344 16.8834L15.3541 21.5023L18.3858 18.4711L18.6312 18.2113L18.8911 17.9659L19.9594 16.8834L20.2192 16.638L20.4647 16.3926L22.4136 14.4296L24.8823 16.8834L22.4136 19.3516L20.4647 17.3886L19.3819 18.4711L22.4136 21.5023L27.0333 16.8834L22.4136 12.2789Z" fill="white"/>
</svg>
