<svg width="16" height="16" viewBox="0 0 16 16" fill="none" xmlns="http://www.w3.org/2000/svg">
<path fill-rule="evenodd" clip-rule="evenodd" d="M8 16C12.4183 16 16 12.4183 16 8C16 3.58172 12.4183 0 8 0C3.58172 0 0 3.58172 0 8C0 12.4183 3.58172 16 8 16ZM10.25 4.10289C9.39212 3.60759 8.39477 3.4092 7.41264 3.5385C6.43051 3.6678 5.51849 4.11756 4.81803 4.81803C4.11756 5.51849 3.6678 6.43051 3.5385 7.41264C3.4092 8.39477 3.60759 9.39212 4.10289 10.25C4.24096 10.4892 4.54676 10.5711 4.7859 10.433C5.02505 10.2949 5.10699 9.98915 4.96892 9.75001C4.58368 9.08276 4.42938 8.30704 4.52995 7.54316C4.63052 6.77929 4.98033 6.06994 5.52513 5.52513C6.06994 4.98033 6.77929 4.63052 7.54317 4.52995C8.30704 4.42938 9.08276 4.58368 9.75001 4.96892C10.4173 5.35415 10.9387 5.94879 11.2336 6.66061C11.5284 7.37244 11.5802 8.16166 11.3807 8.90587C11.1813 9.65009 10.7419 10.3077 10.1307 10.7767C9.57608 11.2023 8.90814 11.451 8.21362 11.4935L9.35351 10.3536L8.64641 9.64648L6.29285 12L8.64641 14.3536L9.35351 13.6465L8.20248 12.4955C9.12128 12.4541 10.0072 12.132 10.7394 11.5701C11.5253 10.9671 12.0903 10.1215 12.3467 9.16469C12.6031 8.20784 12.5366 7.19313 12.1575 6.27793C11.7784 5.36273 11.1079 4.59819 10.25 4.10289Z" fill="#E7E8F3"/>
</svg>
