<svg width="100" height="100" viewBox="0 0 100 100" fill="none" xmlns="http://www.w3.org/2000/svg">
<path fillRule="evenodd" clipRule="evenodd" d="M50 100C77.6142 100 100 77.6142 100 50C100 22.3858 77.6142 0 50 0C22.3858 0 0 22.3858 0 50C0 77.6142 22.3858 100 50 100ZM19.1497 44.2169C19.3628 43.9593 19.6438 43.7668 19.9609 43.6612L69.2072 27.2457C69.5216 27.1413 69.8589 27.1263 70.1814 27.2026C70.5038 27.2789 70.7987 27.4434 71.033 27.6777C71.2673 27.912 71.4318 28.2068 71.5081 28.5293C71.5844 28.8517 71.5694 29.189 71.4649 29.5035L55.0495 78.7497C54.9439 79.0668 54.7513 79.3479 54.4938 79.561C54.2363 79.7741 53.9242 79.9107 53.5929 79.9551C53.2616 79.9996 52.9245 79.9502 52.62 79.8126C52.3154 79.6749 52.0555 79.4546 51.87 79.1765L43.1648 63.3849C43.0026 63.0906 42.9267 62.7565 42.9459 62.421C42.9651 62.0855 43.0786 61.7622 43.2734 61.4883L55.2364 44.7117C55.7794 43.9011 54.8096 42.9313 53.9989 43.4743L37.2224 55.4373C36.9485 55.632 36.6252 55.7455 36.2897 55.7647C35.9542 55.784 35.6201 55.7081 35.3258 55.5459L19.5341 46.8407C19.2561 46.6552 19.0358 46.3953 18.8981 46.0907C18.7605 45.7861 18.7111 45.449 18.7556 45.1178C18.8 44.7865 18.9366 44.4744 19.1497 44.2169Z" fill="#0059FF"/>
</svg>
