<svg width="24" height="24" viewBox="0 0 24 24" fill="none" xmlns="http://www.w3.org/2000/svg">
<path d="M12.925 18.0896C12.425 18.4059 11.675 18.4059 11.175 18.0896L2.375 12.5536C1.875 12.2373 1.875 11.7628 2.375 11.4465L11.125 5.91053C11.625 5.59419 12.375 5.59419 12.875 5.91053L21.625 11.4465C22.125 11.7628 22.125 12.2373 21.625 12.5536L12.925 18.0896Z" fill="#646486"/>
<path d="M12.925 21.7627C12.425 22.0791 11.675 22.0791 11.175 21.7627L2.375 16.2268C1.875 15.9105 1.875 15.436 2.375 15.1196L11.125 9.58369C11.625 9.26735 12.375 9.26735 12.875 9.58369L21.625 15.1196C22.125 15.436 22.125 15.9105 21.625 16.2268L12.925 21.7627Z" fill="#646486"/>
<path d="M12.925 18.0896C12.425 18.4059 11.675 18.4059 11.175 18.0896L2.375 12.5536C1.875 12.2373 1.875 11.7628 2.375 11.4465L11.125 5.91053C11.625 5.59419 12.375 5.59419 12.875 5.91053L21.625 11.4465C22.125 11.7628 22.125 12.2373 21.625 12.5536L12.925 18.0896Z" fill="#A3A3B5"/>
<path d="M12.925 14.4163C12.425 14.7326 11.675 14.7326 11.175 14.4163L2.375 8.88037C1.875 8.56403 1.875 8.08952 2.375 7.77318L11.125 2.23725C11.625 1.92092 12.375 1.92092 12.875 2.23725L21.625 7.77318C22.125 8.08952 22.125 8.56403 21.625 8.88037L12.925 14.4163Z" fill="#646486"/>
</svg>
