<svg width="100" height="100" viewBox="0 0 100 100" fill="none" xmlns="http://www.w3.org/2000/svg">
    <rect width="100" height="100" rx="50" fill="#1B5045" />
    <rect
    x="34"
    y="50.9629"
    width="7"
    height="14.142"
    transform="rotate(-45 34 50.9629)"
    fill="#1B5045"
  />
    <rect
    x="61.037"
    y="38"
    width="7"
    height="28.2841"
    transform="rotate(45 61.037 38)"
    fill="#1B5045"
  />
    <path
    d="M50 18C67.6731 18 82 32.3269 82 50C82 67.6731 67.6731 82 50 82C32.3269 82 18 67.6731 18 50C18 32.3269 32.3269 18 50 18ZM62.916 35.4102C62.7097 35.3614 62.4941 35.3707 62.293 35.4375L30.7754 45.9434C30.5724 46.011 30.3922 46.134 30.2559 46.2988C30.1196 46.4635 30.0324 46.6631 30.0039 46.875C29.9754 47.087 30.0067 47.3031 30.0947 47.498C30.1828 47.693 30.324 47.8598 30.502 47.9785L40.6084 53.5498C40.7967 53.6536 41.0109 53.7017 41.2256 53.6895C41.4403 53.6771 41.647 53.6041 41.8223 53.4795L52.5596 45.8232C53.0782 45.4763 53.6985 46.0966 53.3516 46.6152L45.6953 57.3525C45.5707 57.5278 45.4977 57.7346 45.4854 57.9492C45.4731 58.1639 45.5213 58.3781 45.625 58.5664L51.1973 68.6729C51.316 68.8507 51.4819 68.992 51.6768 69.0801C51.8717 69.1682 52.0878 69.1994 52.2998 69.1709C52.5117 69.1424 52.7113 69.0552 52.876 68.9189C53.0408 68.7826 53.1638 68.6024 53.2314 68.3994L63.7373 36.8818C63.8041 36.6807 63.8144 36.465 63.7656 36.2588C63.7168 36.0524 63.6109 35.8638 63.4609 35.7139C63.311 35.5639 63.1224 35.459 62.916 35.4102Z"
    fill="#0DBE89"
  />
    </svg>
