<svg width="78" height="76" viewBox="0 0 78 76" fill="none" xmlns="http://www.w3.org/2000/svg">
<path d="M46.1416 8.974C43.3556 4.01834 37.1863 2.31979 32.362 5.18018C27.5378 8.04057 25.8855 14.3767 28.6715 19.3324L55.4854 67.028C58.2715 71.9836 64.4408 73.6822 69.265 70.8218C74.0893 67.9614 75.7416 61.6253 72.9556 56.6696L46.1416 8.974Z" fill="url(#paint0_linear_1883_105605)"/>
<path d="M55.9593 26.6188C46.9258 21.7546 40.882 28.4346 38.2405 32.4844C37.8185 33.1238 37.4287 33.785 37.0725 34.4653C36.8849 34.812 36.7831 35.0541 36.7456 35.1366C36.7081 35.2192 36.7456 35.1366 36.7456 35.1641L33.2522 41.3599L18.8179 67.0289C17.4807 69.4076 15.2781 71.1434 12.6948 71.8544C10.1114 72.5654 7.35879 72.1933 5.04252 70.8201C2.72626 69.4468 1.03606 67.1849 0.343739 64.5319C-0.348578 61.8788 0.0137028 59.052 1.35088 56.6733L26.3244 12.2519L28.1675 8.9504C29.0543 7.37754 30.3289 6.07237 31.863 5.16628C33.3971 4.2602 35.1366 3.78519 36.9064 3.78909H37.2975C39.0692 3.78798 40.8099 4.26655 42.3442 5.17655C43.8784 6.08655 45.1519 7.39583 46.0363 8.97241L55.9593 26.6188Z" fill="white"/>
<defs>
<linearGradient id="paint0_linear_1883_105605" x1="70.8717" y1="74.2815" x2="24.7082" y2="57.7159" gradientUnits="userSpaceOnUse">
<stop stop-color="white"/>
<stop offset="1" stop-color="white" stop-opacity="0"/>
</linearGradient>
</defs>
</svg>
