<?xml version="1.0" encoding="utf-8"?>
<!-- Generator: Adobe Illustrator 28.0.0, SVG Export Plug-In . SVG Version: 6.00 Build 0)  -->
<svg version="1.1" id="Layer_1" xmlns="http://www.w3.org/2000/svg" xmlns:xlink="http://www.w3.org/1999/xlink" x="0px" y="0px"
	 viewBox="0 0 100 100" style="enable-background:new 0 0 100 100;" xml:space="preserve">
<style type="text/css">
	.st0{fill:#0550C9;}
	.st1{fill:#FFFFFF;}
</style>
<path class="st0" d="M90,100H10c-5.52,0-10-4.48-10-10V10C0,4.48,4.48,0,10,0h80c5.52,0,10,4.48,10,10v80
	C100,95.52,95.52,100,90,100z"/>
<g>
	<path class="st1" d="M73.8,53.39c-2.93,1.27-5.63,2.39-8.28,3.61c-0.67,0.31-1.36,0.83-1.74,1.44
		c-5.79,9.15-18.52,10.37-25.72,2.42c-3.34-3.68-3.47-7.43-0.39-11.31c2.08-2.6,4.73-4.52,7.65-6.03c2.74-1.41,5.58-2.61,8.35-3.89
		c-0.17,0.01-0.42-0.01-0.65,0.04c-9.65,2.14-18.93,5.34-27.68,9.97c-3.26,1.72-6.51,3.51-9.06,6.26c-2.44,2.63-1.81,4.8,1.61,5.86
		c0.24,0.07,0.48,0.19,0.72,0.2c3.08,0.22,6.16,0.53,9.25,0.58c1.18,0.02,1.83,0.27,2.53,1.25c4.68,6.53,11.13,9.98,19.12,10.16
		c11.05,0.25,20.45-6.8,23.57-17.4C73.38,55.58,73.54,54.57,73.8,53.39z M46.25,60.44c-0.07,0,0.1,0.03,0.26,0
		c9.52-2.11,18.7-5.16,27.36-9.68c3.57-1.86,7.14-3.74,9.91-6.76c2.33-2.53,1.72-4.66-1.57-5.73c-0.16-0.05-0.32-0.1-0.48-0.14
		c-3.32-0.93-6.72-0.79-10.11-0.7c-0.88,0.03-1.33-0.26-1.82-0.95c-4.37-6.25-10.41-9.78-17.97-10.38
		c-10.1-0.79-19.05,4.51-23.49,13.61c-1.05,2.14-1.8,4.38-2.04,6.88c2.74-1.2,5.32-2.38,7.94-3.45c0.93-0.38,1.6-0.88,2.15-1.75
		c5.68-8.87,17.74-10.11,25.18-2.64c3.78,3.8,4.06,8.09,0.4,12.01c-1.89,2.02-4.16,3.8-6.53,5.21
		C52.48,57.75,49.23,59.03,46.25,60.44z"/>
	<path class="st1" d="M73.8,53.39c-0.26,1.18-0.42,2.2-0.7,3.18c-3.13,10.6-12.53,17.66-23.57,17.4
		c-7.99-0.18-14.44-3.63-19.12-10.16c-0.7-0.98-1.35-1.23-2.53-1.25c-3.08-0.05-6.17-0.36-9.25-0.58c-0.25-0.02-0.48-0.13-0.72-0.2
		c-3.43-1.06-4.06-3.23-1.61-5.86c2.55-2.74,5.8-4.53,9.06-6.26c8.75-4.63,18.03-7.83,27.68-9.97c0.23-0.05,0.48-0.03,0.65-0.04
		c-2.77,1.28-5.61,2.47-8.35,3.89c-2.92,1.51-5.57,3.43-7.65,6.03c-3.09,3.87-2.95,7.62,0.39,11.31c7.2,7.95,19.93,6.73,25.72-2.42
		c0.39-0.61,1.08-1.13,1.74-1.44C68.17,55.78,70.87,54.66,73.8,53.39z"/>
	<path class="st1" d="M46.25,60.44c2.98-1.42,6.23-2.69,9.19-4.46c2.38-1.42,4.65-3.19,6.53-5.21c3.66-3.92,3.38-8.21-0.4-12.01
		c-7.44-7.47-19.5-6.23-25.18,2.64c-0.56,0.87-1.22,1.37-2.15,1.75c-2.62,1.07-5.21,2.25-7.94,3.45c0.24-2.51,1-4.74,2.04-6.88
		c4.45-9.1,13.39-14.4,23.49-13.61c7.56,0.59,13.6,4.12,17.97,10.38c0.48,0.69,0.93,0.98,1.82,0.95c3.39-0.1,6.79-0.23,10.11,0.7
		c0.16,0.05,0.32,0.09,0.48,0.14c3.28,1.07,3.89,3.19,1.57,5.73c-2.77,3.02-6.35,4.9-9.91,6.76c-8.66,4.52-17.85,7.57-27.36,9.68
		C46.35,60.47,46.18,60.44,46.25,60.44z"/>
</g>
</svg>
