<svg width="34" height="34" viewBox="0 0 34 34" fill="none" xmlns="http://www.w3.org/2000/svg">
<rect width="34" height="34" rx="17" fill="#1F2023"/>
<path d="M11.2314 15.9103C10.7637 15.2327 9.89287 14.7954 8.7698 14.7954C7.06717 14.7954 6 15.8389 6 17.4079C6 18.9769 7.06717 20.0119 8.77053 20.0119C9.8002 20.0119 10.7637 19.5747 11.2322 18.897V19.3876C11.2322 20.5649 10.3989 21.1444 8.90218 21.1444C8.06006 21.1444 7.37681 20.8858 6.88992 20.5824L6.52513 21.1444C7.07747 21.5277 8.06962 21.7954 8.9772 21.7954C10.6247 21.7954 12 21.0463 12 19.2986V14.9734H11.2329V15.9096L11.2314 15.9103ZM11.2314 17.63C11.2314 18.0659 11.0601 18.4962 10.7195 18.7877C10.2415 19.1977 9.64207 19.3616 8.96617 19.3616C7.56215 19.3616 6.77593 18.6574 6.77593 17.4086C6.77593 16.1598 7.56215 15.4464 8.96617 15.4464C9.59279 15.4464 10.1532 15.5873 10.6129 15.9349C11.0108 16.2355 11.2307 16.7022 11.2307 17.1857V17.63H11.2314Z" fill="white"/>
<path d="M15.889 14.7954C14.9006 14.7954 14.1239 15.2467 13.6924 15.972V14.972H13V19.7947H13.6924V17.1862C13.6924 16.8566 13.7933 16.5318 13.9918 16.2759C14.4279 15.7134 15.0453 15.4401 15.7589 15.4414C16.6113 15.4428 17.3076 16.23 17.3076 17.1229V19.7954H18V17.0701C18 15.7516 17.3156 14.7961 15.8883 14.7961L15.889 14.7954Z" fill="white"/>
<path d="M22.8191 19.4328C22.6714 19.3906 22.5132 19.4244 22.4013 19.5292L22.3887 19.5411C23.4155 19.9948 24.6618 19.8028 25.5023 18.9623C26.342 18.1225 26.5355 16.8769 26.0818 15.8501L26.0699 15.8628C25.9644 15.9746 25.9313 16.1328 25.9728 16.2805C26.2183 17.1421 26.003 18.1092 25.3257 18.7865C24.6477 19.4645 23.6807 19.6797 22.8184 19.4335L22.8191 19.4328Z" fill="white"/>
<path d="M26.667 16.3966C26.9469 17.4459 26.6452 18.5741 25.88 19.3393C25.1119 20.1073 23.981 20.4083 22.9281 20.1242C22.5434 20.0201 22.1439 20.1017 21.8457 20.3415C23.2945 21.2066 25.126 20.9822 26.3238 19.7838C27.5208 18.5867 27.7459 16.756 26.8822 15.3071C26.6438 15.6074 26.5629 16.009 26.6663 16.3966H26.667Z" fill="white"/>
<path d="M25.7738 15.4871C26.7114 14.5052 28.1145 13.0261 28.9986 12C28.7932 12.1983 28.4394 12.486 28.0716 12.7722C27.3823 13.3082 26.2106 13.6387 25.4327 13.2421C23.8559 12.4389 21.8739 12.6963 20.5566 14.0136C19.2393 15.3309 18.9818 17.3129 19.785 18.8897C20.181 19.6676 19.8511 20.8401 19.3152 21.5286C19.029 21.8964 18.7413 22.2502 18.543 22.4556L19.1127 21.9309L19.4418 21.6355C21.5792 19.7197 23.782 17.552 25.7752 15.4857L25.7738 15.4871ZM22.0406 13.9503C23.1624 13.3708 24.5071 13.5255 25.5066 14.2598C25.7112 14.4644 25.7105 14.7957 25.5066 14.9997L25.5037 15.0025C24.4122 13.9109 22.6363 13.9109 21.5447 15.0025C20.4532 16.094 20.4532 17.8699 21.5447 18.9615L21.5272 18.9791C21.3239 19.1683 21.0074 19.1661 20.807 18.9713C19.638 17.3769 20.0495 14.9786 22.0406 13.9503ZM22.1524 18.7871C22.0343 18.9059 21.8415 18.9066 21.7227 18.7871L21.7206 18.7849C20.7261 17.7904 20.7261 16.1728 21.7206 15.179C22.7151 14.1845 24.3327 14.1845 25.3265 15.179L25.3286 15.1811C25.4482 15.3007 25.4426 15.4969 25.323 15.6158C24.2828 16.649 23.1856 17.7468 22.1524 18.7864V18.7871Z" fill="white"/>
</svg>
