<svg width="34" height="34" viewBox="0 0 34 34" fill="none" xmlns="http://www.w3.org/2000/svg">
    <g clip-path="url(#clip0_9435_22767)">
    <circle cx="17" cy="17" r="17" fill="black" />
    <path
      d="M5.0825 19.9437L5.96133 18.561C6.56243 19.1991 7.36412 19.457 8.2886 19.457C9.21308 19.457 10.3542 19.0623 10.3542 17.5732V16.8591C9.76854 17.5884 8.96685 17.9984 8.04237 17.9984C6.19277 17.9984 4.75977 16.7222 4.75977 14.2763C4.75977 11.8304 6.16256 10.5391 8.04237 10.5391C8.93663 10.5391 9.75311 10.9034 10.3542 11.6632V10.7216H12.3118V17.5725C12.3118 20.3524 10.1234 21.0361 8.28924 21.0361C7.02532 21.0361 6.02369 20.7478 5.08314 19.9424L5.0825 19.9437ZM10.3536 15.4619V13.0768C10.0141 12.606 9.30565 12.2562 8.67369 12.2562C7.54863 12.2562 6.7778 13.016 6.7778 14.2769C6.7778 15.5379 7.54863 16.2977 8.67369 16.2977C9.30565 16.2977 10.0148 15.9333 10.3536 15.4619Z"
      fill="white"
    />
    <path
      d="M18.3608 18.0592V13.6237C18.3608 12.606 17.8214 12.2562 16.9888 12.2562C16.218 12.2562 15.6323 12.6814 15.2935 13.1072V18.0598H13.3359V10.7216H15.2935V11.6632C15.7712 11.1163 16.6963 10.5391 17.8985 10.5391C19.5476 10.5391 20.3338 11.4502 20.3338 12.8785V18.0586H18.3608V18.0592Z"
      fill="white"
    />
    <path
      d="M21.0234 14.3841C21.0234 12.3032 22.5027 10.541 24.9534 10.541C27.4041 10.541 28.8989 12.3032 28.8989 14.3841C28.8989 16.465 27.4196 18.2424 24.9534 18.2424C22.4873 18.2424 21.0234 16.465 21.0234 14.3841ZM26.8648 14.3841C26.8648 13.2448 26.1865 12.2576 24.9534 12.2576C23.7204 12.2576 23.0575 13.2448 23.0575 14.3841C23.0575 15.5234 23.7358 16.5258 24.9534 16.5258C26.1711 16.5258 26.8648 15.5386 26.8648 14.3841Z"
      fill="white"
    />
    <path
      d="M15.3931 21.8984C15.1174 21.7657 14.7165 21.6787 14.1675 21.6316C13.2974 21.5641 12.7179 21.4338 12.7179 21.0179C12.7179 20.8944 12.7676 20.7831 12.8651 20.6874C13.1266 20.4318 13.6638 20.3458 14.0434 20.3497C14.6318 20.3555 15.1045 20.5266 15.4478 20.859L15.4581 20.8692L15.6876 20.6427L15.6762 20.6325C15.2794 20.269 14.689 20.0605 14.0557 20.0605C13.5948 20.0605 13.1758 20.1485 12.8759 20.3084C12.5485 20.4833 12.3752 20.7326 12.3752 21.03C12.3752 21.6953 13.23 21.8566 14.0666 21.9271C14.9962 22.0126 15.5349 22.1496 15.5349 22.5952C15.5349 23.0409 14.9928 23.3237 14.1537 23.3237C13.4486 23.3237 12.8877 23.1079 12.4869 22.6817L12.4771 22.6715L12.2402 22.8722L12.2511 22.8834C12.7001 23.3577 13.3737 23.6191 14.1478 23.6191C15.1986 23.6191 15.8771 23.2075 15.8771 22.5709C15.8771 22.275 15.7186 22.0549 15.3926 21.8984H15.3931Z"
      fill="url(#paint0_linear_9435_22767)"
    />
    <path
      d="M19.8263 22.6604C19.585 23.0705 19.0764 23.3057 18.4309 23.3057C17.3934 23.3057 16.7744 22.7576 16.7744 21.8401C16.7744 20.9226 17.3938 20.3682 18.4309 20.3682C19.0631 20.3682 19.5673 20.597 19.814 20.9955L19.8214 21.0072L20.1424 20.8419L20.1331 20.8283C19.7869 20.3259 19.196 20.0605 18.4244 20.0605C17.1915 20.0605 16.4258 20.7423 16.4258 21.8396C16.4258 22.9369 17.1915 23.6186 18.4244 23.6186C19.2167 23.6186 19.814 23.3407 20.1518 22.8139L20.1607 22.7998L19.8327 22.6482L19.8258 22.6599L19.8263 22.6604Z"
      fill="url(#paint1_linear_9435_22767)"
    />
    <path
      d="M24.3481 22.8309V21.6647C24.3481 21.1452 24.189 20.7418 23.8749 20.4649C23.5706 20.1966 23.1378 20.0605 22.5882 20.0605C22.0052 20.0605 21.3917 20.235 20.9874 20.5164L20.9756 20.5246L21.1386 20.7788L21.1514 20.7705C21.5635 20.4994 22.0323 20.3623 22.5454 20.3623C23.5105 20.3623 24 20.8006 24 21.6651V21.9557C23.7311 21.5335 23.1225 21.2638 22.4292 21.2638C22.0042 21.2638 21.5842 21.3575 21.2779 21.5218C20.888 21.7303 20.6816 22.0476 20.6816 22.4388C20.6816 22.83 20.888 23.1473 21.2779 23.3558C21.5847 23.5195 22.0042 23.6138 22.4292 23.6138C23.1195 23.6138 23.7286 23.3431 24.0004 22.9208C24.0044 23.1468 24.0487 23.3217 24.1427 23.4855L24.1472 23.4928H24.5189L24.5057 23.4704C24.3954 23.2872 24.3486 23.0963 24.3486 22.8314L24.3481 22.8309ZM24.0059 22.4344C24.0059 22.5131 23.9847 22.5909 23.9418 22.657C23.6302 23.1414 22.9822 23.3174 22.4533 23.3174C21.7935 23.3174 21.0234 23.087 21.0234 22.4378C21.0234 21.7886 21.794 21.5519 22.4533 21.5519C23.1126 21.5519 23.6789 21.7973 23.9438 22.2143C23.9857 22.2799 24.0059 22.3562 24.0059 22.4339V22.4344Z"
      fill="url(#paint2_linear_9435_22767)"
    />
    <path
      d="M27.33 20.0605C26.6126 20.0605 26.0207 20.3643 25.6977 20.8964V20.1815H25.3555V23.4923H25.6977V21.9319C25.6977 21.0771 26.393 20.3764 27.2591 20.3682C27.2665 20.3682 27.2739 20.3682 27.2813 20.3682C28.1169 20.3682 28.5581 20.8167 28.5581 21.6647V23.4923H28.9003V21.6467C28.9003 20.6388 28.3281 20.0605 27.33 20.0605Z"
      fill="url(#paint3_linear_9435_22767)"
    />
    </g>
    <defs>
    <linearGradient
      id="paint0_linear_9435_22767"
      x1="29.7477"
      y1="21.5135"
      x2="7.37407"
      y2="21.993"
      gradientUnits="userSpaceOnUse"
    >
    <stop stop-color="white" />
    <stop offset="1" />
    </linearGradient>
    <linearGradient
      id="paint1_linear_9435_22767"
      x1="29.7497"
      y1="21.6034"
      x2="7.37615"
      y2="22.0829"
      gradientUnits="userSpaceOnUse"
    >
    <stop stop-color="white" />
    <stop offset="1" />
    </linearGradient>
    <linearGradient
      id="paint2_linear_9435_22767"
      x1="29.7512"
      y1="21.6856"
      x2="7.37764"
      y2="22.165"
      gradientUnits="userSpaceOnUse"
    >
    <stop stop-color="white" />
    <stop offset="1" />
    </linearGradient>
    <linearGradient
      id="paint3_linear_9435_22767"
      x1="29.7526"
      y1="21.7419"
      x2="7.37904"
      y2="22.2214"
      gradientUnits="userSpaceOnUse"
    >
    <stop stop-color="white" />
    <stop offset="1" />
    </linearGradient>
    <clipPath id="clip0_9435_22767">
    <rect width="34" height="34" fill="white" />
    </clipPath>
    </defs>
</svg>
