<svg width="34" height="34" viewBox="0 0 34 34" fill="none" xmlns="http://www.w3.org/2000/svg">
    <g clip-path="url(#clip0_9435_22716)">
    <circle cx="17" cy="17" r="17" fill="#121212" />
    <g clip-path="url(#clip1_9435_22716)">
    <path
        fill-rule="evenodd"
        clip-rule="evenodd"
        d="M14.0972 21.2752C14.4664 21.4923 14.5896 21.9676 14.3724 22.3367L13.4031 23.9847C13.1859 24.3539 12.7106 24.4771 12.3414 24.26C11.9722 24.0428 11.849 23.5675 12.0662 23.1983L13.0356 21.5504C13.2527 21.1812 13.728 21.058 14.0972 21.2752Z"
        fill="url(#paint0_linear_9435_22716)"
        fill-opacity="0.3"
      />
    <path
        fill-rule="evenodd"
        clip-rule="evenodd"
        d="M19.6545 21.31C19.3046 21.557 19.2212 22.0409 19.4682 22.3908L20.6315 24.0388C20.8784 24.3886 21.3624 24.4721 21.7122 24.2251C22.0621 23.9781 22.1456 23.4942 21.8986 23.1443L20.7353 21.4964C20.4883 21.1464 20.0044 21.063 19.6545 21.31Z"
        fill="url(#paint1_linear_9435_22716)"
        fill-opacity="0.3"
      />
    <path
        fill-rule="evenodd"
        clip-rule="evenodd"
        d="M19.6545 12.688C19.3046 12.441 19.2212 11.9571 19.4682 11.6072L20.6315 9.95921C20.8784 9.6093 21.3624 9.52587 21.7122 9.77286C22.0621 10.0199 22.1456 10.5037 21.8986 10.8537L20.7353 12.5016C20.4883 12.8515 20.0044 12.935 19.6545 12.688Z"
        fill="url(#paint2_linear_9435_22716)"
        fill-opacity="0.3"
      />
    <path
        fill-rule="evenodd"
        clip-rule="evenodd"
        d="M14.0972 12.7229C14.4664 12.5057 14.5896 12.0304 14.3724 11.6613L13.4031 10.0133C13.1859 9.64412 12.7106 9.5209 12.3414 9.73806C11.9722 9.95521 11.849 10.4305 12.0662 10.7997L13.0356 12.4477C13.2527 12.8168 13.728 12.9401 14.0972 12.7229Z"
        fill="url(#paint3_linear_9435_22716)"
        fill-opacity="0.3"
      />
    <path
        fill-rule="evenodd"
        clip-rule="evenodd"
        d="M12.4099 14.7147C12.6475 14.3584 12.5512 13.8769 12.1948 13.6393L10.4499 12.476C10.0935 12.2385 9.61205 12.3348 9.37447 12.6911C9.13689 13.0475 9.23319 13.529 9.58956 13.7666L11.3345 14.9298C11.6908 15.1674 12.1723 15.0711 12.4099 14.7147Z"
        fill="url(#paint4_linear_9435_22716)"
        fill-opacity="0.3"
      />
    <path
        fill-rule="evenodd"
        clip-rule="evenodd"
        d="M12.4099 19.2829C12.6475 19.6393 12.5512 20.1208 12.1948 20.3583L10.4499 21.5216C10.0935 21.7592 9.61205 21.6629 9.37447 21.3065C9.13689 20.9502 9.23319 20.4687 9.58956 20.2311L11.3345 19.0678C11.6908 18.8303 12.1723 18.9266 12.4099 19.2829Z"
        fill="url(#paint5_linear_9435_22716)"
        fill-opacity="0.3"
      />
    <path
        fill-rule="evenodd"
        clip-rule="evenodd"
        d="M21.5893 14.7147C21.3517 14.3584 21.448 13.8769 21.8044 13.6393L23.5493 12.476C23.9057 12.2385 24.3872 12.3348 24.6247 12.6911C24.8623 13.0475 24.766 13.529 24.4097 13.7666L22.6647 14.9298C22.3083 15.1674 21.8268 15.0711 21.5893 14.7147Z"
        fill="url(#paint6_linear_9435_22716)"
        fill-opacity="0.3"
      />
    <path
        fill-rule="evenodd"
        clip-rule="evenodd"
        d="M17.0001 11.9595C16.5718 11.9595 16.2246 11.6123 16.2246 11.1839V9.63293C16.2246 9.20463 16.5718 8.85742 17.0001 8.85742C17.4284 8.85742 17.7756 9.20463 17.7756 9.63293V11.1839C17.7756 11.6123 17.4284 11.9595 17.0001 11.9595Z"
        fill="url(#paint7_linear_9435_22716)"
        fill-opacity="0.3"
      />
    <path
        fill-rule="evenodd"
        clip-rule="evenodd"
        d="M17.0001 22.041C16.5718 22.041 16.2246 22.3882 16.2246 22.8165V24.3675C16.2246 24.7958 16.5718 25.143 17.0001 25.143C17.4284 25.143 17.7756 24.7958 17.7756 24.3675V22.8165C17.7756 22.3882 17.4284 22.041 17.0001 22.041Z"
        fill="url(#paint8_linear_9435_22716)"
        fill-opacity="0.3"
      />
    <path
        fill-rule="evenodd"
        clip-rule="evenodd"
        d="M21.5893 19.2829C21.3517 19.6393 21.448 20.1208 21.8044 20.3583L23.5493 21.5216C23.9057 21.7592 24.3872 21.6629 24.6247 21.3065C24.8623 20.9502 24.766 20.4687 24.4097 20.2311L22.6647 19.0678C22.3083 18.8303 21.8268 18.9266 21.5893 19.2829Z"
        fill="url(#paint9_linear_9435_22716)"
        fill-opacity="0.3"
      />
    <path
        fill-rule="evenodd"
        clip-rule="evenodd"
        d="M25.1435 16.9981C25.1435 16.5698 24.7964 16.2227 24.3681 16.2227H22.6232C22.1949 16.2227 21.8477 16.5698 21.8477 16.9981C21.8477 17.4264 22.1949 17.7737 22.6232 17.7737H24.3681C24.7964 17.7737 25.1435 17.4264 25.1435 16.9981Z"
        fill="url(#paint10_linear_9435_22716)"
        fill-opacity="0.3"
      />
    <path
        fill-rule="evenodd"
        clip-rule="evenodd"
        d="M8.85742 16.9981C8.85742 16.5698 9.20463 16.2227 9.63294 16.2227H11.3778C11.8061 16.2227 12.1533 16.5698 12.1533 16.9981C12.1533 17.4264 11.8061 17.7737 11.3778 17.7737H9.63294C9.20463 17.7737 8.85742 17.4264 8.85742 16.9981Z"
        fill="url(#paint11_linear_9435_22716)"
        fill-opacity="0.3"
      />
    <path
        d="M11.959 10.4064C11.959 10.8347 12.3062 11.1819 12.7345 11.1819C13.1628 11.1819 13.51 10.8347 13.51 10.4064C13.51 9.97807 13.1628 9.63086 12.7345 9.63086C12.3062 9.63086 11.959 9.97807 11.959 10.4064Z"
        fill="#949494"
      />
    <path
        d="M23.2031 20.8771C23.2031 21.3054 23.5504 21.6526 23.9787 21.6526C24.407 21.6526 24.7542 21.3054 24.7542 20.8771C24.7542 20.4488 24.407 20.1016 23.9787 20.1016C23.5504 20.1016 23.2031 20.4488 23.2031 20.8771Z"
        fill="#949494"
      />
    <path
        d="M16.2246 9.63293C16.2246 10.0612 16.5718 10.4084 17.0001 10.4084C17.4284 10.4084 17.7756 10.0612 17.7756 9.63293C17.7756 9.20463 17.4284 8.85742 17.0001 8.85742C16.5718 8.85742 16.2246 9.20463 16.2246 9.63293Z"
        fill="#949494"
      />
    <path
        d="M23.2031 13.1212C23.2031 13.5495 23.5504 13.8967 23.9787 13.8967C24.407 13.8967 24.7542 13.5495 24.7542 13.1212C24.7542 12.6929 24.407 12.3457 23.9787 12.3457C23.5504 12.3457 23.2031 12.6929 23.2031 13.1212Z"
        fill="#949494"
      />
    <path
        d="M9.24414 13.1212C9.24414 13.5495 9.59135 13.8967 10.0197 13.8967C10.448 13.8967 10.7952 13.5495 10.7952 13.1212C10.7952 12.6929 10.448 12.3457 10.0197 12.3457C9.59135 12.3457 9.24414 12.6929 9.24414 13.1212Z"
        fill="#949494"
      />
    <path
        d="M23.5918 16.9981C23.5918 17.4264 23.939 17.7737 24.3673 17.7737C24.7956 17.7737 25.1427 17.4264 25.1427 16.9981C25.1427 16.5698 24.7956 16.2227 24.3673 16.2227C23.939 16.2227 23.5918 16.5698 23.5918 16.9981Z"
        fill="#949494"
      />
    <path
        d="M16.2246 24.3674C16.2246 24.7957 16.5718 25.1428 17.0001 25.1428C17.4284 25.1428 17.7756 24.7957 17.7756 24.3674C17.7756 23.939 17.4284 23.5918 17.0001 23.5918C16.5718 23.5918 16.2246 23.939 16.2246 24.3674Z"
        fill="#949494"
      />
    <path
        d="M8.85742 16.9981C8.85742 17.4264 9.20463 17.7737 9.63293 17.7737C10.0612 17.7737 10.4084 17.4264 10.4084 16.9981C10.4084 16.5698 10.0612 16.2227 9.63293 16.2227C9.20463 16.2227 8.85742 16.5698 8.85742 16.9981Z"
        fill="#949494"
      />
    <path
        d="M20.4902 10.4064C20.4902 10.8347 20.8374 11.1819 21.2657 11.1819C21.694 11.1819 22.0412 10.8347 22.0412 10.4064C22.0412 9.97807 21.694 9.63086 21.2657 9.63086C20.8374 9.63086 20.4902 9.97807 20.4902 10.4064Z"
        fill="#949494"
      />
    <path
        d="M20.4902 23.59C20.4902 24.0182 20.8374 24.3655 21.2657 24.3655C21.694 24.3655 22.0412 24.0182 22.0412 23.59C22.0412 23.1617 21.694 22.8145 21.2657 22.8145C20.8374 22.8145 20.4902 23.1617 20.4902 23.59Z"
        fill="#949494"
      />
    <path
        d="M11.959 23.59C11.959 24.0182 12.3062 24.3655 12.7345 24.3655C13.1628 24.3655 13.51 24.0182 13.51 23.59C13.51 23.1617 13.1628 22.8145 12.7345 22.8145C12.3062 22.8145 11.959 23.1617 11.959 23.59Z"
        fill="#949494"
      />
    <path
        d="M9.24414 20.8771C9.24414 21.3054 9.59135 21.6526 10.0197 21.6526C10.448 21.6526 10.7952 21.3054 10.7952 20.8771C10.7952 20.4488 10.448 20.1016 10.0197 20.1016C9.59135 20.1016 9.24414 20.4488 9.24414 20.8771Z"
        fill="#949494"
      />
    <path
        fill-rule="evenodd"
        clip-rule="evenodd"
        d="M21.3116 12.6864C20.8573 12.2321 20.1207 12.2321 19.6664 12.6864L16.1766 16.1762C15.7224 16.6305 15.7224 17.367 16.1766 17.8213C16.6309 18.2756 17.3674 18.2756 17.8218 17.8213L21.3116 14.3315C21.7658 13.8772 21.7658 13.1407 21.3116 12.6864Z"
        fill="url(#paint12_linear_9435_22716)"
      />
    <path
        fill-rule="evenodd"
        clip-rule="evenodd"
        d="M12.6864 12.6864C13.1407 12.2321 13.8772 12.2321 14.3315 12.6864L17.8213 16.1762C18.2756 16.6305 18.2756 17.367 17.8213 17.8213C17.367 18.2756 16.6305 18.2756 16.1762 17.8213L12.6864 14.3315C12.2321 13.8772 12.2321 13.1407 12.6864 12.6864Z"
        fill="url(#paint13_linear_9435_22716)"
      />
    <path
        fill-rule="evenodd"
        clip-rule="evenodd"
        d="M17.8214 16.1767C17.367 15.7224 16.6305 15.7224 16.1762 16.1767L12.6864 19.6664C12.2321 20.1208 12.2321 20.8573 12.6864 21.3115C13.1407 21.7659 13.8772 21.7659 14.3315 21.3115L17.8214 17.8217C18.2756 17.3675 18.2756 16.631 17.8214 16.1767Z"
        fill="url(#paint14_linear_9435_22716)"
      />
    <path
        fill-rule="evenodd"
        clip-rule="evenodd"
        d="M16.1766 16.1767C16.6309 15.7224 17.3675 15.7224 17.8217 16.1767L21.3116 19.6664C21.7658 20.1208 21.7658 20.8573 21.3116 21.3115C20.8573 21.7659 20.1207 21.7659 19.6665 21.3115L16.1766 17.8217C15.7224 17.3675 15.7224 16.631 16.1766 16.1767Z"
        fill="url(#paint15_linear_9435_22716)"
      />
    <path
        d="M12.3477 20.4895C12.3477 21.1319 12.8685 21.6527 13.5109 21.6527C14.1534 21.6527 14.6742 21.1319 14.6742 20.4895C14.6742 19.8469 14.1534 19.3262 13.5109 19.3262C12.8685 19.3262 12.3477 19.8469 12.3477 20.4895Z"
        fill="white"
      />
    <path
        d="M15.8359 12.7355C15.8359 13.378 16.3568 13.8988 16.9992 13.8988C17.6416 13.8988 18.1625 13.378 18.1625 12.7355C18.1625 12.0931 17.6416 11.5723 16.9992 11.5723C16.3568 11.5723 15.8359 12.0931 15.8359 12.7355Z"
        fill="white"
      />
    <path
        d="M19.3262 13.5109C19.3262 14.1534 19.8469 14.6742 20.4894 14.6742C21.1319 14.6742 21.6527 14.1534 21.6527 13.5109C21.6527 12.8685 21.1319 12.3477 20.4894 12.3477C19.8469 12.3477 19.3262 12.8685 19.3262 13.5109Z"
        fill="white"
      />
    <path
        d="M15.8359 21.2649C15.8359 21.9073 16.3568 22.4281 16.9992 22.4281C17.6416 22.4281 18.1625 21.9073 18.1625 21.2649C18.1625 20.6224 17.6416 20.1016 16.9992 20.1016C16.3568 20.1016 15.8359 20.6224 15.8359 21.2649Z"
        fill="white"
      />
    <path
        d="M11.959 17.0012C11.959 17.6436 12.4798 18.1645 13.1223 18.1645C13.7647 18.1645 14.2855 17.6436 14.2855 17.0012C14.2855 16.3587 13.7647 15.8379 13.1223 15.8379C12.4798 15.8379 11.959 16.3587 11.959 17.0012Z"
        fill="white"
      />
    <path
        d="M12.3477 13.5109C12.3477 14.1534 12.8685 14.6742 13.5109 14.6742C14.1534 14.6742 14.6742 14.1534 14.6742 13.5109C14.6742 12.8685 14.1534 12.3477 13.5109 12.3477C12.8685 12.3477 12.3477 12.8685 12.3477 13.5109Z"
        fill="white"
      />
    <path
        d="M19.7148 17.0012C19.7148 17.6436 20.2357 18.1645 20.8781 18.1645C21.5206 18.1645 22.0413 17.6436 22.0413 17.0012C22.0413 16.3587 21.5206 15.8379 20.8781 15.8379C20.2357 15.8379 19.7148 16.3587 19.7148 17.0012Z"
        fill="white"
      />
    <path
        d="M19.3262 20.4895C19.3262 21.1319 19.8469 21.6527 20.4894 21.6527C21.1319 21.6527 21.6527 21.1319 21.6527 20.4895C21.6527 19.8469 21.1319 19.3262 20.4894 19.3262C19.8469 19.3262 19.3262 19.8469 19.3262 20.4895Z"
        fill="white"
      />
    <path
        d="M15.0605 16.9993C15.0605 18.0701 15.9286 18.9381 16.9993 18.9381C18.0701 18.9381 18.9381 18.0701 18.9381 16.9993C18.9381 15.9286 18.0701 15.0605 16.9993 15.0605C15.9286 15.0605 15.0605 15.9286 15.0605 16.9993Z"
        fill="white"
      />
    </g>
    </g>
    <defs>
    <linearGradient
      id="paint0_linear_9435_22716"
      x1="12.7346"
      y1="23.5915"
      x2="13.704"
      y2="22.0405"
      gradientUnits="userSpaceOnUse"
    >
    <stop stop-color="white" />
    <stop offset="1" stop-color="white" stop-opacity="0" />
    </linearGradient>
    <linearGradient
      id="paint1_linear_9435_22716"
      x1="21.265"
      y1="23.5915"
      x2="20.1018"
      y2="22.0405"
      gradientUnits="userSpaceOnUse"
    >
    <stop stop-color="white" />
    <stop offset="1" stop-color="white" stop-opacity="0" />
    </linearGradient>
    <linearGradient
      id="paint2_linear_9435_22716"
      x1="21.265"
      y1="10.4064"
      x2="20.1018"
      y2="11.9575"
      gradientUnits="userSpaceOnUse"
    >
    <stop stop-color="white" />
    <stop offset="1" stop-color="white" stop-opacity="0" />
    </linearGradient>
    <linearGradient
      id="paint3_linear_9435_22716"
      x1="12.7346"
      y1="10.4065"
      x2="13.704"
      y2="11.9575"
      gradientUnits="userSpaceOnUse"
    >
    <stop stop-color="white" />
    <stop offset="1" stop-color="white" stop-opacity="0" />
    </linearGradient>
    <linearGradient
      id="paint4_linear_9435_22716"
      x1="10.0197"
      y1="13.1213"
      x2="11.7646"
      y2="14.2846"
      gradientUnits="userSpaceOnUse"
    >
    <stop stop-color="white" />
    <stop offset="1" stop-color="white" stop-opacity="0" />
    </linearGradient>
    <linearGradient
      id="paint5_linear_9435_22716"
      x1="10.0197"
      y1="20.8764"
      x2="11.5708"
      y2="19.7131"
      gradientUnits="userSpaceOnUse"
    >
    <stop stop-color="white" />
    <stop offset="1" stop-color="white" stop-opacity="0" />
    </linearGradient>
    <linearGradient
      id="paint6_linear_9435_22716"
      x1="23.9795"
      y1="13.1213"
      x2="22.2345"
      y2="14.2846"
      gradientUnits="userSpaceOnUse"
    >
    <stop stop-color="white" />
    <stop offset="1" stop-color="white" stop-opacity="0" />
    </linearGradient>
    <linearGradient
      id="paint7_linear_9435_22716"
      x1="17.0001"
      y1="9.63293"
      x2="17.0001"
      y2="11.1839"
      gradientUnits="userSpaceOnUse"
    >
    <stop stop-color="white" />
    <stop offset="1" stop-color="white" stop-opacity="0" />
    </linearGradient>
    <linearGradient
      id="paint8_linear_9435_22716"
      x1="17.0001"
      y1="24.3675"
      x2="17.0001"
      y2="22.8165"
      gradientUnits="userSpaceOnUse"
    >
    <stop stop-color="white" />
    <stop offset="1" stop-color="white" stop-opacity="0" />
    </linearGradient>
    <linearGradient
      id="paint9_linear_9435_22716"
      x1="23.9795"
      y1="20.8764"
      x2="22.4285"
      y2="19.7131"
      gradientUnits="userSpaceOnUse"
    >
    <stop stop-color="white" />
    <stop offset="1" stop-color="white" stop-opacity="0" />
    </linearGradient>
    <linearGradient
      id="paint10_linear_9435_22716"
      x1="24.3681"
      y1="16.9981"
      x2="22.4293"
      y2="16.9981"
      gradientUnits="userSpaceOnUse"
    >
    <stop stop-color="white" />
    <stop offset="1" stop-color="white" stop-opacity="0" />
    </linearGradient>
    <linearGradient
      id="paint11_linear_9435_22716"
      x1="9.63294"
      y1="16.9981"
      x2="11.5717"
      y2="16.9981"
      gradientUnits="userSpaceOnUse"
    >
    <stop stop-color="white" />
    <stop offset="1" stop-color="white" stop-opacity="0" />
    </linearGradient>
    <linearGradient
      id="paint12_linear_9435_22716"
      x1="20.489"
      y1="13.509"
      x2="16.9992"
      y2="16.9988"
      gradientUnits="userSpaceOnUse"
    >
    <stop stop-color="white" stop-opacity="0.6" />
    <stop offset="1" stop-color="white" stop-opacity="0" />
    </linearGradient>
    <linearGradient
      id="paint13_linear_9435_22716"
      x1="13.509"
      y1="13.509"
      x2="16.9988"
      y2="16.9988"
      gradientUnits="userSpaceOnUse"
    >
    <stop stop-color="white" stop-opacity="0.6" />
    <stop offset="1" stop-color="white" stop-opacity="0" />
    </linearGradient>
    <linearGradient
      id="paint14_linear_9435_22716"
      x1="13.509"
      y1="20.489"
      x2="16.9988"
      y2="16.9992"
      gradientUnits="userSpaceOnUse"
    >
    <stop stop-color="white" stop-opacity="0.6" />
    <stop offset="1" stop-color="white" stop-opacity="0" />
    </linearGradient>
    <linearGradient
      id="paint15_linear_9435_22716"
      x1="20.489"
      y1="20.489"
      x2="16.9992"
      y2="16.9992"
      gradientUnits="userSpaceOnUse"
    >
    <stop stop-color="white" stop-opacity="0.6" />
    <stop offset="1" stop-color="white" stop-opacity="0" />
    </linearGradient>
    <clipPath id="clip0_9435_22716">
    <rect width="34" height="34" fill="white" />
    </clipPath>
    <clipPath id="clip1_9435_22716">
    <rect width="18" height="18" fill="white" transform="translate(8 8)" />
    </clipPath>
    </defs>
</svg>
