<svg width="15" height="26" viewBox="0 0 15 26" fill="none" xmlns="http://www.w3.org/2000/svg">
<path fillRule="evenodd" clipRule="evenodd" d="M4.23693 0C2.58008 0 1.23693 1.34315 1.23693 3V3.95257C1.23693 4.50485 1.68465 4.95257 2.23693 4.95257H3.71442V10.0732C1.57596 10.6405 0 12.5894 0 14.9063V16.3352C0 16.8875 0.447715 17.3352 1 17.3352H6.19192V24.1425L8.6682 25.9998V17.3352H13.8577C14.41 17.3352 14.8577 16.8875 14.8577 16.3352V14.9063C14.8577 12.5894 13.2817 10.6405 11.1433 10.0732V4.95257H12.6183C13.1706 4.95257 13.6183 4.50485 13.6183 3.95256V3C13.6183 1.34315 12.2752 0 10.6183 0H4.23693Z" fill="white"/>
</svg>
