<svg width="26" height="26" viewBox="0 0 26 26" fill="none" xmlns="http://www.w3.org/2000/svg">
<path fillRule="evenodd" clipRule="evenodd" d="M11.3288 6.40571C12.2278 5.76615 12.8142 4.71584 12.8142 3.52857C12.8142 1.57979 11.2344 0 9.2856 0C7.33683 0 5.75704 1.57979 5.75704 3.52857C5.75704 4.71618 6.34375 5.76676 7.24314 6.40626V7.42884H2C0.895431 7.42884 0 8.32427 0 9.42884V12.8149H0.957722C1.58971 11.8631 2.67128 11.2357 3.89938 11.2357C5.84816 11.2357 7.42795 12.8155 7.42795 14.7642C7.42795 16.713 5.84816 18.2928 3.89938 18.2928C2.7536 18.2928 1.73537 17.7467 1.09078 16.9006H0V24.0002C0 25.1048 0.89543 26.0002 2 26.0002H9.84254V24.9785C8.94327 24.339 8.35664 23.2885 8.35664 22.1009C8.35664 20.1522 9.93643 18.5724 11.8852 18.5724C13.834 18.5724 15.4138 20.1522 15.4138 22.1009C15.4138 23.2883 14.8273 24.3387 13.9282 24.9782V26.0002H16.5714C17.676 26.0002 18.5714 25.1048 18.5714 24.0002V9.42884C18.5714 8.32427 17.676 7.42884 16.5714 7.42884H11.3288V6.40571ZM19.6636 18.7586C20.3082 19.6048 21.3264 20.1509 22.4722 20.1509C24.421 20.1509 26.0008 18.5711 26.0008 16.6223C26.0008 14.6735 24.421 13.0937 22.4722 13.0937C21.2441 13.0937 20.1625 13.7211 19.5305 14.6729H18.5728V18.7586H19.6636Z" fill="white"/>
</svg>
