<svg width="500" height="500" viewBox="0 0 500 500" fill="none" xmlns="http://www.w3.org/2000/svg">
<path d="M250 500C388.542 500 500 388.542 500 250C500 111.458 388.542 0 250 0C111.458 0 0 111.458 0 250C0 388.542 111.458 500 250 500Z" fill="black"/>
<path fill-rule="evenodd" clip-rule="evenodd" d="M264.785 89.3301C261.346 93.7061 255.969 96.5193 249.968 96.5193C243.936 96.5193 238.59 93.7061 235.151 89.3301C232.651 86.1419 231.151 82.0785 231.151 77.7025C231.151 71.9512 233.714 66.7938 237.777 63.3555C241.06 60.5111 245.342 58.8232 249.968 58.8232C254.594 58.8232 258.876 60.5424 262.158 63.3555C266.285 66.7938 268.848 71.9512 268.848 77.7025C268.848 82.0785 267.348 86.1419 264.785 89.3301ZM108.369 123.167L128.292 139.583H128.323C151.06 114.599 181.053 97.1472 213.922 89.7084L209.701 64.1906C170.7 72.728 135.141 93.4121 108.369 123.167ZM108.369 376.793L128.298 360.378C151.041 385.362 181.042 402.813 213.922 410.252L209.699 435.769C170.688 427.232 135.117 406.548 108.369 376.793ZM290.319 435.769L286.096 410.252C319.006 402.782 349.007 385.362 371.689 360.378L391.648 376.793C364.9 406.548 329.331 427.201 290.319 435.769ZM262.655 408.481C259.311 405.356 254.841 403.48 249.965 403.48C245.089 403.48 240.65 405.325 237.274 408.481C233.524 411.92 231.147 416.859 231.147 422.36C231.147 426.83 232.679 430.955 235.305 434.174C238.743 438.457 244.057 441.176 249.965 441.176C255.872 441.176 261.187 438.457 264.624 434.174C267.313 430.924 268.845 426.83 268.845 422.36C268.845 416.859 266.469 411.92 262.686 408.481H262.655ZM286.096 89.7084L290.319 64.1906C329.331 72.7593 364.9 93.4121 391.648 123.167L371.689 139.583C349.007 114.599 319.006 97.1786 286.096 89.7084ZM408.038 299.639L432.15 308.7C444.254 270.573 444.191 229.371 431.931 191.305L407.788 200.429C418.015 232.6 418.015 267.343 408.038 299.639ZM404.003 318.372C408.879 318.372 413.349 320.248 416.695 323.373H416.726C420.507 326.811 422.883 331.75 422.883 337.251C422.883 341.721 421.352 345.816 418.664 349.066C415.225 353.349 409.911 356.068 404.003 356.068C398.096 356.068 392.782 353.349 389.343 349.066C386.718 345.847 385.186 341.721 385.186 337.251C385.186 331.75 387.562 326.811 391.312 323.373C394.689 320.216 399.127 318.372 404.003 318.372ZM416.697 148.909C413.353 145.784 408.883 143.908 404.006 143.908C399.13 143.908 394.691 145.752 391.316 148.909C387.564 152.348 385.189 157.286 385.189 162.787C385.189 167.257 386.721 171.383 389.347 174.603C392.784 178.884 398.099 181.604 404.006 181.604C409.914 181.604 415.229 178.884 418.666 174.603C421.355 171.352 422.886 167.257 422.886 162.787C422.886 157.286 420.511 152.348 416.728 148.909H416.697ZM67.851 308.7L91.9632 299.639C81.9868 267.343 81.9868 232.6 92.2134 200.429L68.0699 191.305C55.8105 229.371 55.7479 270.573 67.851 308.7ZM108.641 323.373C105.296 320.248 100.826 318.372 95.9499 318.372C91.0737 318.372 86.6349 320.216 83.2591 323.373C79.5081 326.811 77.1325 331.75 77.1325 337.251C77.1325 341.721 78.664 345.847 81.2897 349.066C84.7281 353.349 90.042 356.068 95.9499 356.068C101.858 356.068 107.172 353.349 110.61 349.066C113.298 345.816 114.83 341.721 114.83 337.251C114.83 331.75 112.454 326.811 108.672 323.373H108.641ZM95.9484 143.908C100.825 143.908 105.295 145.784 108.639 148.909H108.67C112.453 152.348 114.828 157.286 114.828 162.787C114.828 167.257 113.297 171.352 110.609 174.603C107.17 178.884 101.856 181.604 95.9484 181.604C90.0406 181.604 84.7267 178.884 81.2883 174.603C78.6626 171.383 77.1309 167.257 77.1309 162.787C77.1309 157.286 79.5066 152.348 83.2575 148.909C86.6335 145.752 91.0721 143.908 95.9484 143.908ZM224.683 261.137C224.683 263.18 225.78 265.068 227.565 266.09L247.08 277.232C248.898 278.253 251.09 278.253 252.844 277.232L272.423 266.09C274.177 265.068 275.305 263.18 275.305 261.137V238.853C275.305 236.81 274.177 234.922 272.423 233.9L252.844 222.758C251.09 221.737 248.867 221.737 247.08 222.758L227.565 233.9C225.748 234.922 224.683 236.81 224.683 238.853V261.137ZM249.965 329.713C254.841 329.713 259.311 331.589 262.655 334.715H262.686C266.469 338.152 268.845 343.092 268.845 348.593C268.845 353.063 267.313 357.158 264.624 360.408C261.187 364.69 255.872 367.41 249.965 367.41C244.057 367.41 238.743 364.69 235.305 360.408C232.679 357.189 231.147 353.063 231.147 348.593C231.147 343.092 233.524 338.152 237.274 334.715C240.65 331.558 245.089 329.713 249.965 329.713ZM264.624 139.629C261.187 135.312 255.872 132.59 249.965 132.59C244.057 132.59 238.743 135.312 235.305 139.629C232.679 142.882 231.147 146.98 231.147 151.454C231.147 156.897 233.46 161.84 237.211 165.281C240.619 168.378 245.027 170.286 249.965 170.286C254.903 170.286 259.373 168.378 262.719 165.281C266.469 161.84 268.845 156.897 268.845 151.454C268.845 146.98 267.313 142.851 264.624 139.629ZM288.231 172.76L297.207 148.762C381.426 188.664 381.488 311.279 297.207 351.243L288.231 327.246C350.631 295.843 350.662 204.195 288.231 172.76ZM202.793 148.762L211.77 172.76C149.339 204.195 149.37 295.843 211.77 327.246L202.793 351.243C118.513 311.279 118.575 188.664 202.793 148.762Z" fill="white"/>
</svg>
