<svg width="500" height="500" viewBox="0 0 500 500" fill="none" xmlns="http://www.w3.org/2000/svg">
<ellipse cx="250" cy="250" rx="250" ry="250" fill="black"/>
<path d="M345.996 307.557L345.995 307.543C343.44 298.349 337.987 290.258 330.586 284.077C327.73 281.686 324.614 279.422 321.209 277.313C318.323 275.517 314.687 278.163 315.524 281.417L317.573 289.369C320.169 299.47 309.118 307.663 299.912 302.47L275.167 288.519C258.907 279.352 238.909 279.352 222.647 288.519L197.903 302.47C188.698 307.663 177.646 299.456 180.243 289.369L182.35 281.19C183.187 277.95 179.565 275.304 176.679 277.087C172.898 279.407 169.465 281.926 166.348 284.572C159.062 290.769 153.998 299.089 151.631 308.258L151.545 308.596C145.528 332.028 154.878 356.661 175.048 370.541L237.524 413.512C244.362 418.209 253.468 418.209 260.306 413.512L322.782 370.541C343.253 356.464 352.574 331.296 345.998 307.571L345.996 307.557Z" fill="#808080"/>
<path d="M343.35 255.883C339.794 226.75 329.055 197.58 316.02 171.301C304.356 147.783 307.307 119.021 326.05 100.641C333.322 93.5099 328.171 81.3135 317.883 81.3135H248.713C243.375 81.3135 238.023 83.6198 234.415 88.2182C210.06 119.303 162.374 187.699 154.049 255.883C153.299 262.095 160.73 265.9 165.491 261.742C182.113 247.224 208.039 236.839 248.699 236.839C289.359 236.839 315.273 247.239 331.908 261.742C336.67 265.9 344.1 262.08 343.35 255.883Z" fill="white"/>
</svg>
