<svg width="34" height="34" viewBox="0 0 34 34" fill="none" xmlns="http://www.w3.org/2000/svg">
<ellipse cx="17" cy="17" rx="17" ry="17" fill="#222E4C"/>
<path d="M15.8907 21.3388C15.6359 21.266 15.3622 21.324 15.1692 21.5056L15.1472 21.5263C16.9216 22.3105 19.0742 21.978 20.526 20.5261C21.9772 19.0749 22.3101 16.9237 21.5273 15.1498C21.5204 15.1572 21.5134 15.1646 21.5065 15.1719C21.3249 15.3648 21.2668 15.6384 21.3394 15.8932C21.7637 17.3819 21.3914 19.0515 20.2214 20.2215C19.0508 21.3921 17.38 21.7641 15.8907 21.3388Z" fill="#F6F6F6"/>
<path d="M22.5376 16.095C23.021 17.9082 22.5 19.8558 21.1778 21.178C19.8509 22.5049 17.8971 23.0243 16.0789 22.5334C15.4145 22.3539 14.7244 22.4944 14.2096 22.9086C16.7128 24.4027 19.8763 24.0152 21.9455 21.9456C24.0137 19.8774 24.4022 16.7156 22.9103 14.2128C22.4985 14.7314 22.3589 15.4253 22.5376 16.095Z" fill="#F6F6F6"/>
<path d="M14.7379 20.2242C14.5334 20.43 14.2012 20.4302 13.9959 20.2252L13.9921 20.2214C12.2746 18.5039 12.2746 15.7095 13.992 13.9921C15.7095 12.2746 18.504 12.2746 20.2214 13.9921C20.2227 13.9934 20.224 13.9946 20.2253 13.9959C20.4316 14.2029 20.4225 14.5409 20.2152 14.7469C18.4183 16.5321 16.5228 18.4277 14.7379 20.2242ZM14.5442 11.869C16.4824 10.8677 18.8044 11.1351 20.5317 12.4037C20.8847 12.7572 20.8846 13.3289 20.5312 13.6823L20.526 13.6875C18.6406 11.8021 15.5729 11.8021 13.6874 13.6875C11.8021 15.5728 11.8021 18.6406 13.6875 20.526C13.6875 20.526 13.6766 20.5369 13.6577 20.5558C13.3062 20.8826 12.7598 20.8785 12.4137 20.5427C10.3948 17.7887 11.1049 13.6459 14.5442 11.869ZM20.9926 14.5237C22.6126 12.8277 25.0356 10.2728 26.5625 8.50001C26.2079 8.84251 25.5967 9.33933 24.9609 9.83399C23.7708 10.7598 21.7458 11.3303 20.4021 10.6462C17.6783 9.25919 14.2544 9.70344 11.9789 11.9789C9.7034 14.2544 9.25914 17.6783 10.6461 20.4021C11.3303 21.7458 10.7598 23.7708 9.83395 24.9609C9.33932 25.5967 8.84254 26.2079 8.5 26.5625L9.48407 25.6562L10.0525 25.1465C13.7442 21.8372 17.5497 18.0925 20.9926 14.5237Z" fill="#F6F6F6"/>
</svg>
