<svg width="16" height="16" viewBox="0 0 16 16" fill="none" xmlns="http://www.w3.org/2000/svg">
<path fill-rule="evenodd" clip-rule="evenodd" d="M16 8C16 12.4183 12.4183 16 8 16C3.58172 16 0 12.4183 0 8C0 3.58172 3.58172 0 8 0C12.4183 0 16 3.58172 16 8ZM8.05526 13C8.35303 13 8.59442 12.7586 8.59442 12.4608C8.59442 12.1631 8.35303 11.9217 8.05526 11.9217C7.75749 11.9217 7.51611 12.1631 7.51611 12.4608C7.51611 12.7586 7.75749 13 8.05526 13ZM8.65126 3.75866C8.05861 3.64077 7.4443 3.70127 6.88604 3.93252C6.32777 4.16376 5.85061 4.55535 5.5149 5.05778C5.17919 5.56021 5 6.15091 5 6.75517C5 7.05294 5.24139 7.29433 5.53916 7.29433C5.83692 7.29433 6.07831 7.05294 6.07831 6.75517C6.07831 6.36418 6.19426 5.98196 6.41148 5.65686C6.62871 5.33176 6.93746 5.07838 7.29869 4.92875C7.65992 4.77912 8.05741 4.73997 8.44089 4.81625C8.82438 4.89253 9.17663 5.08081 9.4531 5.35729C9.72958 5.63376 9.91786 5.98601 9.99414 6.3695C10.0704 6.75298 10.0313 7.15047 9.88164 7.5117C9.73201 7.87293 9.47863 8.18168 9.15353 8.39891C8.82843 8.61613 8.44621 8.73208 8.05522 8.73208C7.91223 8.73208 7.77509 8.78888 7.67398 8.88999C7.57287 8.9911 7.51606 9.12824 7.51606 9.27123V10.4375C7.51606 10.7353 7.75745 10.9767 8.05522 10.9767C8.35299 10.9767 8.59437 10.7353 8.59437 10.4375V9.76244C9.00659 9.68853 9.40119 9.5303 9.75261 9.29549C10.255 8.95978 10.6466 8.48262 10.8779 7.92435C11.1091 7.36608 11.1696 6.75178 11.0517 6.15913C10.9338 5.56647 10.6429 5.02209 10.2156 4.59481C9.7883 4.16753 9.24392 3.87654 8.65126 3.75866Z" fill="#E7E8F3"/>
</svg>
