<svg width="16" height="16" viewBox="0 0 16 16" fill="none" xmlns="http://www.w3.org/2000/svg">
<path fill-rule="evenodd" clip-rule="evenodd" d="M0 8C0 3.58172 3.58172 0 8 0C12.4183 0 16 3.58172 16 8C16 12.4183 12.4183 16 8 16C3.58172 16 0 12.4183 0 8ZM5 7V12H11V7H5ZM5 6C4.44772 6 4 6.44772 4 7V12C4 12.5523 4.44772 13 5 13H11C11.5523 13 12 12.5523 12 12V7C12 6.44772 11.5523 6 11 6H10.5V4.8C10.5 3.4815 9.32986 2.5 8 2.5C6.67014 2.5 5.5 3.4815 5.5 4.8V6H5ZM6.5 6H9.5V4.8C9.5 4.13028 8.87928 3.5 8 3.5C7.12072 3.5 6.5 4.13028 6.5 4.8V6Z" fill="#E7E8F3"/>
</svg>
