<svg width="100" height="140" viewBox="0 0 100 140" fill="none" xmlns="http://www.w3.org/2000/svg">
<path d="M14.9792 121.787H17.4815C17.6357 121.787 17.7837 121.848 17.8927 121.957C18.0018 122.066 18.0631 122.214 18.0631 122.368V138.174C18.0631 138.328 18.0018 138.476 17.8927 138.585C17.7837 138.694 17.6357 138.755 17.4815 138.755H14.9792C14.8249 138.755 14.677 138.694 14.568 138.585C14.4589 138.476 14.3976 138.328 14.3976 138.174V137.843C14.3979 137.73 14.3653 137.62 14.3037 137.525C14.2421 137.431 14.1542 137.356 14.0508 137.311C13.9475 137.266 13.8331 137.251 13.7219 137.27C13.6106 137.289 13.5072 137.34 13.4245 137.417C12.1394 138.604 10.4827 139.198 8.45461 139.198C7.33156 139.21 6.21851 138.985 5.18862 138.538C4.15874 138.09 3.23535 137.429 2.47915 136.599C0.826384 134.87 0 132.76 0 130.27C0 127.779 0.826384 125.664 2.47915 123.924C3.2383 123.099 4.16268 122.443 5.19218 121.999C6.22168 121.554 7.33325 121.331 8.45461 121.344C10.4827 121.344 12.1401 121.931 13.4268 123.104C13.5098 123.18 13.6131 123.231 13.7242 123.249C13.8353 123.267 13.9494 123.253 14.0524 123.207C14.1554 123.162 14.2429 123.087 14.3042 122.993C14.3655 122.899 14.398 122.788 14.3976 122.676V122.368C14.3976 122.214 14.4589 122.066 14.568 121.957C14.677 121.848 14.8249 121.787 14.9792 121.787ZM5.19464 134.156C6.2258 135.147 7.60089 135.701 9.03154 135.701C10.4622 135.701 11.8373 135.147 12.8684 134.156C13.3737 133.646 13.7699 133.038 14.0327 132.37C14.2956 131.702 14.4198 130.987 14.3976 130.27C14.4192 129.552 14.2948 128.838 14.032 128.17C13.7691 127.502 13.3733 126.894 12.8684 126.384C11.8364 125.394 10.4617 124.841 9.03154 124.841C7.6014 124.841 6.22663 125.394 5.19464 126.384C4.69055 126.895 4.29534 127.502 4.0329 128.17C3.77047 128.838 3.64625 129.552 3.66776 130.27C3.64584 130.987 3.76987 131.701 4.03233 132.369C4.29479 133.037 4.69022 133.645 5.19464 134.156Z" fill="white"/>
<path d="M36.3698 115H38.8721C39.0264 115 39.1743 115.061 39.2834 115.17C39.3924 115.279 39.4537 115.427 39.4537 115.581V138.175C39.4537 138.329 39.3924 138.477 39.2834 138.586C39.1743 138.695 39.0264 138.756 38.8721 138.756H36.3698C36.2156 138.756 36.0677 138.695 35.9586 138.586C35.8495 138.477 35.7883 138.329 35.7883 138.175V137.844C35.7886 137.731 35.7559 137.621 35.6943 137.526C35.6327 137.432 35.5448 137.357 35.4415 137.312C35.3381 137.267 35.2238 137.253 35.1125 137.272C35.0012 137.29 34.8979 137.341 34.8151 137.418C33.53 138.605 31.8734 139.199 29.8452 139.199C28.7222 139.212 27.6091 138.987 26.5793 138.539C25.5494 138.091 24.626 137.43 23.8698 136.6C22.2186 134.871 21.3922 132.761 21.3906 130.271C21.3891 127.781 22.2155 125.665 23.8698 123.925C24.6289 123.1 25.5533 122.444 26.5828 122C27.6123 121.555 28.7239 121.332 29.8452 121.346C31.8734 121.346 33.5308 121.932 34.8174 123.106C34.9004 123.182 35.0038 123.232 35.1149 123.25C35.226 123.269 35.34 123.254 35.443 123.209C35.546 123.163 35.6335 123.089 35.6948 122.994C35.7561 122.9 35.7886 122.79 35.7883 122.677V115.581C35.7883 115.427 35.8495 115.279 35.9586 115.17C36.0677 115.061 36.2156 115 36.3698 115ZM26.5853 134.157C27.6164 135.148 28.9915 135.702 30.4222 135.702C31.8528 135.702 33.2279 135.148 34.2591 134.157C34.7643 133.647 35.1605 133.039 35.4234 132.371C35.6863 131.703 35.8104 130.989 35.7883 130.271C35.8099 129.554 35.6855 128.839 35.4226 128.171C35.1597 127.503 34.7639 126.895 34.2591 126.385C33.2271 125.395 31.8523 124.843 30.4222 124.843C28.992 124.843 27.6173 125.395 26.5853 126.385C26.0812 126.896 25.686 127.504 25.4235 128.172C25.1611 128.84 25.0369 129.554 25.0584 130.271C25.0365 130.988 25.1605 131.703 25.423 132.371C25.6854 133.039 26.0808 133.646 26.5853 134.157Z" fill="white"/>
<path d="M47.3877 131.832C47.2931 131.833 47.1999 131.856 47.1163 131.901C47.0327 131.945 46.9611 132.009 46.9077 132.087C46.8544 132.165 46.8208 132.255 46.81 132.349C46.7992 132.443 46.8114 132.539 46.8456 132.627C47.1538 133.504 47.727 134.264 48.486 134.801C49.4591 135.492 50.6477 135.837 52.0518 135.837C53.8127 135.837 55.1751 135.262 56.1389 134.114C56.2273 134.01 56.3493 133.941 56.4835 133.918C56.6177 133.895 56.7557 133.92 56.8734 133.989L58.8961 135.163C58.9683 135.205 59.0305 135.263 59.0786 135.331C59.1267 135.4 59.1595 135.478 59.1749 135.56C59.1902 135.642 59.1878 135.727 59.1677 135.808C59.1476 135.89 59.1103 135.966 59.0583 136.031C57.3901 138.142 55.043 139.197 52.017 139.197C49.2552 139.197 47.0255 138.354 45.328 136.668C43.6304 134.982 42.7808 132.849 42.7793 130.269C42.7793 127.736 43.6173 125.615 45.2932 123.907C46.9691 122.2 49.1193 121.345 51.7436 121.344C54.2352 121.344 56.2779 122.215 57.872 123.958C59.4661 125.701 60.2631 127.815 60.2631 130.299C60.2598 130.636 60.2374 130.972 60.1959 131.307C60.1796 131.449 60.1116 131.581 60.005 131.677C59.8983 131.773 59.7602 131.827 59.6167 131.828L47.3877 131.832ZM47.3368 128.845H55.8331C55.9227 128.845 56.0111 128.825 56.0915 128.785C56.1719 128.746 56.2421 128.688 56.2966 128.617C56.3511 128.546 56.3884 128.464 56.4057 128.376C56.4229 128.288 56.4197 128.197 56.3961 128.111C56.1485 127.171 55.608 126.335 54.853 125.723C53.9581 125.022 52.8483 124.65 51.7112 124.672C50.3535 124.672 49.222 125.045 48.3168 125.79C47.5887 126.396 47.0532 127.201 46.7761 128.106C46.7517 128.193 46.7477 128.284 46.7645 128.372C46.7812 128.46 46.8182 128.543 46.8726 128.615C46.9269 128.687 46.9971 128.745 47.0776 128.784C47.1582 128.824 47.2469 128.845 47.3368 128.845Z" fill="white"/>
<path d="M72.4218 121.344C74.3696 121.344 75.9428 121.966 77.1414 123.21C78.3401 124.455 78.9402 126.163 78.9417 128.335V138.173C78.9417 138.328 78.8805 138.475 78.7714 138.584C78.6623 138.693 78.5144 138.755 78.3602 138.755H75.8555C75.7013 138.755 75.5534 138.693 75.4443 138.584C75.3353 138.475 75.274 138.328 75.274 138.173V128.708C75.274 127.442 74.9349 126.47 74.2568 125.79C73.5787 125.111 72.6519 124.771 71.4765 124.771C70.1851 124.771 69.1441 125.173 68.3532 125.978C67.5623 126.782 67.1661 128.01 67.1646 129.66V138.173C67.1646 138.328 67.1033 138.475 66.9942 138.584C66.8852 138.693 66.7373 138.755 66.583 138.755H64.0737C63.9195 138.755 63.7716 138.693 63.6625 138.584C63.5535 138.475 63.4922 138.328 63.4922 138.173V122.367C63.4922 122.213 63.5535 122.065 63.6625 121.956C63.7716 121.847 63.9195 121.786 64.0737 121.786H66.5784C66.7326 121.786 66.8806 121.847 66.9896 121.956C67.0987 122.065 67.1599 122.213 67.1599 122.367C67.1589 122.479 67.1901 122.588 67.2498 122.683C67.3095 122.777 67.3952 122.852 67.4965 122.898C67.5978 122.945 67.7105 122.962 67.8209 122.946C67.9314 122.93 68.035 122.883 68.1192 122.81C69.1927 121.832 70.6269 121.344 72.4218 121.344Z" fill="white"/>
<path d="M96.9066 121.787H99.4181C99.5724 121.787 99.7203 121.848 99.8294 121.957C99.9384 122.066 99.9997 122.214 99.9997 122.368V138.174C99.9997 138.328 99.9384 138.476 99.8294 138.585C99.7203 138.694 99.5724 138.755 99.4181 138.755H96.9066C96.7523 138.755 96.6044 138.694 96.4953 138.585C96.3863 138.476 96.325 138.328 96.325 138.174V137.843C96.3249 137.73 96.2921 137.621 96.2306 137.526C96.1691 137.432 96.0816 137.358 95.9787 137.313C95.8758 137.268 95.7619 137.254 95.651 137.272C95.5401 137.29 95.437 137.341 95.3542 137.417C94.066 138.604 92.4093 139.198 90.3843 139.198C89.2612 139.211 88.1481 138.986 87.1181 138.538C86.0882 138.09 85.1648 137.429 84.4088 136.599C82.7545 134.87 81.9281 132.76 81.9297 130.27C81.9312 127.779 82.7576 125.664 84.4088 123.924C85.1675 123.099 86.0915 122.443 87.1206 121.999C88.1498 121.554 89.261 121.331 90.382 121.344C92.4101 121.344 94.0675 121.931 95.3542 123.104C95.4369 123.181 95.5401 123.231 95.6512 123.25C95.7623 123.268 95.8763 123.254 95.9793 123.208C96.0822 123.163 96.1696 123.088 96.2306 122.993C96.2917 122.899 96.3237 122.788 96.3227 122.676V122.368C96.3227 122.291 96.3378 122.216 96.3672 122.145C96.3965 122.074 96.4396 122.01 96.4938 121.956C96.5481 121.902 96.6125 121.859 96.6833 121.83C96.7541 121.801 96.83 121.786 96.9066 121.787ZM87.1243 134.156C88.1555 135.147 89.5306 135.701 90.9612 135.701C92.3919 135.701 93.767 135.147 94.7981 134.156C95.3025 133.645 95.698 133.037 95.9604 132.369C96.2229 131.701 96.3469 130.987 96.325 130.27C96.3465 129.552 96.2223 128.838 95.9599 128.17C95.6974 127.502 95.3022 126.895 94.7981 126.384C93.7661 125.394 92.3914 124.841 90.9612 124.841C89.5311 124.841 88.1563 125.394 87.1243 126.384C86.6195 126.894 86.2236 127.502 85.9608 128.17C85.6979 128.838 85.5735 129.552 85.5951 130.27C85.573 130.987 85.6971 131.702 85.96 132.37C86.2229 133.038 86.619 133.646 87.1243 134.156Z" fill="white"/>
<path d="M82.5349 0H17.4651C7.8194 0 0 7.8194 0 17.4651V82.5349C0 92.1806 7.8194 100 17.4651 100H82.5349C92.1806 100 100 92.1806 100 82.5349V17.4651C100 7.8194 92.1806 0 82.5349 0Z" fill="#0059FF"/>
<path d="M57.0239 27.9955C54.8594 24.2168 50.0491 22.9304 46.2812 25.1012C42.5132 27.2719 41.2304 32.0959 43.395 35.8746L64.3192 72.2148C66.4843 75.9935 71.2942 77.2799 75.0624 75.1092C78.8305 72.9384 80.1129 68.1145 77.9485 64.3357L57.0239 27.9955Z" fill="url(#paint0_linear_1533_62527)"/>
<path d="M64.5868 41.3393C57.5586 37.641 52.8552 42.7329 50.7976 45.8148C50.4769 46.2972 50.1562 46.8064 49.889 47.3156C49.7553 47.5836 49.6751 47.7712 49.6217 47.8248L46.9226 52.5415L35.6721 72.0784C35.1644 72.9628 34.4696 73.7668 33.6412 74.3832C32.8127 74.9996 31.8774 75.482 30.8887 75.75C28.8844 76.2859 26.7465 76.018 24.9293 74.9728C23.1389 73.9276 21.8027 72.2124 21.2682 70.2025C20.7338 68.1925 21.001 66.0485 22.0432 64.2262L41.4711 30.4587L42.9141 27.9395C43.6089 26.7336 44.5977 25.742 45.7735 25.0452C46.9761 24.3484 48.3123 24 49.7019 24H49.9958C51.3855 24 52.7216 24.3752 53.9241 25.0452C55.1267 25.742 56.1155 26.7336 56.8103 27.9395L64.5868 41.3393Z" fill="white"/>
<defs>
<linearGradient id="paint0_linear_1533_62527" x1="72.8108" y1="70.7808" x2="55.0104" y2="40.6176" gradientUnits="userSpaceOnUse">
<stop stop-color="white"/>
<stop offset="1" stop-color="white" stop-opacity="0"/>
</linearGradient>
</defs>
</svg>
