<svg width="320" height="525" viewBox="0 0 320 525" fill="none" xmlns="http://www.w3.org/2000/svg">
<circle cx="301.5" cy="12.5" r="1.5" fill="white"/>
<circle cx="308.5" cy="12.5" r="1.5" fill="white"/>
<circle cx="315.5" cy="12.5" r="1.5" fill="white"/>
<rect y="37" width="152" height="152" rx="8" fill="#32323D"/>
<circle cx="132" cy="169" r="10" fill="#191920"/>
<rect x="10" y="47" width="132" height="20" rx="10" fill="#191920"/>
<rect x="168" y="37" width="152" height="152" rx="8" fill="#32323D"/>
<circle cx="300" cy="169" r="10" fill="#191920"/>
<rect x="178" y="47" width="132" height="20" rx="10" fill="#191920"/>
<rect y="373" width="152" height="152" rx="8" fill="#32323D"/>
<rect x="168" y="373" width="152" height="152" rx="8" fill="#32323D"/>
<circle cx="132" cy="505" r="10" fill="#191920"/>
<path d="M128.787 507.493C129.036 507.295 129.15 507.203 129.128 507.218C129.847 506.624 130.411 506.136 130.822 505.755C131.24 505.374 131.592 504.974 131.878 504.556C132.164 504.138 132.307 503.731 132.307 503.335C132.307 503.034 132.237 502.8 132.098 502.631C131.959 502.462 131.75 502.378 131.471 502.378C131.192 502.378 130.972 502.484 130.811 502.697C130.657 502.902 130.58 503.196 130.58 503.577H128.765C128.78 502.954 128.912 502.433 129.161 502.015C129.418 501.597 129.751 501.289 130.162 501.091C130.58 500.893 131.042 500.794 131.548 500.794C132.421 500.794 133.077 501.018 133.517 501.465C133.964 501.912 134.188 502.495 134.188 503.214C134.188 503.999 133.92 504.728 133.385 505.403C132.85 506.07 132.168 506.723 131.339 507.361H134.309V508.89H128.787V507.493Z" fill="white"/>
<circle cx="300" cy="505" r="10" fill="#191920"/>
<path d="M294.641 502.719V500.97H297.688V509H295.73V502.719H294.641ZM298.975 504.875C298.975 503.614 299.217 502.62 299.701 501.894C300.192 501.168 300.981 500.805 302.066 500.805C303.151 500.805 303.936 501.168 304.42 501.894C304.911 502.62 305.157 503.614 305.157 504.875C305.157 506.151 304.911 507.152 304.42 507.878C303.936 508.604 303.151 508.967 302.066 508.967C300.981 508.967 300.192 508.604 299.701 507.878C299.217 507.152 298.975 506.151 298.975 504.875ZM303.309 504.875C303.309 504.134 303.228 503.566 303.067 503.17C302.906 502.767 302.572 502.565 302.066 502.565C301.56 502.565 301.226 502.767 301.065 503.17C300.904 503.566 300.823 504.134 300.823 504.875C300.823 505.374 300.852 505.788 300.911 506.118C300.97 506.441 301.087 506.705 301.263 506.91C301.446 507.108 301.714 507.207 302.066 507.207C302.418 507.207 302.682 507.108 302.858 506.91C303.041 506.705 303.162 506.441 303.221 506.118C303.28 505.788 303.309 505.374 303.309 504.875Z" fill="white"/>
<rect x="10" y="383" width="132" height="20" rx="10" fill="#191920"/>
<rect x="178" y="383" width="132" height="20" rx="10" fill="#191920"/>
<rect y="205" width="152" height="152" rx="8" fill="#32323D"/>
<rect x="168" y="205" width="152" height="152" rx="8" fill="#32323D"/>
<circle cx="132" cy="337" r="10" fill="#191920"/>
<circle cx="300" cy="337" r="10" fill="#191920"/>
<rect x="10" y="215" width="132" height="20" rx="10" fill="#191920"/>
<rect x="178" y="215" width="132" height="20" rx="10" fill="#191920"/>
<rect x="37" y="53" width="78" height="8" rx="4" fill="#52526B"/>
<rect x="125" y="165" width="14" height="8" rx="4" fill="#52526B"/>
<rect x="293" y="165" width="14" height="8" rx="4" fill="#52526B"/>
<rect x="293" y="333" width="14" height="8" rx="4" fill="#52526B"/>
<rect x="125" y="333" width="14" height="8" rx="4" fill="#52526B"/>
<rect x="205" y="53" width="78" height="8" rx="4" fill="#52526B"/>
<rect x="205" y="221" width="78" height="8" rx="4" fill="#52526B"/>
<rect x="37" y="221" width="78" height="8" rx="4" fill="#52526B"/>
<rect x="37" y="389" width="78" height="8" rx="4" fill="#52526B"/>
<rect x="205" y="389" width="78" height="8" rx="4" fill="#52526B"/>
</svg>
