<svg width="24" height="24" viewBox="0 0 24 24" fill="none" xmlns="http://www.w3.org/2000/svg">
<path d="M17.1923 10.8746L9.89695 18.1674L8.83644 17.1068L8.94593 16.9973H7.50376C7.22846 16.9973 7.00322 16.772 7.00322 16.4967V15.0544L6.89404 15.1639C6.74607 15.3141 6.63751 15.4956 6.57839 15.6958L5.85949 18.1424L8.30462 17.4228C8.47668 17.3634 8.68628 17.2539 8.83644 17.1068L9.89695 18.1674C9.5716 18.4928 9.16805 18.7337 8.72695 18.862L4.96259 19.9695C4.69918 20.0477 4.41419 19.9758 4.21992 19.7536C4.02564 19.5878 3.953 19.3031 4.03052 19.0372L5.13778 15.2734C5.26792 14.8323 5.50661 14.4287 5.83227 14.1033L13.1254 6.80859L17.1923 10.8746Z" fill="#646486"/>
<path d="M19.581 5.82019C20.3631 6.60204 20.3631 7.87101 19.581 8.65317L18.0669 10.1674L14 6.10083L15.5141 4.58657C16.2962 3.80448 17.5663 3.80448 18.3484 4.58657L19.581 5.82019Z" fill="#A3A3B5"/>
</svg>
