<svg width="23" height="25" viewBox="0 0 23 25" fill="none" xmlns="http://www.w3.org/2000/svg">
<path d="M16.9568 16.3783C16.3956 15.6936 15.3855 15.5935 14.7008 16.1547C14.016 16.7159 13.9159 17.726 14.4771 18.4107L18.6193 23.4645C19.1806 24.1492 20.1907 24.2494 20.8754 23.6881C21.5601 23.1269 21.6603 22.1168 21.099 21.4321L16.9568 16.3783Z" fill="#0059FF"/>
<path d="M10 20C15.5228 20 20 15.5228 20 10C20 4.47715 15.5228 0 10 0C4.47715 0 0 4.47715 0 10C0 15.5228 4.47715 20 10 20Z" fill="white"/>
<path d="M10 17C13.866 17 17 13.866 17 10C17 6.13401 13.866 3 10 3C6.13401 3 3 6.13401 3 10C3 13.866 6.13401 17 10 17Z" fill="#212128"/>
</svg>
