<svg width="28" height="28" viewBox="0 0 28 28" fill="none" xmlns="http://www.w3.org/2000/svg">
<path fill-rule="evenodd" clip-rule="evenodd" d="M23.8861 15.51C24.3034 15.7317 24.6253 16.0817 24.8518 16.4317C25.293 17.155 25.2572 18.0417 24.828 18.8233L23.9934 20.2233C23.5522 20.97 22.7296 21.4367 21.883 21.4367C21.4657 21.4367 21.0007 21.32 20.6192 21.0867C20.3092 20.8883 19.9515 20.8183 19.57 20.8183C18.3896 20.8183 17.4 21.7867 17.3643 22.9417C17.3643 24.2833 16.2674 25.3333 14.8963 25.3333H13.2747C11.8917 25.3333 10.7948 24.2833 10.7948 22.9417C10.7709 21.7867 9.78135 20.8183 8.60099 20.8183C8.20754 20.8183 7.84985 20.8883 7.55178 21.0867C7.17025 21.32 6.69334 21.4367 6.28796 21.4367C5.42952 21.4367 4.60684 20.97 4.1657 20.2233L3.34302 18.8233C2.90188 18.065 2.87803 17.155 3.31918 16.4317C3.50994 16.0817 3.86763 15.7317 4.273 15.51C4.60684 15.3467 4.82145 15.0783 5.02414 14.7633C5.62028 13.76 5.2626 12.4417 4.24916 11.8467C3.0688 11.1817 2.68727 9.7 3.36687 8.545L4.1657 7.16833C4.85722 6.01333 6.33565 5.605 7.52794 6.28167C8.56523 6.84167 9.91251 6.46833 10.5206 5.47667C10.7113 5.15 10.8186 4.8 10.7948 4.45C10.7709 3.995 10.9021 3.56333 11.1286 3.21333C11.5698 2.49 12.3686 2.02333 13.239 2H14.9201C15.8024 2 16.6012 2.49 17.0424 3.21333C17.257 3.56333 17.4 3.995 17.3643 4.45C17.3404 4.8 17.4477 5.15 17.6385 5.47667C18.2466 6.46833 19.5938 6.84167 20.6431 6.28167C21.8234 5.605 23.3138 6.01333 23.9934 7.16833L24.7922 8.545C25.4837 9.7 25.1022 11.1817 23.9099 11.8467C22.8965 12.4417 22.5388 13.76 23.1469 14.7633C23.3376 15.0783 23.5522 15.3467 23.8861 15.51ZM10.7113 13.6783C10.7113 15.51 12.2255 16.9683 14.0974 16.9683C15.9693 16.9683 17.4477 15.51 17.4477 13.6783C17.4477 11.8467 15.9693 10.3767 14.0974 10.3767C12.2255 10.3767 10.7113 11.8467 10.7113 13.6783Z" fill="#0059FF"/>
<circle cx="14.0498" cy="13.75" r="4" fill="white"/>
</svg>
