<svg width="28" height="28" viewBox="0 0 28 28" fill="none" xmlns="http://www.w3.org/2000/svg">
<path fill-rule="evenodd" clip-rule="evenodd" d="M23.8031 15.8433C24.2204 16.0649 24.5423 16.4149 24.7688 16.7649C25.21 17.4883 25.1742 18.3749 24.745 19.1566L23.9104 20.5566C23.4692 21.3033 22.6465 21.7699 21.8 21.7699C21.3827 21.7699 20.9177 21.6533 20.5362 21.4199C20.2262 21.2216 19.8685 21.1516 19.487 21.1516C18.3066 21.1516 17.317 22.1199 17.2813 23.2749C17.2813 24.6166 16.1844 25.6666 14.8132 25.6666H13.1917C11.8087 25.6666 10.7118 24.6166 10.7118 23.2749C10.6879 22.1199 9.69835 21.1516 8.51799 21.1516C8.12453 21.1516 7.76685 21.2216 7.46878 21.4199C7.08725 21.6533 6.61033 21.7699 6.20496 21.7699C5.34651 21.7699 4.52384 21.3033 4.08269 20.5566L3.26002 19.1566C2.81887 18.3983 2.79502 17.4883 3.23617 16.7649C3.42693 16.4149 3.78462 16.0649 4.19 15.8433C4.52384 15.6799 4.73845 15.4116 4.94114 15.0966C5.53728 14.0933 5.17959 12.7749 4.16615 12.1799C2.98579 11.5149 2.60426 10.0333 3.28386 8.87825L4.08269 7.50159C4.77422 6.34659 6.25265 5.93825 7.44493 6.61492C8.48222 7.17492 9.8295 6.80159 10.4376 5.80992C10.6283 5.48325 10.7356 5.13325 10.7118 4.78325C10.6879 4.32825 10.8191 3.89659 11.0456 3.54659C11.4868 2.82325 12.2856 2.35659 13.156 2.33325H14.8371C15.7194 2.33325 16.5182 2.82325 16.9594 3.54659C17.174 3.89659 17.317 4.32825 17.2813 4.78325C17.2574 5.13325 17.3647 5.48325 17.5555 5.80992C18.1636 6.80159 19.5108 7.17492 20.56 6.61492C21.7404 5.93825 23.2308 6.34659 23.9104 7.50159L24.7092 8.87825C25.4007 10.0333 25.0192 11.5149 23.8269 12.1799C22.8135 12.7749 22.4558 14.0933 23.0638 15.0966C23.2546 15.4116 23.4692 15.6799 23.8031 15.8433ZM10.6283 14.0116C10.6283 15.8433 12.1425 17.3016 14.0144 17.3016C15.8863 17.3016 17.3647 15.8433 17.3647 14.0116C17.3647 12.1799 15.8863 10.7099 14.0144 10.7099C12.1425 10.7099 10.6283 12.1799 10.6283 14.0116Z" fill="#646486"/>
</svg>
