<svg width="320" height="392" viewBox="0 0 320 392" fill="none" xmlns="http://www.w3.org/2000/svg">
<rect y="191" width="155" height="48" rx="24" fill="#32323D"/>
<path d="M56.5925 209.832V221H54.3525V213.736L51.3605 221H49.6645L46.6565 213.736V221H44.4165V209.832H46.9605L50.5125 218.136L54.0645 209.832H56.5925ZM58.2311 216.536C58.2311 215.64 58.4071 214.845 58.7591 214.152C59.1218 213.459 59.6071 212.925 60.2151 212.552C60.8338 212.179 61.5218 211.992 62.2791 211.992C62.9405 211.992 63.5165 212.125 64.0071 212.392C64.5085 212.659 64.9085 212.995 65.2071 213.4V212.136H67.4631V221H65.2071V219.704C64.9191 220.12 64.5191 220.467 64.0071 220.744C63.5058 221.011 62.9245 221.144 62.2631 221.144C61.5165 221.144 60.8338 220.952 60.2151 220.568C59.6071 220.184 59.1218 219.645 58.7591 218.952C58.4071 218.248 58.2311 217.443 58.2311 216.536ZM65.2071 216.568C65.2071 216.024 65.1005 215.56 64.8871 215.176C64.6738 214.781 64.3858 214.483 64.0231 214.28C63.6605 214.067 63.2711 213.96 62.8551 213.96C62.4391 213.96 62.0551 214.061 61.7031 214.264C61.3511 214.467 61.0631 214.765 60.8391 215.16C60.6258 215.544 60.5191 216.003 60.5191 216.536C60.5191 217.069 60.6258 217.539 60.8391 217.944C61.0631 218.339 61.3511 218.643 61.7031 218.856C62.0658 219.069 62.4498 219.176 62.8551 219.176C63.2711 219.176 63.6605 219.075 64.0231 218.872C64.3858 218.659 64.6738 218.36 64.8871 217.976C65.1005 217.581 65.2071 217.112 65.2071 216.568ZM74.5629 212.008C75.6189 212.008 76.4722 212.344 77.1229 213.016C77.7735 213.677 78.0989 214.605 78.0989 215.8V221H75.8589V216.104C75.8589 215.4 75.6829 214.861 75.3309 214.488C74.9789 214.104 74.4989 213.912 73.8909 213.912C73.2722 213.912 72.7815 214.104 72.4189 214.488C72.0669 214.861 71.8909 215.4 71.8909 216.104V221H69.6509V212.136H71.8909V213.24C72.1895 212.856 72.5682 212.557 73.0269 212.344C73.4962 212.12 74.0082 212.008 74.5629 212.008ZM79.653 216.536C79.653 215.64 79.829 214.845 80.181 214.152C80.5437 213.459 81.029 212.925 81.637 212.552C82.2557 212.179 82.9437 211.992 83.701 211.992C84.3623 211.992 84.9383 212.125 85.429 212.392C85.9303 212.659 86.3303 212.995 86.629 213.4V212.136H88.885V221H86.629V219.704C86.341 220.12 85.941 220.467 85.429 220.744C84.9277 221.011 84.3463 221.144 83.685 221.144C82.9383 221.144 82.2557 220.952 81.637 220.568C81.029 220.184 80.5437 219.645 80.181 218.952C79.829 218.248 79.653 217.443 79.653 216.536ZM86.629 216.568C86.629 216.024 86.5223 215.56 86.309 215.176C86.0957 214.781 85.8077 214.483 85.445 214.28C85.0823 214.067 84.693 213.96 84.277 213.96C83.861 213.96 83.477 214.061 83.125 214.264C82.773 214.467 82.485 214.765 82.261 215.16C82.0477 215.544 81.941 216.003 81.941 216.536C81.941 217.069 82.0477 217.539 82.261 217.944C82.485 218.339 82.773 218.643 83.125 218.856C83.4877 219.069 83.8717 219.176 84.277 219.176C84.693 219.176 85.0823 219.075 85.445 218.872C85.8077 218.659 86.0957 218.36 86.309 217.976C86.5223 217.581 86.629 217.112 86.629 216.568ZM94.5448 211.992C95.2061 211.992 95.7874 212.125 96.2888 212.392C96.7901 212.648 97.1848 212.984 97.4728 213.4V212.136H99.7288V221.064C99.7288 221.885 99.5634 222.616 99.2328 223.256C98.9021 223.907 98.4061 224.419 97.7448 224.792C97.0834 225.176 96.2834 225.368 95.3448 225.368C94.0861 225.368 93.0514 225.075 92.2408 224.488C91.4408 223.901 90.9874 223.101 90.8808 222.088H93.1048C93.2221 222.493 93.4728 222.813 93.8568 223.048C94.2514 223.293 94.7261 223.416 95.2808 223.416C95.9314 223.416 96.4594 223.219 96.8648 222.824C97.2701 222.44 97.4728 221.853 97.4728 221.064V219.688C97.1848 220.104 96.7848 220.451 96.2728 220.728C95.7714 221.005 95.1954 221.144 94.5448 221.144C93.7981 221.144 93.1154 220.952 92.4968 220.568C91.8781 220.184 91.3874 219.645 91.0247 218.952C90.6727 218.248 90.4967 217.443 90.4967 216.536C90.4967 215.64 90.6727 214.845 91.0247 214.152C91.3874 213.459 91.8728 212.925 92.4808 212.552C93.0994 212.179 93.7874 211.992 94.5448 211.992ZM97.4728 216.568C97.4728 216.024 97.3661 215.56 97.1528 215.176C96.9394 214.781 96.6514 214.483 96.2888 214.28C95.9261 214.067 95.5368 213.96 95.1208 213.96C94.7048 213.96 94.3208 214.061 93.9688 214.264C93.6168 214.467 93.3288 214.765 93.1048 215.16C92.8914 215.544 92.7848 216.003 92.7848 216.536C92.7848 217.069 92.8914 217.539 93.1048 217.944C93.3288 218.339 93.6168 218.643 93.9688 218.856C94.3314 219.069 94.7154 219.176 95.1208 219.176C95.5368 219.176 95.9261 219.075 96.2888 218.872C96.6514 218.659 96.9394 218.36 97.1528 217.976C97.3661 217.581 97.4728 217.112 97.4728 216.568ZM110.157 216.376C110.157 216.696 110.135 216.984 110.093 217.24H103.613C103.666 217.88 103.89 218.381 104.285 218.744C104.679 219.107 105.165 219.288 105.741 219.288C106.573 219.288 107.165 218.931 107.517 218.216H109.933C109.677 219.069 109.186 219.773 108.461 220.328C107.735 220.872 106.845 221.144 105.789 221.144C104.935 221.144 104.167 220.957 103.485 220.584C102.813 220.2 102.285 219.661 101.901 218.968C101.527 218.275 101.34 217.475 101.34 216.568C101.34 215.651 101.527 214.845 101.901 214.152C102.274 213.459 102.797 212.925 103.469 212.552C104.141 212.179 104.914 211.992 105.789 211.992C106.631 211.992 107.383 212.173 108.045 212.536C108.717 212.899 109.234 213.416 109.597 214.088C109.97 214.749 110.157 215.512 110.157 216.376ZM107.837 215.736C107.826 215.16 107.618 214.701 107.213 214.36C106.807 214.008 106.311 213.832 105.725 213.832C105.17 213.832 104.701 214.003 104.317 214.344C103.943 214.675 103.714 215.139 103.629 215.736H107.837Z" fill="#646486"/>
<rect x="165" y="191" width="155" height="48" rx="24" fill="#32323D"/>
<path d="M218.662 215.4C218.662 214.301 218.907 213.32 219.398 212.456C219.899 211.581 220.576 210.904 221.43 210.424C222.294 209.933 223.259 209.688 224.326 209.688C225.574 209.688 226.667 210.008 227.606 210.648C228.544 211.288 229.2 212.173 229.574 213.304H226.998C226.742 212.771 226.379 212.371 225.91 212.104C225.451 211.837 224.918 211.704 224.31 211.704C223.659 211.704 223.078 211.859 222.566 212.168C222.064 212.467 221.67 212.893 221.382 213.448C221.104 214.003 220.966 214.653 220.966 215.4C220.966 216.136 221.104 216.787 221.382 217.352C221.67 217.907 222.064 218.339 222.566 218.648C223.078 218.947 223.659 219.096 224.31 219.096C224.918 219.096 225.451 218.963 225.91 218.696C226.379 218.419 226.742 218.013 226.998 217.48H229.574C229.2 218.621 228.544 219.512 227.606 220.152C226.678 220.781 225.584 221.096 224.326 221.096C223.259 221.096 222.294 220.856 221.43 220.376C220.576 219.885 219.899 219.208 219.398 218.344C218.907 217.48 218.662 216.499 218.662 215.4ZM233.727 209.16V221H231.487V209.16H233.727ZM235.364 216.536C235.364 215.64 235.54 214.845 235.892 214.152C236.255 213.459 236.74 212.925 237.348 212.552C237.967 212.179 238.655 211.992 239.412 211.992C240.073 211.992 240.649 212.125 241.14 212.392C241.641 212.659 242.041 212.995 242.34 213.4V212.136H244.596V221H242.34V219.704C242.052 220.12 241.652 220.467 241.14 220.744C240.639 221.011 240.057 221.144 239.396 221.144C238.649 221.144 237.967 220.952 237.348 220.568C236.74 220.184 236.255 219.645 235.892 218.952C235.54 218.248 235.364 217.443 235.364 216.536ZM242.34 216.568C242.34 216.024 242.233 215.56 242.02 215.176C241.807 214.781 241.519 214.483 241.156 214.28C240.793 214.067 240.404 213.96 239.988 213.96C239.572 213.96 239.188 214.061 238.836 214.264C238.484 214.467 238.196 214.765 237.972 215.16C237.759 215.544 237.652 216.003 237.652 216.536C237.652 217.069 237.759 217.539 237.972 217.944C238.196 218.339 238.484 218.643 238.836 218.856C239.199 219.069 239.583 219.176 239.988 219.176C240.404 219.176 240.793 219.075 241.156 218.872C241.519 218.659 241.807 218.36 242.02 217.976C242.233 217.581 242.34 217.112 242.34 216.568ZM247.92 211.08C247.525 211.08 247.194 210.957 246.928 210.712C246.672 210.456 246.544 210.141 246.544 209.768C246.544 209.395 246.672 209.085 246.928 208.84C247.194 208.584 247.525 208.456 247.92 208.456C248.314 208.456 248.64 208.584 248.896 208.84C249.162 209.085 249.296 209.395 249.296 209.768C249.296 210.141 249.162 210.456 248.896 210.712C248.64 210.957 248.314 211.08 247.92 211.08ZM249.024 212.136V221H246.784V212.136H249.024ZM262.245 212.008C263.333 212.008 264.207 212.344 264.869 213.016C265.541 213.677 265.877 214.605 265.877 215.8V221H263.637V216.104C263.637 215.411 263.461 214.883 263.109 214.52C262.757 214.147 262.277 213.96 261.669 213.96C261.061 213.96 260.575 214.147 260.213 214.52C259.861 214.883 259.685 215.411 259.685 216.104V221H257.445V216.104C257.445 215.411 257.269 214.883 256.917 214.52C256.565 214.147 256.085 213.96 255.477 213.96C254.858 213.96 254.367 214.147 254.005 214.52C253.653 214.883 253.477 215.411 253.477 216.104V221H251.237V212.136H253.477V213.208C253.765 212.835 254.133 212.541 254.581 212.328C255.039 212.115 255.541 212.008 256.085 212.008C256.778 212.008 257.397 212.157 257.941 212.456C258.485 212.744 258.906 213.16 259.205 213.704C259.493 213.192 259.909 212.781 260.453 212.472C261.007 212.163 261.605 212.008 262.245 212.008Z" fill="#646486"/>
<path d="M9.68 271.08C9.37067 270.429 8.92267 269.928 8.336 269.576C7.74933 269.213 7.06667 269.032 6.288 269.032C5.50933 269.032 4.80533 269.213 4.176 269.576C3.55733 269.928 3.06667 270.44 2.704 271.112C2.352 271.773 2.176 272.541 2.176 273.416C2.176 274.291 2.352 275.059 2.704 275.72C3.06667 276.381 3.55733 276.893 4.176 277.256C4.80533 277.608 5.50933 277.784 6.288 277.784C7.376 277.784 8.272 277.459 8.976 276.808C9.68 276.157 10.0907 275.277 10.208 274.168H5.76V272.984H11.76V274.104C11.6747 275.021 11.3867 275.864 10.896 276.632C10.4053 277.389 9.76 277.992 8.96 278.44C8.16 278.877 7.26933 279.096 6.288 279.096C5.25333 279.096 4.30933 278.856 3.456 278.376C2.60267 277.885 1.92533 277.208 1.424 276.344C0.933333 275.48 0.688 274.504 0.688 273.416C0.688 272.328 0.933333 271.352 1.424 270.488C1.92533 269.613 2.60267 268.936 3.456 268.456C4.30933 267.965 5.25333 267.72 6.288 267.72C7.472 267.72 8.51733 268.013 9.424 268.6C10.3413 269.187 11.008 270.013 11.424 271.08H9.68ZM17.5091 279.144C16.6878 279.144 15.9411 278.957 15.2691 278.584C14.6078 278.211 14.0851 277.683 13.7011 277C13.3278 276.307 13.1411 275.507 13.1411 274.6C13.1411 273.704 13.3331 272.915 13.7171 272.232C14.1118 271.539 14.6451 271.011 15.3171 270.648C15.9891 270.275 16.7411 270.088 17.5731 270.088C18.4051 270.088 19.1571 270.275 19.8291 270.648C20.5011 271.011 21.0291 271.533 21.4131 272.216C21.8078 272.899 22.0051 273.693 22.0051 274.6C22.0051 275.507 21.8025 276.307 21.3971 277C21.0025 277.683 20.4638 278.211 19.7811 278.584C19.0985 278.957 18.3411 279.144 17.5091 279.144ZM17.5091 277.864C18.0318 277.864 18.5225 277.741 18.9811 277.496C19.4398 277.251 19.8078 276.883 20.0851 276.392C20.3731 275.901 20.5171 275.304 20.5171 274.6C20.5171 273.896 20.3785 273.299 20.1011 272.808C19.8238 272.317 19.4611 271.955 19.0131 271.72C18.5651 271.475 18.0798 271.352 17.5571 271.352C17.0238 271.352 16.5331 271.475 16.0851 271.72C15.6478 271.955 15.2958 272.317 15.0291 272.808C14.7625 273.299 14.6291 273.896 14.6291 274.6C14.6291 275.315 14.7571 275.917 15.0131 276.408C15.2798 276.899 15.6318 277.267 16.0691 277.512C16.5065 277.747 16.9865 277.864 17.5091 277.864ZM27.1835 277.656L29.9035 270.232H31.4555L28.0155 279H26.3195L22.8795 270.232H24.4475L27.1835 277.656ZM40.8883 274.28C40.8883 274.557 40.8723 274.851 40.8403 275.16H33.8323C33.8856 276.024 34.1789 276.701 34.7123 277.192C35.2563 277.672 35.9123 277.912 36.6803 277.912C37.3096 277.912 37.8323 277.768 38.2483 277.48C38.6749 277.181 38.9736 276.787 39.1443 276.296H40.7123C40.4776 277.139 40.0083 277.827 39.3043 278.36C38.6003 278.883 37.7256 279.144 36.6803 279.144C35.8483 279.144 35.1016 278.957 34.4403 278.584C33.7896 278.211 33.2776 277.683 32.9043 277C32.5309 276.307 32.3443 275.507 32.3443 274.6C32.3443 273.693 32.5256 272.899 32.8883 272.216C33.2509 271.533 33.7576 271.011 34.4083 270.648C35.0696 270.275 35.8269 270.088 36.6803 270.088C37.5123 270.088 38.2483 270.269 38.8883 270.632C39.5283 270.995 40.0189 271.496 40.3603 272.136C40.7123 272.765 40.8883 273.48 40.8883 274.28ZM39.3843 273.976C39.3843 273.421 39.2616 272.947 39.0163 272.552C38.7709 272.147 38.4349 271.843 38.0083 271.64C37.5923 271.427 37.1283 271.32 36.6163 271.32C35.8803 271.32 35.2509 271.555 34.7283 272.024C34.2163 272.493 33.9229 273.144 33.8483 273.976H39.3843ZM44.2661 271.656C44.5221 271.155 44.8848 270.765 45.3541 270.488C45.8341 270.211 46.4155 270.072 47.0981 270.072V271.576H46.7141C45.0821 271.576 44.2661 272.461 44.2661 274.232V279H42.8101V270.232H44.2661V271.656ZM53.0509 270.072C54.1175 270.072 54.9815 270.397 55.6429 271.048C56.3042 271.688 56.6349 272.616 56.6349 273.832V279H55.1949V274.04C55.1949 273.165 54.9762 272.499 54.5389 272.04C54.1015 271.571 53.5042 271.336 52.7469 271.336C51.9789 271.336 51.3655 271.576 50.9069 272.056C50.4589 272.536 50.2349 273.235 50.2349 274.152V279H48.7789V270.232H50.2349V271.48C50.5229 271.032 50.9122 270.685 51.4029 270.44C51.9042 270.195 52.4535 270.072 53.0509 270.072ZM58.4693 274.584C58.4693 273.688 58.6506 272.904 59.0133 272.232C59.3759 271.549 59.8719 271.021 60.5013 270.648C61.1413 270.275 61.8506 270.088 62.6293 270.088C63.3973 270.088 64.0639 270.253 64.6293 270.584C65.1946 270.915 65.6159 271.331 65.8933 271.832V270.232H67.3653V279H65.8933V277.368C65.6053 277.88 65.1733 278.307 64.5973 278.648C64.0319 278.979 63.3706 279.144 62.6133 279.144C61.8346 279.144 61.1306 278.952 60.5013 278.568C59.8719 278.184 59.3759 277.645 59.0133 276.952C58.6506 276.259 58.4693 275.469 58.4693 274.584ZM65.8933 274.6C65.8933 273.939 65.7599 273.363 65.4933 272.872C65.2266 272.381 64.8639 272.008 64.4053 271.752C63.9573 271.485 63.4613 271.352 62.9173 271.352C62.3733 271.352 61.8773 271.48 61.4293 271.736C60.9813 271.992 60.6239 272.365 60.3573 272.856C60.0906 273.347 59.9573 273.923 59.9573 274.584C59.9573 275.256 60.0906 275.843 60.3573 276.344C60.6239 276.835 60.9813 277.213 61.4293 277.48C61.8773 277.736 62.3733 277.864 62.9173 277.864C63.4613 277.864 63.9573 277.736 64.4053 277.48C64.8639 277.213 65.2266 276.835 65.4933 276.344C65.7599 275.843 65.8933 275.261 65.8933 274.6ZM74.0978 270.072C75.1644 270.072 76.0284 270.397 76.6898 271.048C77.3511 271.688 77.6818 272.616 77.6818 273.832V279H76.2418V274.04C76.2418 273.165 76.0231 272.499 75.5858 272.04C75.1484 271.571 74.5511 271.336 73.7938 271.336C73.0258 271.336 72.4124 271.576 71.9538 272.056C71.5058 272.536 71.2818 273.235 71.2818 274.152V279H69.8258V270.232H71.2818V271.48C71.5698 271.032 71.9591 270.685 72.4498 270.44C72.9511 270.195 73.5004 270.072 74.0978 270.072ZM79.5161 274.6C79.5161 273.693 79.6975 272.904 80.0601 272.232C80.4228 271.549 80.9241 271.021 81.5641 270.648C82.2148 270.275 82.9561 270.088 83.7881 270.088C84.8655 270.088 85.7508 270.349 86.4441 270.872C87.1481 271.395 87.6121 272.12 87.8361 273.048H86.2681C86.1188 272.515 85.8255 272.093 85.3881 271.784C84.9615 271.475 84.4281 271.32 83.7881 271.32C82.9561 271.32 82.2841 271.608 81.7721 272.184C81.2601 272.749 81.0041 273.555 81.0041 274.6C81.0041 275.656 81.2601 276.472 81.7721 277.048C82.2841 277.624 82.9561 277.912 83.7881 277.912C84.4281 277.912 84.9615 277.763 85.3881 277.464C85.8148 277.165 86.1081 276.739 86.2681 276.184H87.8361C87.6015 277.08 87.1321 277.8 86.4281 278.344C85.7241 278.877 84.8441 279.144 83.7881 279.144C82.9561 279.144 82.2148 278.957 81.5641 278.584C80.9241 278.211 80.4228 277.683 80.0601 277C79.6975 276.317 79.5161 275.517 79.5161 274.6ZM97.7789 274.28C97.7789 274.557 97.7629 274.851 97.7309 275.16H90.7229C90.7762 276.024 91.0695 276.701 91.6029 277.192C92.1469 277.672 92.8029 277.912 93.5709 277.912C94.2002 277.912 94.7229 277.768 95.1389 277.48C95.5655 277.181 95.8642 276.787 96.0349 276.296H97.6029C97.3682 277.139 96.8989 277.827 96.1949 278.36C95.4909 278.883 94.6162 279.144 93.5709 279.144C92.7389 279.144 91.9922 278.957 91.3309 278.584C90.6802 278.211 90.1682 277.683 89.7949 277C89.4215 276.307 89.2349 275.507 89.2349 274.6C89.2349 273.693 89.4162 272.899 89.7789 272.216C90.1415 271.533 90.6482 271.011 91.2989 270.648C91.9602 270.275 92.7175 270.088 93.5709 270.088C94.4029 270.088 95.1389 270.269 95.7789 270.632C96.4189 270.995 96.9095 271.496 97.2509 272.136C97.6029 272.765 97.7789 273.48 97.7789 274.28ZM96.2749 273.976C96.2749 273.421 96.1522 272.947 95.9069 272.552C95.6615 272.147 95.3255 271.843 94.8989 271.64C94.4829 271.427 94.0189 271.32 93.5069 271.32C92.7709 271.32 92.1415 271.555 91.6189 272.024C91.1069 272.493 90.8135 273.144 90.7389 273.976H96.2749Z" fill="#E7E8F3"/>
<line x1="308" y1="4" x2="308" y2="20" stroke="white" stroke-width="2" stroke-linecap="round"/>
<line x1="316" y1="12" x2="300" y2="12" stroke="white" stroke-width="2" stroke-linecap="round"/>
<rect x="0.5" y="77.5" width="319" height="101" rx="17.5" fill="#191920" stroke="#646486"/>
<rect y="297" width="320" height="95" rx="18" fill="#191920"/>
<path d="M29.925 115.09C29.425 115.406 28.675 115.406 28.175 115.09L19.375 109.554C18.875 109.237 18.875 108.763 19.375 108.447L28.125 102.911C28.625 102.594 29.375 102.594 29.875 102.911L38.625 108.447C39.125 108.763 39.125 109.237 38.625 109.554L29.925 115.09Z" fill="#646486"/>
<path d="M29.925 118.763C29.425 119.079 28.675 119.079 28.175 118.763L19.375 113.227C18.875 112.911 18.875 112.436 19.375 112.12L28.125 106.584C28.625 106.268 29.375 106.268 29.875 106.584L38.625 112.12C39.125 112.436 39.125 112.911 38.625 113.227L29.925 118.763Z" fill="#646486"/>
<path d="M29.925 115.09C29.425 115.406 28.675 115.406 28.175 115.09L19.375 109.554C18.875 109.237 18.875 108.763 19.375 108.447L28.125 102.911C28.625 102.594 29.375 102.594 29.875 102.911L38.625 108.447C39.125 108.763 39.125 109.237 38.625 109.554L29.925 115.09Z" fill="#A3A3B5"/>
<path d="M29.925 111.416C29.425 111.733 28.675 111.733 28.175 111.416L19.375 105.88C18.875 105.564 18.875 105.09 19.375 104.773L28.125 99.2373C28.625 98.9209 29.375 98.9209 29.875 99.2373L38.625 104.773C39.125 105.09 39.125 105.564 38.625 105.88L29.925 111.416Z" fill="#646486"/>
<path d="M30.6668 158C35.2692 158 39.0002 156.667 39.0002 155.024V152.643H22.3335V155.024C22.3335 156.667 26.0645 158 30.6668 158Z" fill="#646486"/>
<ellipse cx="30.6668" cy="152.643" rx="8.33333" ry="2.97619" fill="#646486"/>
<path d="M27.3333 153C31.9357 153 35.6667 151.667 35.6667 150.024V147.643H19V150.024C19 151.667 22.731 153 27.3333 153Z" fill="#A3A3B5"/>
<ellipse cx="27.3333" cy="147.643" rx="8.33333" ry="2.97619" fill="#A3A3B5"/>
<path d="M27.3333 150.5C31.9357 150.5 35.6667 149.167 35.6667 147.524V145.143H19V147.524C19 149.167 22.731 150.5 27.3333 150.5Z" fill="#646486"/>
<ellipse cx="27.3333" cy="145.143" rx="8.33333" ry="2.97619" fill="#646486"/>
<path d="M30.6668 146.333C35.2692 146.333 39.0002 145.001 39.0002 143.357V140.976H22.3335V143.357C22.3335 145.001 26.0645 146.333 30.6668 146.333Z" fill="#A3A3B5"/>
<ellipse cx="30.6668" cy="140.976" rx="8.33333" ry="2.97619" fill="#A3A3B5"/>
<path d="M57.704 103.848C58.92 103.848 59.9707 104.077 60.856 104.536C61.752 104.984 62.4347 105.629 62.904 106.472C63.384 107.315 63.624 108.307 63.624 109.448C63.624 110.589 63.384 111.581 62.904 112.424C62.4347 113.256 61.752 113.896 60.856 114.344C59.9707 114.781 58.92 115 57.704 115H54.232V103.848H57.704ZM57.704 113.8C59.144 113.8 60.2427 113.421 61 112.664C61.7573 111.896 62.136 110.824 62.136 109.448C62.136 108.061 61.752 106.979 60.984 106.2C60.2267 105.421 59.1333 105.032 57.704 105.032H55.688V113.8H57.704ZM73.5445 110.28C73.5445 110.557 73.5285 110.851 73.4965 111.16H66.4885C66.5418 112.024 66.8352 112.701 67.3685 113.192C67.9125 113.672 68.5685 113.912 69.3365 113.912C69.9658 113.912 70.4885 113.768 70.9045 113.48C71.3312 113.181 71.6298 112.787 71.8005 112.296H73.3685C73.1338 113.139 72.6645 113.827 71.9605 114.36C71.2565 114.883 70.3818 115.144 69.3365 115.144C68.5045 115.144 67.7578 114.957 67.0965 114.584C66.4458 114.211 65.9338 113.683 65.5605 113C65.1872 112.307 65.0005 111.507 65.0005 110.6C65.0005 109.693 65.1818 108.899 65.5445 108.216C65.9072 107.533 66.4138 107.011 67.0645 106.648C67.7258 106.275 68.4832 106.088 69.3365 106.088C70.1685 106.088 70.9045 106.269 71.5445 106.632C72.1845 106.995 72.6752 107.496 73.0165 108.136C73.3685 108.765 73.5445 109.48 73.5445 110.28ZM72.0405 109.976C72.0405 109.421 71.9178 108.947 71.6725 108.552C71.4272 108.147 71.0912 107.843 70.6645 107.64C70.2485 107.427 69.7845 107.32 69.2725 107.32C68.5365 107.32 67.9072 107.555 67.3845 108.024C66.8725 108.493 66.5792 109.144 66.5045 109.976H72.0405ZM76.9224 103.16V115H75.4664V103.16H76.9224ZM87.4039 110.28C87.4039 110.557 87.3879 110.851 87.3559 111.16H80.3479C80.4012 112.024 80.6945 112.701 81.2279 113.192C81.7719 113.672 82.4279 113.912 83.1959 113.912C83.8252 113.912 84.3479 113.768 84.7639 113.48C85.1905 113.181 85.4892 112.787 85.6599 112.296H87.2279C86.9932 113.139 86.5239 113.827 85.8199 114.36C85.1159 114.883 84.2412 115.144 83.1959 115.144C82.3639 115.144 81.6172 114.957 80.9559 114.584C80.3052 114.211 79.7932 113.683 79.4199 113C79.0465 112.307 78.8599 111.507 78.8599 110.6C78.8599 109.693 79.0412 108.899 79.4039 108.216C79.7665 107.533 80.2732 107.011 80.9239 106.648C81.5852 106.275 82.3425 106.088 83.1959 106.088C84.0279 106.088 84.7639 106.269 85.4039 106.632C86.0439 106.995 86.5345 107.496 86.8759 108.136C87.2279 108.765 87.4039 109.48 87.4039 110.28ZM85.8999 109.976C85.8999 109.421 85.7772 108.947 85.5319 108.552C85.2865 108.147 84.9505 107.843 84.5239 107.64C84.1079 107.427 83.6439 107.32 83.1319 107.32C82.3959 107.32 81.7665 107.555 81.2439 108.024C80.7319 108.493 80.4385 109.144 80.3639 109.976H85.8999ZM92.9418 106.088C93.6991 106.088 94.3604 106.253 94.9258 106.584C95.5018 106.915 95.9284 107.331 96.2058 107.832V106.232H97.6778V115.192C97.6778 115.992 97.5071 116.701 97.1658 117.32C96.8244 117.949 96.3338 118.44 95.6938 118.792C95.0644 119.144 94.3284 119.32 93.4858 119.32C92.3338 119.32 91.3738 119.048 90.6058 118.504C89.8378 117.96 89.3844 117.219 89.2458 116.28H90.6858C90.8458 116.813 91.1764 117.24 91.6778 117.56C92.1791 117.891 92.7818 118.056 93.4858 118.056C94.2858 118.056 94.9364 117.805 95.4378 117.304C95.9498 116.803 96.2058 116.099 96.2058 115.192V113.352C95.9178 113.864 95.4911 114.291 94.9258 114.632C94.3604 114.973 93.6991 115.144 92.9418 115.144C92.1631 115.144 91.4538 114.952 90.8138 114.568C90.1844 114.184 89.6884 113.645 89.3258 112.952C88.9631 112.259 88.7818 111.469 88.7818 110.584C88.7818 109.688 88.9631 108.904 89.3258 108.232C89.6884 107.549 90.1844 107.021 90.8138 106.648C91.4538 106.275 92.1631 106.088 92.9418 106.088ZM96.2058 110.6C96.2058 109.939 96.0724 109.363 95.8058 108.872C95.5391 108.381 95.1764 108.008 94.7178 107.752C94.2698 107.485 93.7738 107.352 93.2298 107.352C92.6858 107.352 92.1898 107.48 91.7418 107.736C91.2938 107.992 90.9364 108.365 90.6698 108.856C90.4031 109.347 90.2698 109.923 90.2698 110.584C90.2698 111.256 90.4031 111.843 90.6698 112.344C90.9364 112.835 91.2938 113.213 91.7418 113.48C92.1898 113.736 92.6858 113.864 93.2298 113.864C93.7738 113.864 94.2698 113.736 94.7178 113.48C95.1764 113.213 95.5391 112.835 95.8058 112.344C96.0724 111.843 96.2058 111.261 96.2058 110.6ZM99.5943 110.584C99.5943 109.688 99.7756 108.904 100.138 108.232C100.501 107.549 100.997 107.021 101.626 106.648C102.266 106.275 102.976 106.088 103.754 106.088C104.522 106.088 105.189 106.253 105.754 106.584C106.32 106.915 106.741 107.331 107.018 107.832V106.232H108.49V115H107.018V113.368C106.73 113.88 106.298 114.307 105.722 114.648C105.157 114.979 104.496 115.144 103.738 115.144C102.96 115.144 102.256 114.952 101.626 114.568C100.997 114.184 100.501 113.645 100.138 112.952C99.7756 112.259 99.5943 111.469 99.5943 110.584ZM107.018 110.6C107.018 109.939 106.885 109.363 106.618 108.872C106.352 108.381 105.989 108.008 105.53 107.752C105.082 107.485 104.586 107.352 104.042 107.352C103.498 107.352 103.002 107.48 102.554 107.736C102.106 107.992 101.749 108.365 101.482 108.856C101.216 109.347 101.082 109.923 101.082 110.584C101.082 111.256 101.216 111.843 101.482 112.344C101.749 112.835 102.106 113.213 102.554 113.48C103.002 113.736 103.498 113.864 104.042 113.864C104.586 113.864 105.082 113.736 105.53 113.48C105.989 113.213 106.352 112.835 106.618 112.344C106.885 111.843 107.018 111.261 107.018 110.6ZM112.727 107.432V112.6C112.727 113.027 112.817 113.331 112.999 113.512C113.18 113.683 113.495 113.768 113.943 113.768H115.015V115H113.703C112.892 115 112.284 114.813 111.879 114.44C111.473 114.067 111.271 113.453 111.271 112.6V107.432H110.135V106.232H111.271V104.024H112.727V106.232H115.015V107.432H112.727ZM124.779 110.28C124.779 110.557 124.763 110.851 124.731 111.16H117.723C117.776 112.024 118.07 112.701 118.603 113.192C119.147 113.672 119.803 113.912 120.571 113.912C121.2 113.912 121.723 113.768 122.139 113.48C122.566 113.181 122.864 112.787 123.035 112.296H124.603C124.368 113.139 123.899 113.827 123.195 114.36C122.491 114.883 121.616 115.144 120.571 115.144C119.739 115.144 118.992 114.957 118.331 114.584C117.68 114.211 117.168 113.683 116.795 113C116.422 112.307 116.235 111.507 116.235 110.6C116.235 109.693 116.416 108.899 116.779 108.216C117.142 107.533 117.648 107.011 118.299 106.648C118.96 106.275 119.718 106.088 120.571 106.088C121.403 106.088 122.139 106.269 122.779 106.632C123.419 106.995 123.91 107.496 124.251 108.136C124.603 108.765 124.779 109.48 124.779 110.28ZM123.275 109.976C123.275 109.421 123.152 108.947 122.907 108.552C122.662 108.147 122.326 107.843 121.899 107.64C121.483 107.427 121.019 107.32 120.507 107.32C119.771 107.32 119.142 107.555 118.619 108.024C118.107 108.493 117.814 109.144 117.739 109.976H123.275ZM126.157 110.584C126.157 109.688 126.338 108.904 126.701 108.232C127.063 107.549 127.559 107.021 128.189 106.648C128.829 106.275 129.543 106.088 130.333 106.088C131.015 106.088 131.65 106.248 132.237 106.568C132.823 106.877 133.271 107.288 133.581 107.8V103.16H135.053V115H133.581V113.352C133.293 113.875 132.866 114.307 132.301 114.648C131.735 114.979 131.074 115.144 130.317 115.144C129.538 115.144 128.829 114.952 128.189 114.568C127.559 114.184 127.063 113.645 126.701 112.952C126.338 112.259 126.157 111.469 126.157 110.584ZM133.581 110.6C133.581 109.939 133.447 109.363 133.181 108.872C132.914 108.381 132.551 108.008 132.093 107.752C131.645 107.485 131.149 107.352 130.605 107.352C130.061 107.352 129.565 107.48 129.117 107.736C128.669 107.992 128.311 108.365 128.045 108.856C127.778 109.347 127.645 109.923 127.645 110.584C127.645 111.256 127.778 111.843 128.045 112.344C128.311 112.835 128.669 113.213 129.117 113.48C129.565 113.736 130.061 113.864 130.605 113.864C131.149 113.864 131.645 113.736 132.093 113.48C132.551 113.213 132.914 112.835 133.181 112.344C133.447 111.843 133.581 111.261 133.581 110.6Z" fill="white"/>
<path d="M60.104 154L57.448 149.44H55.688V154H54.232V142.848H57.832C58.6747 142.848 59.384 142.992 59.96 143.28C60.5467 143.568 60.984 143.957 61.272 144.448C61.56 144.939 61.704 145.499 61.704 146.128C61.704 146.896 61.48 147.573 61.032 148.16C60.5947 148.747 59.9333 149.136 59.048 149.328L61.848 154H60.104ZM55.688 148.272H57.832C58.6213 148.272 59.2133 148.08 59.608 147.696C60.0027 147.301 60.2 146.779 60.2 146.128C60.2 145.467 60.0027 144.955 59.608 144.592C59.224 144.229 58.632 144.048 57.832 144.048H55.688V148.272ZM71.9664 149.28C71.9664 149.557 71.9504 149.851 71.9184 150.16H64.9104C64.9637 151.024 65.257 151.701 65.7904 152.192C66.3344 152.672 66.9904 152.912 67.7584 152.912C68.3877 152.912 68.9104 152.768 69.3264 152.48C69.753 152.181 70.0517 151.787 70.2224 151.296H71.7904C71.5557 152.139 71.0864 152.827 70.3824 153.36C69.6784 153.883 68.8037 154.144 67.7584 154.144C66.9264 154.144 66.1797 153.957 65.5184 153.584C64.8677 153.211 64.3557 152.683 63.9824 152C63.609 151.307 63.4224 150.507 63.4224 149.6C63.4224 148.693 63.6037 147.899 63.9664 147.216C64.329 146.533 64.8357 146.011 65.4864 145.648C66.1477 145.275 66.905 145.088 67.7584 145.088C68.5904 145.088 69.3264 145.269 69.9664 145.632C70.6064 145.995 71.097 146.496 71.4384 147.136C71.7904 147.765 71.9664 148.48 71.9664 149.28ZM70.4624 148.976C70.4624 148.421 70.3397 147.947 70.0944 147.552C69.849 147.147 69.513 146.843 69.0864 146.64C68.6704 146.427 68.2064 146.32 67.6944 146.32C66.9584 146.32 66.329 146.555 65.8064 147.024C65.2944 147.493 65.001 148.144 64.9264 148.976H70.4624ZM85.5683 145.232L82.8323 154H81.3283L79.2163 147.04L77.1043 154H75.6003L72.8483 145.232H74.3363L76.3523 152.592L78.5283 145.232H80.0163L82.1443 152.608L84.1283 145.232H85.5683ZM86.4693 149.584C86.4693 148.688 86.6506 147.904 87.0133 147.232C87.3759 146.549 87.8719 146.021 88.5013 145.648C89.1413 145.275 89.8506 145.088 90.6293 145.088C91.3973 145.088 92.0639 145.253 92.6293 145.584C93.1946 145.915 93.6159 146.331 93.8933 146.832V145.232H95.3653V154H93.8933V152.368C93.6053 152.88 93.1733 153.307 92.5973 153.648C92.0319 153.979 91.3706 154.144 90.6133 154.144C89.8346 154.144 89.1306 153.952 88.5013 153.568C87.8719 153.184 87.3759 152.645 87.0133 151.952C86.6506 151.259 86.4693 150.469 86.4693 149.584ZM93.8933 149.6C93.8933 148.939 93.7599 148.363 93.4933 147.872C93.2266 147.381 92.8639 147.008 92.4053 146.752C91.9573 146.485 91.4613 146.352 90.9173 146.352C90.3733 146.352 89.8773 146.48 89.4293 146.736C88.9813 146.992 88.6239 147.365 88.3573 147.856C88.0906 148.347 87.9573 148.923 87.9573 149.584C87.9573 150.256 88.0906 150.843 88.3573 151.344C88.6239 151.835 88.9813 152.213 89.4293 152.48C89.8773 152.736 90.3733 152.864 90.9173 152.864C91.4613 152.864 91.9573 152.736 92.4053 152.48C92.8639 152.213 93.2266 151.835 93.4933 151.344C93.7599 150.843 93.8933 150.261 93.8933 149.6ZM99.2818 146.656C99.5378 146.155 99.9004 145.765 100.37 145.488C100.85 145.211 101.431 145.072 102.114 145.072V146.576H101.73C100.098 146.576 99.2818 147.461 99.2818 149.232V154H97.8258V145.232H99.2818V146.656ZM103.251 149.584C103.251 148.688 103.432 147.904 103.795 147.232C104.157 146.549 104.653 146.021 105.283 145.648C105.923 145.275 106.637 145.088 107.427 145.088C108.109 145.088 108.744 145.248 109.331 145.568C109.917 145.877 110.365 146.288 110.675 146.8V142.16H112.147V154H110.675V152.352C110.387 152.875 109.96 153.307 109.395 153.648C108.829 153.979 108.168 154.144 107.411 154.144C106.632 154.144 105.923 153.952 105.283 153.568C104.653 153.184 104.157 152.645 103.795 151.952C103.432 151.259 103.251 150.469 103.251 149.584ZM110.675 149.6C110.675 148.939 110.541 148.363 110.275 147.872C110.008 147.381 109.645 147.008 109.187 146.752C108.739 146.485 108.243 146.352 107.699 146.352C107.155 146.352 106.659 146.48 106.211 146.736C105.763 146.992 105.405 147.365 105.139 147.856C104.872 148.347 104.739 148.923 104.739 149.584C104.739 150.256 104.872 150.843 105.139 151.344C105.405 151.835 105.763 152.213 106.211 152.48C106.659 152.736 107.155 152.864 107.699 152.864C108.243 152.864 108.739 152.736 109.187 152.48C109.645 152.213 110.008 151.835 110.275 151.344C110.541 150.843 110.675 150.261 110.675 149.6ZM117.711 154.144C117.039 154.144 116.436 154.032 115.903 153.808C115.37 153.573 114.948 153.253 114.639 152.848C114.33 152.432 114.159 151.957 114.127 151.424H115.631C115.674 151.861 115.876 152.219 116.239 152.496C116.612 152.773 117.098 152.912 117.695 152.912C118.25 152.912 118.687 152.789 119.007 152.544C119.327 152.299 119.487 151.989 119.487 151.616C119.487 151.232 119.316 150.949 118.975 150.768C118.634 150.576 118.106 150.389 117.391 150.208C116.74 150.037 116.207 149.867 115.791 149.696C115.386 149.515 115.034 149.253 114.735 148.912C114.447 148.56 114.303 148.101 114.303 147.536C114.303 147.088 114.436 146.677 114.703 146.304C114.97 145.931 115.348 145.637 115.839 145.424C116.33 145.2 116.89 145.088 117.519 145.088C118.49 145.088 119.274 145.333 119.871 145.824C120.468 146.315 120.788 146.987 120.831 147.84H119.375C119.343 147.381 119.156 147.013 118.815 146.736C118.484 146.459 118.036 146.32 117.471 146.32C116.948 146.32 116.532 146.432 116.223 146.656C115.914 146.88 115.759 147.173 115.759 147.536C115.759 147.824 115.85 148.064 116.031 148.256C116.223 148.437 116.458 148.587 116.735 148.704C117.023 148.811 117.418 148.933 117.919 149.072C118.548 149.243 119.06 149.413 119.455 149.584C119.85 149.744 120.186 149.989 120.463 150.32C120.751 150.651 120.9 151.083 120.911 151.616C120.911 152.096 120.778 152.528 120.511 152.912C120.244 153.296 119.866 153.6 119.375 153.824C118.895 154.037 118.34 154.144 117.711 154.144Z" fill="white"/>
<rect x="212" y="102" width="91" height="14" rx="7" fill="#52526B"/>
<rect x="212" y="142" width="91" height="14" rx="7" fill="#52526B"/>
<path d="M4.704 47.848C5.92 47.848 6.97067 48.0773 7.856 48.536C8.752 48.984 9.43467 49.6293 9.904 50.472C10.384 51.3147 10.624 52.3067 10.624 53.448C10.624 54.5893 10.384 55.5813 9.904 56.424C9.43467 57.256 8.752 57.896 7.856 58.344C6.97067 58.7813 5.92 59 4.704 59H1.232V47.848H4.704ZM4.704 57.8C6.144 57.8 7.24267 57.4213 8 56.664C8.75733 55.896 9.136 54.824 9.136 53.448C9.136 52.0613 8.752 50.9787 7.984 50.2C7.22667 49.4213 6.13333 49.032 4.704 49.032H2.688V57.8H4.704ZM12.0005 54.584C12.0005 53.688 12.1818 52.904 12.5445 52.232C12.9072 51.5493 13.4032 51.0213 14.0325 50.648C14.6725 50.2747 15.3818 50.088 16.1605 50.088C16.9285 50.088 17.5952 50.2533 18.1605 50.584C18.7258 50.9147 19.1472 51.3307 19.4245 51.832V50.232H20.8965V59H19.4245V57.368C19.1365 57.88 18.7045 58.3067 18.1285 58.648C17.5632 58.9787 16.9018 59.144 16.1445 59.144C15.3658 59.144 14.6618 58.952 14.0325 58.568C13.4032 58.184 12.9072 57.6453 12.5445 56.952C12.1818 56.2587 12.0005 55.4693 12.0005 54.584ZM19.4245 54.6C19.4245 53.9387 19.2912 53.3627 19.0245 52.872C18.7578 52.3813 18.3952 52.008 17.9365 51.752C17.4885 51.4853 16.9925 51.352 16.4485 51.352C15.9045 51.352 15.4085 51.48 14.9605 51.736C14.5125 51.992 14.1552 52.3653 13.8885 52.856C13.6218 53.3467 13.4885 53.9227 13.4885 54.584C13.4885 55.256 13.6218 55.8427 13.8885 56.344C14.1552 56.8347 14.5125 57.2133 14.9605 57.48C15.4085 57.736 15.9045 57.864 16.4485 57.864C16.9925 57.864 17.4885 57.736 17.9365 57.48C18.3952 57.2133 18.7578 56.8347 19.0245 56.344C19.2912 55.8427 19.4245 55.2613 19.4245 54.6ZM26.461 59.144C25.789 59.144 25.1863 59.032 24.653 58.808C24.1197 58.5733 23.6983 58.2533 23.389 57.848C23.0797 57.432 22.909 56.9573 22.877 56.424H24.381C24.4237 56.8613 24.6263 57.2187 24.989 57.496C25.3623 57.7733 25.8477 57.912 26.445 57.912C26.9997 57.912 27.437 57.7893 27.757 57.544C28.077 57.2987 28.237 56.9893 28.237 56.616C28.237 56.232 28.0663 55.9493 27.725 55.768C27.3837 55.576 26.8557 55.3893 26.141 55.208C25.4903 55.0373 24.957 54.8667 24.541 54.696C24.1357 54.5147 23.7837 54.2533 23.485 53.912C23.197 53.56 23.053 53.1013 23.053 52.536C23.053 52.088 23.1863 51.6773 23.453 51.304C23.7197 50.9307 24.0983 50.6373 24.589 50.424C25.0797 50.2 25.6397 50.088 26.269 50.088C27.2397 50.088 28.0237 50.3333 28.621 50.824C29.2183 51.3147 29.5383 51.9867 29.581 52.84H28.125C28.093 52.3813 27.9063 52.0133 27.565 51.736C27.2343 51.4587 26.7863 51.32 26.221 51.32C25.6983 51.32 25.2823 51.432 24.973 51.656C24.6637 51.88 24.509 52.1733 24.509 52.536C24.509 52.824 24.5997 53.064 24.781 53.256C24.973 53.4373 25.2077 53.5867 25.485 53.704C25.773 53.8107 26.1677 53.9333 26.669 54.072C27.2983 54.2427 27.8103 54.4133 28.205 54.584C28.5997 54.744 28.9357 54.9893 29.213 55.32C29.501 55.6507 29.6503 56.0827 29.661 56.616C29.661 57.096 29.5277 57.528 29.261 57.912C28.9943 58.296 28.6157 58.6 28.125 58.824C27.645 59.0373 27.0903 59.144 26.461 59.144ZM36.0684 50.072C36.7297 50.072 37.327 50.216 37.8604 50.504C38.3937 50.7813 38.8097 51.2027 39.1084 51.768C39.4177 52.3333 39.5724 53.0213 39.5724 53.832V59H38.1324V54.04C38.1324 53.1653 37.9137 52.4987 37.4764 52.04C37.039 51.5707 36.4417 51.336 35.6844 51.336C34.9164 51.336 34.303 51.576 33.8444 52.056C33.3964 52.536 33.1724 53.2347 33.1724 54.152V59H31.7164V47.16H33.1724V51.48C33.4604 51.032 33.855 50.6853 34.3564 50.44C34.8684 50.1947 35.439 50.072 36.0684 50.072ZM43.4068 51.864C43.7054 51.3413 44.1428 50.9147 44.7188 50.584C45.2948 50.2533 45.9508 50.088 46.6868 50.088C47.4761 50.088 48.1854 50.2747 48.8148 50.648C49.4441 51.0213 49.9401 51.5493 50.3028 52.232C50.6654 52.904 50.8468 53.688 50.8468 54.584C50.8468 55.4693 50.6654 56.2587 50.3028 56.952C49.9401 57.6453 49.4387 58.184 48.7987 58.568C48.1694 58.952 47.4654 59.144 46.6868 59.144C45.9294 59.144 45.2628 58.9787 44.6868 58.648C44.1214 58.3173 43.6948 57.896 43.4068 57.384V59H41.9508V47.16H43.4068V51.864ZM49.3588 54.584C49.3588 53.9227 49.2254 53.3467 48.9588 52.856C48.6921 52.3653 48.3294 51.992 47.8708 51.736C47.4228 51.48 46.9268 51.352 46.3828 51.352C45.8494 51.352 45.3534 51.4853 44.8948 51.752C44.4468 52.008 44.0841 52.3867 43.8068 52.888C43.5401 53.3787 43.4068 53.9493 43.4068 54.6C43.4068 55.2613 43.5401 55.8427 43.8068 56.344C44.0841 56.8347 44.4468 57.2133 44.8948 57.48C45.3534 57.736 45.8494 57.864 46.3828 57.864C46.9268 57.864 47.4228 57.736 47.8708 57.48C48.3294 57.2133 48.6921 56.8347 48.9588 56.344C49.2254 55.8427 49.3588 55.256 49.3588 54.584ZM56.5873 59.144C55.7659 59.144 55.0193 58.9573 54.3473 58.584C53.6859 58.2107 53.1633 57.6827 52.7793 57C52.4059 56.3067 52.2193 55.5067 52.2193 54.6C52.2193 53.704 52.4113 52.9147 52.7953 52.232C53.1899 51.5387 53.7233 51.0107 54.3953 50.648C55.0673 50.2747 55.8193 50.088 56.6513 50.088C57.4833 50.088 58.2353 50.2747 58.9073 50.648C59.5793 51.0107 60.1073 51.5333 60.4913 52.216C60.8859 52.8987 61.0833 53.6933 61.0833 54.6C61.0833 55.5067 60.8806 56.3067 60.4753 57C60.0806 57.6827 59.5419 58.2107 58.8593 58.584C58.1766 58.9573 57.4193 59.144 56.5873 59.144ZM56.5873 57.864C57.1099 57.864 57.6006 57.7413 58.0593 57.496C58.5179 57.2507 58.8859 56.8827 59.1633 56.392C59.4513 55.9013 59.5953 55.304 59.5953 54.6C59.5953 53.896 59.4566 53.2987 59.1793 52.808C58.9019 52.3173 58.5393 51.9547 58.0913 51.72C57.6433 51.4747 57.1579 51.352 56.6353 51.352C56.1019 51.352 55.6113 51.4747 55.1633 51.72C54.7259 51.9547 54.3739 52.3173 54.1073 52.808C53.8406 53.2987 53.7073 53.896 53.7073 54.6C53.7073 55.3147 53.8353 55.9173 54.0913 56.408C54.3579 56.8987 54.7099 57.2667 55.1473 57.512C55.5846 57.7467 56.0646 57.864 56.5873 57.864ZM62.4536 54.584C62.4536 53.688 62.635 52.904 62.9976 52.232C63.3603 51.5493 63.8563 51.0213 64.4856 50.648C65.1256 50.2747 65.835 50.088 66.6136 50.088C67.3816 50.088 68.0483 50.2533 68.6136 50.584C69.179 50.9147 69.6003 51.3307 69.8776 51.832V50.232H71.3496V59H69.8776V57.368C69.5896 57.88 69.1576 58.3067 68.5816 58.648C68.0163 58.9787 67.355 59.144 66.5976 59.144C65.819 59.144 65.115 58.952 64.4856 58.568C63.8563 58.184 63.3603 57.6453 62.9976 56.952C62.635 56.2587 62.4536 55.4693 62.4536 54.584ZM69.8776 54.6C69.8776 53.9387 69.7443 53.3627 69.4776 52.872C69.211 52.3813 68.8483 52.008 68.3896 51.752C67.9416 51.4853 67.4456 51.352 66.9016 51.352C66.3576 51.352 65.8616 51.48 65.4136 51.736C64.9656 51.992 64.6083 52.3653 64.3416 52.856C64.075 53.3467 63.9416 53.9227 63.9416 54.584C63.9416 55.256 64.075 55.8427 64.3416 56.344C64.6083 56.8347 64.9656 57.2133 65.4136 57.48C65.8616 57.736 66.3576 57.864 66.9016 57.864C67.4456 57.864 67.9416 57.736 68.3896 57.48C68.8483 57.2133 69.211 56.8347 69.4776 56.344C69.7443 55.8427 69.8776 55.2613 69.8776 54.6ZM75.2661 51.656C75.5221 51.1547 75.8848 50.7653 76.3541 50.488C76.8341 50.2107 77.4155 50.072 78.0981 50.072V51.576H77.7141C76.0821 51.576 75.2661 52.4613 75.2661 54.232V59H73.8101V50.232H75.2661V51.656ZM79.2349 54.584C79.2349 53.688 79.4162 52.904 79.7789 52.232C80.1415 51.5493 80.6375 51.0213 81.2669 50.648C81.9069 50.2747 82.6215 50.088 83.4109 50.088C84.0935 50.088 84.7282 50.248 85.3149 50.568C85.9015 50.8773 86.3495 51.288 86.6589 51.8V47.16H88.1309V59H86.6589V57.352C86.3709 57.8747 85.9442 58.3067 85.3789 58.648C84.8135 58.9787 84.1522 59.144 83.3949 59.144C82.6162 59.144 81.9069 58.952 81.2669 58.568C80.6375 58.184 80.1415 57.6453 79.7789 56.952C79.4162 56.2587 79.2349 55.4693 79.2349 54.584ZM86.6589 54.6C86.6589 53.9387 86.5255 53.3627 86.2589 52.872C85.9922 52.3813 85.6295 52.008 85.1709 51.752C84.7229 51.4853 84.2269 51.352 83.6829 51.352C83.1389 51.352 82.6429 51.48 82.1949 51.736C81.7469 51.992 81.3895 52.3653 81.1229 52.856C80.8562 53.3467 80.7229 53.9227 80.7229 54.584C80.7229 55.256 80.8562 55.8427 81.1229 56.344C81.3895 56.8347 81.7469 57.2133 82.1949 57.48C82.6429 57.736 83.1389 57.864 83.6829 57.864C84.2269 57.864 84.7229 57.736 85.1709 57.48C85.6295 57.2133 85.9922 56.8347 86.2589 56.344C86.5255 55.8427 86.6589 55.2613 86.6589 54.6Z" fill="#E7E8F3"/>
<rect x="17" y="314" width="94" height="19" rx="9.5" fill="#52526B"/>
<rect x="17" y="356" width="143" height="19" rx="9.5" fill="#52526B"/>
<rect x="209" y="314" width="94" height="19" rx="9.5" fill="#52526B"/>
<rect x="237" y="356" width="66" height="19" rx="9.5" fill="#52526B"/>
</svg>
