<svg width="28" height="28" viewBox="0 0 28 28" fill="none" xmlns="http://www.w3.org/2000/svg">
<path d="M6.04545 11.6821L6.75256 10.975L6.04545 10.2679L5.33834 10.975L6.04545 11.6821ZM11.298 15.5204L6.75256 10.975L5.33834 12.3892L9.88379 16.9346L11.298 15.5204ZM5.33834 10.975L0.792895 15.5204L2.20711 16.9346L6.75256 12.3892L5.33834 10.975Z" fill="white"/>
<path d="M17.9773 20.8434C16.7681 21.5416 15.3963 21.9091 14 21.9091C12.6037 21.9091 11.232 21.5416 10.0228 20.8434C8.81352 20.1453 7.80935 19.1411 7.1112 17.9319C6.41304 16.7226 6.04549 15.3509 6.04549 13.9546" stroke="white" stroke-width="2" stroke-linecap="round"/>
<path d="M21.9544 16.2271L21.2473 16.9342L21.9544 17.6413L22.6615 16.9342L21.9544 16.2271ZM16.7019 12.3887L21.2473 16.9342L22.6615 15.5199L18.1161 10.9745L16.7019 12.3887ZM22.6615 16.9342L27.207 12.3887L25.7928 10.9745L21.2473 15.5199L22.6615 16.9342Z" fill="#0059FF"/>
<path d="M10.0227 7.06567C11.2319 6.36752 12.6037 5.99997 14 5.99997C15.3963 5.99997 16.768 6.36752 17.9772 7.06568C19.1865 7.76383 20.1906 8.768 20.8888 9.97724C21.587 11.1865 21.9545 12.5582 21.9545 13.9545" stroke="#0059FF" stroke-width="2" stroke-linecap="round"/>
</svg>
