<svg width="28" height="28" viewBox="0 0 28 28" fill="none" xmlns="http://www.w3.org/2000/svg">
<path d="M6.04556 11.682L6.75266 10.9749L6.04556 10.2678L5.33845 10.9749L6.04556 11.682ZM11.2981 15.5203L6.75266 10.9749L5.33845 12.3891L9.88389 16.9345L11.2981 15.5203ZM5.33845 10.9749L0.79301 15.5203L2.20722 16.9345L6.75266 12.3891L5.33845 10.9749Z" fill="#646486"/>
<path d="M17.9772 20.8435C16.768 21.5417 15.3963 21.9092 13.9999 21.9092C12.6036 21.9092 11.2319 21.5417 10.0227 20.8435C8.81345 20.1454 7.80929 19.1412 7.11113 17.9319C6.41298 16.7227 6.04543 15.351 6.04543 13.9547" stroke="#646486" stroke-width="2" stroke-linecap="round"/>
<path d="M21.9546 16.2273L21.2475 16.9344L21.9546 17.6415L22.6617 16.9344L21.9546 16.2273ZM16.702 12.389L21.2475 16.9344L22.6617 15.5202L18.1162 10.9748L16.702 12.389ZM22.6617 16.9344L27.2071 12.389L25.7929 10.9748L21.2475 15.5202L22.6617 16.9344Z" fill="#646486"/>
<path d="M10.0228 7.0657C11.232 6.36755 12.6037 6 14 6C15.3963 6 16.7681 6.36755 17.9773 7.0657C19.1865 7.76386 20.1907 8.76802 20.8889 9.97726C21.587 11.1865 21.9546 12.5582 21.9546 13.9545" stroke="#646486" stroke-width="2" stroke-linecap="round"/>
</svg>
